<svg width="392" height="289" viewBox="0 0 392 289" fill="none" xmlns="http://www.w3.org/2000/svg">
<path d="M302.074 53.6108L301.937 116.887L200.657 175.706L200.863 112.499L302.074 53.6108Z" fill="#E64A19"/>
<path d="M200.863 112.499L200.658 175.706L135.035 101.599L135.172 38.3232L200.863 112.499Z" fill="#E64A19"/>
<path d="M302.075 53.6109L200.795 112.431L135.172 38.3233C191.675 21.6645 257.092 27.6288 302.075 53.6109Z" fill="#2DA9E1"/>
<path d="M200.863 112.499L200.657 175.706L99.3774 234.526L99.5832 171.319L200.863 112.499Z" fill="#EF6C00"/>
<path d="M57.0002 175.295C57.0688 154.249 57.1374 133.134 57.206 112.088C57.1374 133.545 71.2631 155.003 99.5831 171.319L99.3774 234.526C71.0574 218.21 56.9317 196.753 57.0002 175.295Z" fill="#AC9818"/>
<path d="M135.172 38.3232L200.795 112.431L99.5831 171.319C43.286 138.824 43.0117 86.1057 98.8974 53.6794C110.143 47.1668 121.115 42.5051 135.172 38.3232Z" fill="#FFDE12"/>
<path d="M345 112.431C344.931 133.477 344.863 154.592 344.794 175.638C344.726 188.389 339.514 201.277 328.886 213.48L329.091 150.273C339.72 138.07 344.931 125.113 345 112.431Z" fill="#00695C"/>
<path d="M302.074 53.6108C347.126 79.593 357.686 117.435 329.023 150.204L200.794 112.431L302.074 53.6108Z" fill="#3DB54A"/>
<path d="M329.023 150.272L328.886 213.48L200.657 175.706L200.863 112.499L329.023 150.272Z" fill="#00796B"/>
<path d="M223.766 194.627L223.629 257.903L200.657 175.706L200.863 112.499L223.766 194.627Z" fill="#C0CA33"/>
<path d="M329.023 150.272L328.817 213.48C307.354 238.022 270.531 253.584 223.56 257.903L223.766 194.696C270.737 190.308 307.56 174.815 329.023 150.272Z" fill="#A9411C"/>
<path d="M329.023 150.272C307.56 174.815 270.737 190.377 223.766 194.696L200.794 112.499L329.023 150.272Z" fill="#F15822"/>
<path d="M223.766 194.627L223.56 257.834C176.589 262.153 133.115 253.995 99.3774 234.457L99.5832 171.25C133.389 190.788 176.795 198.946 223.766 194.627Z" fill="#724C2F"/>
<path d="M200.863 112.499L223.835 194.696C176.863 199.015 133.389 190.857 99.6519 171.319L200.863 112.499Z" fill="#8B5F3D"/>
<g opacity="0.9" filter="url(#filter0_d)">
<path d="M260 5H185C183.895 5 183 5.89543 183 7V34C183 35.1046 183.895 36 185 36H260C261.105 36 262 35.1046 262 34V7C262 5.89543 261.105 5 260 5Z" fill="white"/>
<path d="M185 5.5H260C260.828 5.5 261.5 6.17157 261.5 7V34C261.5 34.8284 260.828 35.5 260 35.5H185C184.172 35.5 183.5 34.8284 183.5 34V7C183.5 6.17157 184.172 5.5 185 5.5Z" stroke="#F4F4F4"/>
</g>
<g opacity="0.9" filter="url(#filter1_d)">
<path d="M379 81H304C302.895 81 302 81.8954 302 83V110C302 111.105 302.895 112 304 112H379C380.105 112 381 111.105 381 110V83C381 81.8954 380.105 81 379 81Z" fill="white"/>
<path d="M304 81.5H379C379.828 81.5 380.5 82.1716 380.5 83V110C380.5 110.828 379.828 111.5 379 111.5H304C303.172 111.5 302.5 110.828 302.5 110V83C302.5 82.1716 303.172 81.5 304 81.5Z" stroke="#F4F4F4"/>
</g>
<g opacity="0.9" filter="url(#filter2_d)">
<path d="M344 221H269C267.895 221 267 221.895 267 223V250C267 251.105 267.895 252 269 252H344C345.105 252 346 251.105 346 250V223C346 221.895 345.105 221 344 221Z" fill="white"/>
<path d="M269 221.5H344C344.828 221.5 345.5 222.172 345.5 223V250C345.5 250.828 344.828 251.5 344 251.5H269C268.172 251.5 267.5 250.828 267.5 250V223C267.5 222.172 268.172 221.5 269 221.5Z" stroke="#F4F4F4"/>
</g>
<g opacity="0.9" filter="url(#filter3_d)">
<path d="M166 241H91C89.8954 241 89 241.895 89 243V270C89 271.105 89.8954 272 91 272H166C167.105 272 168 271.105 168 270V243C168 241.895 167.105 241 166 241Z" fill="white"/>
<path d="M91 241.5H166C166.828 241.5 167.5 242.172 167.5 243V270C167.5 270.828 166.828 271.5 166 271.5H91C90.1716 271.5 89.5 270.828 89.5 270V243C89.5 242.172 90.1716 241.5 91 241.5Z" stroke="#F4F4F4"/>
</g>
<g opacity="0.9" filter="url(#filter4_d)">
<path d="M88 83H13C11.8954 83 11 83.8954 11 85V112C11 113.105 11.8954 114 13 114H88C89.1046 114 90 113.105 90 112V85C90 83.8954 89.1046 83 88 83Z" fill="white"/>
<path d="M13 83.5H88C88.8284 83.5 89.5 84.1716 89.5 85V112C89.5 112.828 88.8284 113.5 88 113.5H13C12.1716 113.5 11.5 112.828 11.5 112V85C11.5 84.1716 12.1716 83.5 13 83.5Z" stroke="#F4F4F4"/>
</g>
<path d="M207.536 24.768C207.527 24.7867 207.527 24.8053 207.536 24.824C207.546 24.8333 207.56 24.838 207.578 24.838H211.792C211.886 24.838 211.932 24.8847 211.932 24.978V25.86C211.932 25.9533 211.886 26 211.792 26H205.926C205.833 26 205.786 25.9533 205.786 25.86V25.006C205.786 24.9407 205.81 24.8847 205.856 24.838C206.174 24.474 206.902 23.62 208.04 22.276L209.006 21.114C209.874 20.078 210.308 19.2753 210.308 18.706C210.308 18.2673 210.159 17.9173 209.86 17.656C209.571 17.3853 209.184 17.25 208.698 17.25C208.213 17.25 207.826 17.3853 207.536 17.656C207.247 17.9267 207.107 18.2813 207.116 18.72V19.14C207.116 19.2333 207.07 19.28 206.976 19.28H205.898C205.805 19.28 205.758 19.2333 205.758 19.14V18.538C205.777 18.0527 205.912 17.6233 206.164 17.25C206.426 16.8767 206.776 16.592 207.214 16.396C207.653 16.1907 208.148 16.088 208.698 16.088C209.296 16.088 209.818 16.2 210.266 16.424C210.714 16.648 211.06 16.956 211.302 17.348C211.545 17.74 211.666 18.1833 211.666 18.678C211.666 19.4527 211.246 20.3673 210.406 21.422C210.033 21.898 209.59 22.4347 209.076 23.032C208.563 23.62 208.05 24.1987 207.536 24.768ZM219.002 21.814C219.198 22.206 219.296 22.6727 219.296 23.214C219.296 23.8113 219.165 24.334 218.904 24.782C218.68 25.202 218.344 25.5287 217.896 25.762C217.457 25.9953 216.939 26.112 216.342 26.112C215.744 26.112 215.217 25.9953 214.76 25.762C214.302 25.5193 213.957 25.174 213.724 24.726C213.472 24.2873 213.346 23.7787 213.346 23.2C213.346 22.6867 213.448 22.2153 213.654 21.786C213.859 21.3567 214.162 21.0347 214.564 20.82C214.61 20.8013 214.61 20.778 214.564 20.75C214.265 20.526 214.041 20.2927 213.892 20.05C213.63 19.658 213.5 19.21 213.5 18.706C213.5 18.1553 213.658 17.6513 213.976 17.194C214.209 16.8393 214.531 16.5593 214.942 16.354C215.362 16.1487 215.828 16.046 216.342 16.046C216.864 16.046 217.326 16.1487 217.728 16.354C218.129 16.5593 218.446 16.8393 218.68 17.194C218.988 17.6513 219.142 18.1553 219.142 18.706C219.142 19.21 219.011 19.6673 218.75 20.078C218.582 20.3393 218.362 20.5633 218.092 20.75C218.045 20.778 218.045 20.8013 218.092 20.82C218.484 21.0347 218.787 21.366 219.002 21.814ZM215.026 17.992C214.895 18.2347 214.83 18.4727 214.83 18.706C214.83 19.0793 214.918 19.392 215.096 19.644C215.348 20.064 215.758 20.274 216.328 20.274C216.888 20.274 217.303 20.0593 217.574 19.63C217.732 19.406 217.812 19.0933 217.812 18.692C217.812 18.4307 217.751 18.1927 217.63 17.978C217.508 17.7447 217.336 17.558 217.112 17.418C216.888 17.278 216.622 17.208 216.314 17.208C216.024 17.208 215.768 17.278 215.544 17.418C215.32 17.558 215.147 17.7493 215.026 17.992ZM217.616 24.306C217.83 24.0073 217.938 23.606 217.938 23.102C217.938 22.654 217.858 22.2853 217.7 21.996C217.438 21.5107 216.981 21.268 216.328 21.268C215.693 21.268 215.245 21.4967 214.984 21.954C214.806 22.2527 214.718 22.64 214.718 23.116C214.718 23.5827 214.816 23.9653 215.012 24.264C215.282 24.712 215.726 24.936 216.342 24.936C216.92 24.936 217.345 24.726 217.616 24.306ZM221.918 26C221.657 26 221.442 25.916 221.274 25.748C221.106 25.58 221.022 25.3653 221.022 25.104C221.022 24.8427 221.106 24.628 221.274 24.46C221.442 24.292 221.657 24.208 221.918 24.208C222.18 24.208 222.394 24.292 222.562 24.46C222.73 24.628 222.814 24.8427 222.814 25.104C222.814 25.3653 222.73 25.58 222.562 25.748C222.394 25.916 222.18 26 221.918 26ZM230.142 21.352C230.328 21.8093 230.422 22.3367 230.422 22.934C230.422 23.4287 230.347 23.886 230.198 24.306C229.992 24.8847 229.652 25.3327 229.176 25.65C228.7 25.958 228.126 26.112 227.454 26.112C226.782 26.112 226.198 25.9393 225.704 25.594C225.218 25.2487 224.878 24.782 224.682 24.194C224.579 23.9327 224.518 23.5593 224.5 23.074C224.5 22.9807 224.546 22.934 224.64 22.934H225.718C225.811 22.934 225.858 22.9807 225.858 23.074C225.876 23.41 225.914 23.6573 225.97 23.816C226.063 24.1613 226.236 24.4367 226.488 24.642C226.749 24.8473 227.071 24.95 227.454 24.95C228.163 24.95 228.639 24.628 228.882 23.984C229.003 23.704 229.064 23.34 229.064 22.892C229.064 22.416 228.989 21.9913 228.84 21.618C228.578 21.0393 228.112 20.75 227.44 20.75C227.281 20.75 227.08 20.82 226.838 20.96C226.8 20.9787 226.772 20.988 226.754 20.988C226.707 20.988 226.67 20.9647 226.642 20.918L226.11 20.19C226.091 20.1527 226.082 20.12 226.082 20.092C226.082 20.064 226.096 20.0313 226.124 19.994L228.518 17.432C228.546 17.3853 228.536 17.362 228.49 17.362H224.766C224.672 17.362 224.626 17.3153 224.626 17.222V16.34C224.626 16.2467 224.672 16.2 224.766 16.2H230.198C230.291 16.2 230.338 16.2467 230.338 16.34V17.348C230.338 17.3947 230.314 17.4507 230.268 17.516L228.14 19.84C228.121 19.8587 228.116 19.8773 228.126 19.896C228.135 19.9053 228.154 19.9147 228.182 19.924C228.658 19.9707 229.059 20.12 229.386 20.372C229.712 20.6147 229.964 20.9413 230.142 21.352ZM234.474 20.218C234.091 20.218 233.736 20.1247 233.41 19.938C233.092 19.7513 232.84 19.4993 232.654 19.182C232.467 18.8647 232.374 18.5147 232.374 18.132C232.374 17.7587 232.467 17.4133 232.654 17.096C232.84 16.7787 233.092 16.5313 233.41 16.354C233.736 16.1673 234.091 16.074 234.474 16.074C234.847 16.074 235.192 16.1673 235.51 16.354C235.827 16.5407 236.079 16.7927 236.266 17.11C236.452 17.418 236.546 17.7587 236.546 18.132C236.546 18.5147 236.452 18.8647 236.266 19.182C236.079 19.4993 235.827 19.7513 235.51 19.938C235.192 20.1247 234.847 20.218 234.474 20.218ZM234.068 26C234.012 26 233.974 25.986 233.956 25.958C233.937 25.9207 233.942 25.8787 233.97 25.832L239.262 16.298C239.299 16.2327 239.355 16.2 239.43 16.2H240.116C240.172 16.2 240.209 16.2187 240.228 16.256C240.246 16.284 240.242 16.3213 240.214 16.368L234.922 25.902C234.894 25.9673 234.838 26 234.754 26H234.068ZM234.474 19.392C234.819 19.392 235.108 19.2707 235.342 19.028C235.575 18.7853 235.692 18.4867 235.692 18.132C235.692 17.7867 235.57 17.4973 235.328 17.264C235.094 17.0213 234.81 16.9 234.474 16.9C234.128 16.9 233.834 17.0213 233.592 17.264C233.349 17.4973 233.228 17.7867 233.228 18.132C233.228 18.4867 233.349 18.7853 233.592 19.028C233.834 19.2707 234.128 19.392 234.474 19.392ZM239.808 26.126C239.425 26.126 239.07 26.0327 238.744 25.846C238.426 25.6593 238.174 25.4073 237.988 25.09C237.801 24.7727 237.708 24.4273 237.708 24.054C237.708 23.6807 237.801 23.3353 237.988 23.018C238.174 22.7007 238.426 22.4487 238.744 22.262C239.07 22.0753 239.425 21.982 239.808 21.982C240.181 21.982 240.526 22.0753 240.844 22.262C241.161 22.4487 241.413 22.7007 241.6 23.018C241.786 23.3353 241.88 23.6807 241.88 24.054C241.88 24.4273 241.786 24.7727 241.6 25.09C241.413 25.4073 241.161 25.6593 240.844 25.846C240.526 26.0327 240.181 26.126 239.808 26.126ZM239.808 25.3C240.153 25.3 240.442 25.1787 240.676 24.936C240.909 24.6933 241.026 24.3993 241.026 24.054C241.026 23.7087 240.904 23.4147 240.662 23.172C240.428 22.9293 240.144 22.808 239.808 22.808C239.462 22.808 239.168 22.9293 238.926 23.172C238.683 23.4147 238.562 23.7087 238.562 24.054C238.562 24.3993 238.683 24.6933 238.926 24.936C239.168 25.1787 239.462 25.3 239.808 25.3Z" fill="#231F20"/>
<path d="M326.536 100.768C326.527 100.787 326.527 100.805 326.536 100.824C326.546 100.833 326.56 100.838 326.578 100.838H330.792C330.886 100.838 330.932 100.885 330.932 100.978V101.86C330.932 101.953 330.886 102 330.792 102H324.926C324.833 102 324.786 101.953 324.786 101.86V101.006C324.786 100.941 324.81 100.885 324.856 100.838C325.174 100.474 325.902 99.62 327.04 98.276L328.006 97.114C328.874 96.078 329.308 95.2753 329.308 94.706C329.308 94.2673 329.159 93.9173 328.86 93.656C328.571 93.3853 328.184 93.25 327.698 93.25C327.213 93.25 326.826 93.3853 326.536 93.656C326.247 93.9267 326.107 94.2813 326.116 94.72V95.14C326.116 95.2333 326.07 95.28 325.976 95.28H324.898C324.805 95.28 324.758 95.2333 324.758 95.14V94.538C324.777 94.0527 324.912 93.6233 325.164 93.25C325.426 92.8767 325.776 92.592 326.214 92.396C326.653 92.1907 327.148 92.088 327.698 92.088C328.296 92.088 328.818 92.2 329.266 92.424C329.714 92.648 330.06 92.956 330.302 93.348C330.545 93.74 330.666 94.1833 330.666 94.678C330.666 95.4527 330.246 96.3673 329.406 97.422C329.033 97.898 328.59 98.4347 328.076 99.032C327.563 99.62 327.05 100.199 326.536 100.768ZM338.002 97.814C338.198 98.206 338.296 98.6727 338.296 99.214C338.296 99.8113 338.165 100.334 337.904 100.782C337.68 101.202 337.344 101.529 336.896 101.762C336.457 101.995 335.939 102.112 335.342 102.112C334.744 102.112 334.217 101.995 333.76 101.762C333.302 101.519 332.957 101.174 332.724 100.726C332.472 100.287 332.346 99.7787 332.346 99.2C332.346 98.6867 332.448 98.2153 332.654 97.786C332.859 97.3567 333.162 97.0347 333.564 96.82C333.61 96.8013 333.61 96.778 333.564 96.75C333.265 96.526 333.041 96.2927 332.892 96.05C332.63 95.658 332.5 95.21 332.5 94.706C332.5 94.1553 332.658 93.6513 332.976 93.194C333.209 92.8393 333.531 92.5593 333.942 92.354C334.362 92.1487 334.828 92.046 335.342 92.046C335.864 92.046 336.326 92.1487 336.728 92.354C337.129 92.5593 337.446 92.8393 337.68 93.194C337.988 93.6513 338.142 94.1553 338.142 94.706C338.142 95.21 338.011 95.6673 337.75 96.078C337.582 96.3393 337.362 96.5633 337.092 96.75C337.045 96.778 337.045 96.8013 337.092 96.82C337.484 97.0347 337.787 97.366 338.002 97.814ZM334.026 93.992C333.895 94.2347 333.83 94.4727 333.83 94.706C333.83 95.0793 333.918 95.392 334.096 95.644C334.348 96.064 334.758 96.274 335.328 96.274C335.888 96.274 336.303 96.0593 336.574 95.63C336.732 95.406 336.812 95.0933 336.812 94.692C336.812 94.4307 336.751 94.1927 336.63 93.978C336.508 93.7447 336.336 93.558 336.112 93.418C335.888 93.278 335.622 93.208 335.314 93.208C335.024 93.208 334.768 93.278 334.544 93.418C334.32 93.558 334.147 93.7493 334.026 93.992ZM336.616 100.306C336.83 100.007 336.938 99.606 336.938 99.102C336.938 98.654 336.858 98.2853 336.7 97.996C336.438 97.5107 335.981 97.268 335.328 97.268C334.693 97.268 334.245 97.4967 333.984 97.954C333.806 98.2527 333.718 98.64 333.718 99.116C333.718 99.5827 333.816 99.9653 334.012 100.264C334.282 100.712 334.726 100.936 335.342 100.936C335.92 100.936 336.345 100.726 336.616 100.306ZM340.918 102C340.657 102 340.442 101.916 340.274 101.748C340.106 101.58 340.022 101.365 340.022 101.104C340.022 100.843 340.106 100.628 340.274 100.46C340.442 100.292 340.657 100.208 340.918 100.208C341.18 100.208 341.394 100.292 341.562 100.46C341.73 100.628 341.814 100.843 341.814 101.104C341.814 101.365 341.73 101.58 341.562 101.748C341.394 101.916 341.18 102 340.918 102ZM349.142 97.352C349.328 97.8093 349.422 98.3367 349.422 98.934C349.422 99.4287 349.347 99.886 349.198 100.306C348.992 100.885 348.652 101.333 348.176 101.65C347.7 101.958 347.126 102.112 346.454 102.112C345.782 102.112 345.198 101.939 344.704 101.594C344.218 101.249 343.878 100.782 343.682 100.194C343.579 99.9327 343.518 99.5593 343.5 99.074C343.5 98.9807 343.546 98.934 343.64 98.934H344.718C344.811 98.934 344.858 98.9807 344.858 99.074C344.876 99.41 344.914 99.6573 344.97 99.816C345.063 100.161 345.236 100.437 345.488 100.642C345.749 100.847 346.071 100.95 346.454 100.95C347.163 100.95 347.639 100.628 347.882 99.984C348.003 99.704 348.064 99.34 348.064 98.892C348.064 98.416 347.989 97.9913 347.84 97.618C347.578 97.0393 347.112 96.75 346.44 96.75C346.281 96.75 346.08 96.82 345.838 96.96C345.8 96.9787 345.772 96.988 345.754 96.988C345.707 96.988 345.67 96.9647 345.642 96.918L345.11 96.19C345.091 96.1527 345.082 96.12 345.082 96.092C345.082 96.064 345.096 96.0313 345.124 95.994L347.518 93.432C347.546 93.3853 347.536 93.362 347.49 93.362H343.766C343.672 93.362 343.626 93.3153 343.626 93.222V92.34C343.626 92.2467 343.672 92.2 343.766 92.2H349.198C349.291 92.2 349.338 92.2467 349.338 92.34V93.348C349.338 93.3947 349.314 93.4507 349.268 93.516L347.14 95.84C347.121 95.8587 347.116 95.8773 347.126 95.896C347.135 95.9053 347.154 95.9147 347.182 95.924C347.658 95.9707 348.059 96.12 348.386 96.372C348.712 96.6147 348.964 96.9413 349.142 97.352ZM353.474 96.218C353.091 96.218 352.736 96.1247 352.41 95.938C352.092 95.7513 351.84 95.4993 351.654 95.182C351.467 94.8647 351.374 94.5147 351.374 94.132C351.374 93.7587 351.467 93.4133 351.654 93.096C351.84 92.7787 352.092 92.5313 352.41 92.354C352.736 92.1673 353.091 92.074 353.474 92.074C353.847 92.074 354.192 92.1673 354.51 92.354C354.827 92.5407 355.079 92.7927 355.266 93.11C355.452 93.418 355.546 93.7587 355.546 94.132C355.546 94.5147 355.452 94.8647 355.266 95.182C355.079 95.4993 354.827 95.7513 354.51 95.938C354.192 96.1247 353.847 96.218 353.474 96.218ZM353.068 102C353.012 102 352.974 101.986 352.956 101.958C352.937 101.921 352.942 101.879 352.97 101.832L358.262 92.298C358.299 92.2327 358.355 92.2 358.43 92.2H359.116C359.172 92.2 359.209 92.2187 359.228 92.256C359.246 92.284 359.242 92.3213 359.214 92.368L353.922 101.902C353.894 101.967 353.838 102 353.754 102H353.068ZM353.474 95.392C353.819 95.392 354.108 95.2707 354.342 95.028C354.575 94.7853 354.692 94.4867 354.692 94.132C354.692 93.7867 354.57 93.4973 354.328 93.264C354.094 93.0213 353.81 92.9 353.474 92.9C353.128 92.9 352.834 93.0213 352.592 93.264C352.349 93.4973 352.228 93.7867 352.228 94.132C352.228 94.4867 352.349 94.7853 352.592 95.028C352.834 95.2707 353.128 95.392 353.474 95.392ZM358.808 102.126C358.425 102.126 358.07 102.033 357.744 101.846C357.426 101.659 357.174 101.407 356.988 101.09C356.801 100.773 356.708 100.427 356.708 100.054C356.708 99.6807 356.801 99.3353 356.988 99.018C357.174 98.7007 357.426 98.4487 357.744 98.262C358.07 98.0753 358.425 97.982 358.808 97.982C359.181 97.982 359.526 98.0753 359.844 98.262C360.161 98.4487 360.413 98.7007 360.6 99.018C360.786 99.3353 360.88 99.6807 360.88 100.054C360.88 100.427 360.786 100.773 360.6 101.09C360.413 101.407 360.161 101.659 359.844 101.846C359.526 102.033 359.181 102.126 358.808 102.126ZM358.808 101.3C359.153 101.3 359.442 101.179 359.676 100.936C359.909 100.693 360.026 100.399 360.026 100.054C360.026 99.7087 359.904 99.4147 359.662 99.172C359.428 98.9293 359.144 98.808 358.808 98.808C358.462 98.808 358.168 98.9293 357.926 99.172C357.683 99.4147 357.562 99.7087 357.562 100.054C357.562 100.399 357.683 100.693 357.926 100.936C358.168 101.179 358.462 101.3 358.808 101.3Z" fill="#231F20"/>
<path d="M291.536 240.768C291.527 240.787 291.527 240.805 291.536 240.824C291.546 240.833 291.56 240.838 291.578 240.838H295.792C295.886 240.838 295.932 240.885 295.932 240.978V241.86C295.932 241.953 295.886 242 295.792 242H289.926C289.833 242 289.786 241.953 289.786 241.86V241.006C289.786 240.941 289.81 240.885 289.856 240.838C290.174 240.474 290.902 239.62 292.04 238.276L293.006 237.114C293.874 236.078 294.308 235.275 294.308 234.706C294.308 234.267 294.159 233.917 293.86 233.656C293.571 233.385 293.184 233.25 292.698 233.25C292.213 233.25 291.826 233.385 291.536 233.656C291.247 233.927 291.107 234.281 291.116 234.72V235.14C291.116 235.233 291.07 235.28 290.976 235.28H289.898C289.805 235.28 289.758 235.233 289.758 235.14V234.538C289.777 234.053 289.912 233.623 290.164 233.25C290.426 232.877 290.776 232.592 291.214 232.396C291.653 232.191 292.148 232.088 292.698 232.088C293.296 232.088 293.818 232.2 294.266 232.424C294.714 232.648 295.06 232.956 295.302 233.348C295.545 233.74 295.666 234.183 295.666 234.678C295.666 235.453 295.246 236.367 294.406 237.422C294.033 237.898 293.59 238.435 293.076 239.032C292.563 239.62 292.05 240.199 291.536 240.768ZM303.002 237.814C303.198 238.206 303.296 238.673 303.296 239.214C303.296 239.811 303.165 240.334 302.904 240.782C302.68 241.202 302.344 241.529 301.896 241.762C301.457 241.995 300.939 242.112 300.342 242.112C299.744 242.112 299.217 241.995 298.76 241.762C298.302 241.519 297.957 241.174 297.724 240.726C297.472 240.287 297.346 239.779 297.346 239.2C297.346 238.687 297.448 238.215 297.654 237.786C297.859 237.357 298.162 237.035 298.564 236.82C298.61 236.801 298.61 236.778 298.564 236.75C298.265 236.526 298.041 236.293 297.892 236.05C297.63 235.658 297.5 235.21 297.5 234.706C297.5 234.155 297.658 233.651 297.976 233.194C298.209 232.839 298.531 232.559 298.942 232.354C299.362 232.149 299.828 232.046 300.342 232.046C300.864 232.046 301.326 232.149 301.728 232.354C302.129 232.559 302.446 232.839 302.68 233.194C302.988 233.651 303.142 234.155 303.142 234.706C303.142 235.21 303.011 235.667 302.75 236.078C302.582 236.339 302.362 236.563 302.092 236.75C302.045 236.778 302.045 236.801 302.092 236.82C302.484 237.035 302.787 237.366 303.002 237.814ZM299.026 233.992C298.895 234.235 298.83 234.473 298.83 234.706C298.83 235.079 298.918 235.392 299.096 235.644C299.348 236.064 299.758 236.274 300.328 236.274C300.888 236.274 301.303 236.059 301.574 235.63C301.732 235.406 301.812 235.093 301.812 234.692C301.812 234.431 301.751 234.193 301.63 233.978C301.508 233.745 301.336 233.558 301.112 233.418C300.888 233.278 300.622 233.208 300.314 233.208C300.024 233.208 299.768 233.278 299.544 233.418C299.32 233.558 299.147 233.749 299.026 233.992ZM301.616 240.306C301.83 240.007 301.938 239.606 301.938 239.102C301.938 238.654 301.858 238.285 301.7 237.996C301.438 237.511 300.981 237.268 300.328 237.268C299.693 237.268 299.245 237.497 298.984 237.954C298.806 238.253 298.718 238.64 298.718 239.116C298.718 239.583 298.816 239.965 299.012 240.264C299.282 240.712 299.726 240.936 300.342 240.936C300.92 240.936 301.345 240.726 301.616 240.306ZM305.918 242C305.657 242 305.442 241.916 305.274 241.748C305.106 241.58 305.022 241.365 305.022 241.104C305.022 240.843 305.106 240.628 305.274 240.46C305.442 240.292 305.657 240.208 305.918 240.208C306.18 240.208 306.394 240.292 306.562 240.46C306.73 240.628 306.814 240.843 306.814 241.104C306.814 241.365 306.73 241.58 306.562 241.748C306.394 241.916 306.18 242 305.918 242ZM314.142 237.352C314.328 237.809 314.422 238.337 314.422 238.934C314.422 239.429 314.347 239.886 314.198 240.306C313.992 240.885 313.652 241.333 313.176 241.65C312.7 241.958 312.126 242.112 311.454 242.112C310.782 242.112 310.198 241.939 309.704 241.594C309.218 241.249 308.878 240.782 308.682 240.194C308.579 239.933 308.518 239.559 308.5 239.074C308.5 238.981 308.546 238.934 308.64 238.934H309.718C309.811 238.934 309.858 238.981 309.858 239.074C309.876 239.41 309.914 239.657 309.97 239.816C310.063 240.161 310.236 240.437 310.488 240.642C310.749 240.847 311.071 240.95 311.454 240.95C312.163 240.95 312.639 240.628 312.882 239.984C313.003 239.704 313.064 239.34 313.064 238.892C313.064 238.416 312.989 237.991 312.84 237.618C312.578 237.039 312.112 236.75 311.44 236.75C311.281 236.75 311.08 236.82 310.838 236.96C310.8 236.979 310.772 236.988 310.754 236.988C310.707 236.988 310.67 236.965 310.642 236.918L310.11 236.19C310.091 236.153 310.082 236.12 310.082 236.092C310.082 236.064 310.096 236.031 310.124 235.994L312.518 233.432C312.546 233.385 312.536 233.362 312.49 233.362H308.766C308.672 233.362 308.626 233.315 308.626 233.222V232.34C308.626 232.247 308.672 232.2 308.766 232.2H314.198C314.291 232.2 314.338 232.247 314.338 232.34V233.348C314.338 233.395 314.314 233.451 314.268 233.516L312.14 235.84C312.121 235.859 312.116 235.877 312.126 235.896C312.135 235.905 312.154 235.915 312.182 235.924C312.658 235.971 313.059 236.12 313.386 236.372C313.712 236.615 313.964 236.941 314.142 237.352ZM318.474 236.218C318.091 236.218 317.736 236.125 317.41 235.938C317.092 235.751 316.84 235.499 316.654 235.182C316.467 234.865 316.374 234.515 316.374 234.132C316.374 233.759 316.467 233.413 316.654 233.096C316.84 232.779 317.092 232.531 317.41 232.354C317.736 232.167 318.091 232.074 318.474 232.074C318.847 232.074 319.192 232.167 319.51 232.354C319.827 232.541 320.079 232.793 320.266 233.11C320.452 233.418 320.546 233.759 320.546 234.132C320.546 234.515 320.452 234.865 320.266 235.182C320.079 235.499 319.827 235.751 319.51 235.938C319.192 236.125 318.847 236.218 318.474 236.218ZM318.068 242C318.012 242 317.974 241.986 317.956 241.958C317.937 241.921 317.942 241.879 317.97 241.832L323.262 232.298C323.299 232.233 323.355 232.2 323.43 232.2H324.116C324.172 232.2 324.209 232.219 324.228 232.256C324.246 232.284 324.242 232.321 324.214 232.368L318.922 241.902C318.894 241.967 318.838 242 318.754 242H318.068ZM318.474 235.392C318.819 235.392 319.108 235.271 319.342 235.028C319.575 234.785 319.692 234.487 319.692 234.132C319.692 233.787 319.57 233.497 319.328 233.264C319.094 233.021 318.81 232.9 318.474 232.9C318.128 232.9 317.834 233.021 317.592 233.264C317.349 233.497 317.228 233.787 317.228 234.132C317.228 234.487 317.349 234.785 317.592 235.028C317.834 235.271 318.128 235.392 318.474 235.392ZM323.808 242.126C323.425 242.126 323.07 242.033 322.744 241.846C322.426 241.659 322.174 241.407 321.988 241.09C321.801 240.773 321.708 240.427 321.708 240.054C321.708 239.681 321.801 239.335 321.988 239.018C322.174 238.701 322.426 238.449 322.744 238.262C323.07 238.075 323.425 237.982 323.808 237.982C324.181 237.982 324.526 238.075 324.844 238.262C325.161 238.449 325.413 238.701 325.6 239.018C325.786 239.335 325.88 239.681 325.88 240.054C325.88 240.427 325.786 240.773 325.6 241.09C325.413 241.407 325.161 241.659 324.844 241.846C324.526 242.033 324.181 242.126 323.808 242.126ZM323.808 241.3C324.153 241.3 324.442 241.179 324.676 240.936C324.909 240.693 325.026 240.399 325.026 240.054C325.026 239.709 324.904 239.415 324.662 239.172C324.428 238.929 324.144 238.808 323.808 238.808C323.462 238.808 323.168 238.929 322.926 239.172C322.683 239.415 322.562 239.709 322.562 240.054C322.562 240.399 322.683 240.693 322.926 240.936C323.168 241.179 323.462 241.3 323.808 241.3Z" fill="#231F20"/>
<path d="M113.536 260.768C113.527 260.787 113.527 260.805 113.536 260.824C113.546 260.833 113.56 260.838 113.578 260.838H117.792C117.886 260.838 117.932 260.885 117.932 260.978V261.86C117.932 261.953 117.886 262 117.792 262H111.926C111.833 262 111.786 261.953 111.786 261.86V261.006C111.786 260.941 111.81 260.885 111.856 260.838C112.174 260.474 112.902 259.62 114.04 258.276L115.006 257.114C115.874 256.078 116.308 255.275 116.308 254.706C116.308 254.267 116.159 253.917 115.86 253.656C115.571 253.385 115.184 253.25 114.698 253.25C114.213 253.25 113.826 253.385 113.536 253.656C113.247 253.927 113.107 254.281 113.116 254.72V255.14C113.116 255.233 113.07 255.28 112.976 255.28H111.898C111.805 255.28 111.758 255.233 111.758 255.14V254.538C111.777 254.053 111.912 253.623 112.164 253.25C112.426 252.877 112.776 252.592 113.214 252.396C113.653 252.191 114.148 252.088 114.698 252.088C115.296 252.088 115.818 252.2 116.266 252.424C116.714 252.648 117.06 252.956 117.302 253.348C117.545 253.74 117.666 254.183 117.666 254.678C117.666 255.453 117.246 256.367 116.406 257.422C116.033 257.898 115.59 258.435 115.076 259.032C114.563 259.62 114.05 260.199 113.536 260.768ZM125.002 257.814C125.198 258.206 125.296 258.673 125.296 259.214C125.296 259.811 125.165 260.334 124.904 260.782C124.68 261.202 124.344 261.529 123.896 261.762C123.457 261.995 122.939 262.112 122.342 262.112C121.744 262.112 121.217 261.995 120.76 261.762C120.302 261.519 119.957 261.174 119.724 260.726C119.472 260.287 119.346 259.779 119.346 259.2C119.346 258.687 119.448 258.215 119.654 257.786C119.859 257.357 120.162 257.035 120.564 256.82C120.61 256.801 120.61 256.778 120.564 256.75C120.265 256.526 120.041 256.293 119.892 256.05C119.63 255.658 119.5 255.21 119.5 254.706C119.5 254.155 119.658 253.651 119.976 253.194C120.209 252.839 120.531 252.559 120.942 252.354C121.362 252.149 121.828 252.046 122.342 252.046C122.864 252.046 123.326 252.149 123.728 252.354C124.129 252.559 124.446 252.839 124.68 253.194C124.988 253.651 125.142 254.155 125.142 254.706C125.142 255.21 125.011 255.667 124.75 256.078C124.582 256.339 124.362 256.563 124.092 256.75C124.045 256.778 124.045 256.801 124.092 256.82C124.484 257.035 124.787 257.366 125.002 257.814ZM121.026 253.992C120.895 254.235 120.83 254.473 120.83 254.706C120.83 255.079 120.918 255.392 121.096 255.644C121.348 256.064 121.758 256.274 122.328 256.274C122.888 256.274 123.303 256.059 123.574 255.63C123.732 255.406 123.812 255.093 123.812 254.692C123.812 254.431 123.751 254.193 123.63 253.978C123.508 253.745 123.336 253.558 123.112 253.418C122.888 253.278 122.622 253.208 122.314 253.208C122.024 253.208 121.768 253.278 121.544 253.418C121.32 253.558 121.147 253.749 121.026 253.992ZM123.616 260.306C123.83 260.007 123.938 259.606 123.938 259.102C123.938 258.654 123.858 258.285 123.7 257.996C123.438 257.511 122.981 257.268 122.328 257.268C121.693 257.268 121.245 257.497 120.984 257.954C120.806 258.253 120.718 258.64 120.718 259.116C120.718 259.583 120.816 259.965 121.012 260.264C121.282 260.712 121.726 260.936 122.342 260.936C122.92 260.936 123.345 260.726 123.616 260.306ZM127.918 262C127.657 262 127.442 261.916 127.274 261.748C127.106 261.58 127.022 261.365 127.022 261.104C127.022 260.843 127.106 260.628 127.274 260.46C127.442 260.292 127.657 260.208 127.918 260.208C128.18 260.208 128.394 260.292 128.562 260.46C128.73 260.628 128.814 260.843 128.814 261.104C128.814 261.365 128.73 261.58 128.562 261.748C128.394 261.916 128.18 262 127.918 262ZM136.142 257.352C136.328 257.809 136.422 258.337 136.422 258.934C136.422 259.429 136.347 259.886 136.198 260.306C135.992 260.885 135.652 261.333 135.176 261.65C134.7 261.958 134.126 262.112 133.454 262.112C132.782 262.112 132.198 261.939 131.704 261.594C131.218 261.249 130.878 260.782 130.682 260.194C130.579 259.933 130.518 259.559 130.5 259.074C130.5 258.981 130.546 258.934 130.64 258.934H131.718C131.811 258.934 131.858 258.981 131.858 259.074C131.876 259.41 131.914 259.657 131.97 259.816C132.063 260.161 132.236 260.437 132.488 260.642C132.749 260.847 133.071 260.95 133.454 260.95C134.163 260.95 134.639 260.628 134.882 259.984C135.003 259.704 135.064 259.34 135.064 258.892C135.064 258.416 134.989 257.991 134.84 257.618C134.578 257.039 134.112 256.75 133.44 256.75C133.281 256.75 133.08 256.82 132.838 256.96C132.8 256.979 132.772 256.988 132.754 256.988C132.707 256.988 132.67 256.965 132.642 256.918L132.11 256.19C132.091 256.153 132.082 256.12 132.082 256.092C132.082 256.064 132.096 256.031 132.124 255.994L134.518 253.432C134.546 253.385 134.536 253.362 134.49 253.362H130.766C130.672 253.362 130.626 253.315 130.626 253.222V252.34C130.626 252.247 130.672 252.2 130.766 252.2H136.198C136.291 252.2 136.338 252.247 136.338 252.34V253.348C136.338 253.395 136.314 253.451 136.268 253.516L134.14 255.84C134.121 255.859 134.116 255.877 134.126 255.896C134.135 255.905 134.154 255.915 134.182 255.924C134.658 255.971 135.059 256.12 135.386 256.372C135.712 256.615 135.964 256.941 136.142 257.352ZM140.474 256.218C140.091 256.218 139.736 256.125 139.41 255.938C139.092 255.751 138.84 255.499 138.654 255.182C138.467 254.865 138.374 254.515 138.374 254.132C138.374 253.759 138.467 253.413 138.654 253.096C138.84 252.779 139.092 252.531 139.41 252.354C139.736 252.167 140.091 252.074 140.474 252.074C140.847 252.074 141.192 252.167 141.51 252.354C141.827 252.541 142.079 252.793 142.266 253.11C142.452 253.418 142.546 253.759 142.546 254.132C142.546 254.515 142.452 254.865 142.266 255.182C142.079 255.499 141.827 255.751 141.51 255.938C141.192 256.125 140.847 256.218 140.474 256.218ZM140.068 262C140.012 262 139.974 261.986 139.956 261.958C139.937 261.921 139.942 261.879 139.97 261.832L145.262 252.298C145.299 252.233 145.355 252.2 145.43 252.2H146.116C146.172 252.2 146.209 252.219 146.228 252.256C146.246 252.284 146.242 252.321 146.214 252.368L140.922 261.902C140.894 261.967 140.838 262 140.754 262H140.068ZM140.474 255.392C140.819 255.392 141.108 255.271 141.342 255.028C141.575 254.785 141.692 254.487 141.692 254.132C141.692 253.787 141.57 253.497 141.328 253.264C141.094 253.021 140.81 252.9 140.474 252.9C140.128 252.9 139.834 253.021 139.592 253.264C139.349 253.497 139.228 253.787 139.228 254.132C139.228 254.487 139.349 254.785 139.592 255.028C139.834 255.271 140.128 255.392 140.474 255.392ZM145.808 262.126C145.425 262.126 145.07 262.033 144.744 261.846C144.426 261.659 144.174 261.407 143.988 261.09C143.801 260.773 143.708 260.427 143.708 260.054C143.708 259.681 143.801 259.335 143.988 259.018C144.174 258.701 144.426 258.449 144.744 258.262C145.07 258.075 145.425 257.982 145.808 257.982C146.181 257.982 146.526 258.075 146.844 258.262C147.161 258.449 147.413 258.701 147.6 259.018C147.786 259.335 147.88 259.681 147.88 260.054C147.88 260.427 147.786 260.773 147.6 261.09C147.413 261.407 147.161 261.659 146.844 261.846C146.526 262.033 146.181 262.126 145.808 262.126ZM145.808 261.3C146.153 261.3 146.442 261.179 146.676 260.936C146.909 260.693 147.026 260.399 147.026 260.054C147.026 259.709 146.904 259.415 146.662 259.172C146.428 258.929 146.144 258.808 145.808 258.808C145.462 258.808 145.168 258.929 144.926 259.172C144.683 259.415 144.562 259.709 144.562 260.054C144.562 260.399 144.683 260.693 144.926 260.936C145.168 261.179 145.462 261.3 145.808 261.3Z" fill="#231F20"/>
<path d="M35.5363 102.768C35.5269 102.787 35.5269 102.805 35.5363 102.824C35.5456 102.833 35.5596 102.838 35.5783 102.838H39.7923C39.8856 102.838 39.9323 102.885 39.9323 102.978V103.86C39.9323 103.953 39.8856 104 39.7923 104H33.9263C33.8329 104 33.7863 103.953 33.7863 103.86V103.006C33.7863 102.941 33.8096 102.885 33.8563 102.838C34.1736 102.474 34.9016 101.62 36.0403 100.276L37.0063 99.114C37.8743 98.078 38.3083 97.2753 38.3083 96.706C38.3083 96.2673 38.1589 95.9173 37.8603 95.656C37.5709 95.3853 37.1836 95.25 36.6983 95.25C36.2129 95.25 35.8256 95.3853 35.5363 95.656C35.2469 95.9267 35.1069 96.2813 35.1163 96.72V97.14C35.1163 97.2333 35.0696 97.28 34.9763 97.28H33.8983C33.8049 97.28 33.7583 97.2333 33.7583 97.14V96.538C33.7769 96.0527 33.9123 95.6233 34.1643 95.25C34.4256 94.8767 34.7756 94.592 35.2143 94.396C35.6529 94.1907 36.1476 94.088 36.6983 94.088C37.2956 94.088 37.8183 94.2 38.2663 94.424C38.7143 94.648 39.0596 94.956 39.3023 95.348C39.5449 95.74 39.6663 96.1833 39.6663 96.678C39.6663 97.4527 39.2463 98.3673 38.4063 99.422C38.0329 99.898 37.5896 100.435 37.0763 101.032C36.5629 101.62 36.0496 102.199 35.5363 102.768ZM47.0015 99.814C47.1975 100.206 47.2955 100.673 47.2955 101.214C47.2955 101.811 47.1648 102.334 46.9035 102.782C46.6795 103.202 46.3435 103.529 45.8955 103.762C45.4568 103.995 44.9388 104.112 44.3415 104.112C43.7442 104.112 43.2168 103.995 42.7595 103.762C42.3022 103.519 41.9568 103.174 41.7235 102.726C41.4715 102.287 41.3455 101.779 41.3455 101.2C41.3455 100.687 41.4482 100.215 41.6535 99.786C41.8588 99.3567 42.1622 99.0347 42.5635 98.82C42.6102 98.8013 42.6102 98.778 42.5635 98.75C42.2648 98.526 42.0408 98.2927 41.8915 98.05C41.6302 97.658 41.4995 97.21 41.4995 96.706C41.4995 96.1553 41.6582 95.6513 41.9755 95.194C42.2088 94.8393 42.5308 94.5593 42.9415 94.354C43.3615 94.1487 43.8282 94.046 44.3415 94.046C44.8642 94.046 45.3262 94.1487 45.7275 94.354C46.1288 94.5593 46.4462 94.8393 46.6795 95.194C46.9875 95.6513 47.1415 96.1553 47.1415 96.706C47.1415 97.21 47.0108 97.6673 46.7495 98.078C46.5815 98.3393 46.3622 98.5633 46.0915 98.75C46.0448 98.778 46.0448 98.8013 46.0915 98.82C46.4835 99.0347 46.7868 99.366 47.0015 99.814ZM43.0255 95.992C42.8948 96.2347 42.8295 96.4727 42.8295 96.706C42.8295 97.0793 42.9182 97.392 43.0955 97.644C43.3475 98.064 43.7582 98.274 44.3275 98.274C44.8875 98.274 45.3028 98.0593 45.5735 97.63C45.7322 97.406 45.8115 97.0933 45.8115 96.692C45.8115 96.4307 45.7508 96.1927 45.6295 95.978C45.5082 95.7447 45.3355 95.558 45.1115 95.418C44.8875 95.278 44.6215 95.208 44.3135 95.208C44.0242 95.208 43.7675 95.278 43.5435 95.418C43.3195 95.558 43.1468 95.7493 43.0255 95.992ZM45.6155 102.306C45.8302 102.007 45.9375 101.606 45.9375 101.102C45.9375 100.654 45.8582 100.285 45.6995 99.996C45.4382 99.5107 44.9808 99.268 44.3275 99.268C43.6928 99.268 43.2448 99.4967 42.9835 99.954C42.8062 100.253 42.7175 100.64 42.7175 101.116C42.7175 101.583 42.8155 101.965 43.0115 102.264C43.2822 102.712 43.7255 102.936 44.3415 102.936C44.9202 102.936 45.3448 102.726 45.6155 102.306ZM49.9183 104C49.657 104 49.4423 103.916 49.2743 103.748C49.1063 103.58 49.0223 103.365 49.0223 103.104C49.0223 102.843 49.1063 102.628 49.2743 102.46C49.4423 102.292 49.657 102.208 49.9183 102.208C50.1797 102.208 50.3943 102.292 50.5623 102.46C50.7303 102.628 50.8143 102.843 50.8143 103.104C50.8143 103.365 50.7303 103.58 50.5623 103.748C50.3943 103.916 50.1797 104 49.9183 104ZM58.1418 99.352C58.3285 99.8093 58.4218 100.337 58.4218 100.934C58.4218 101.429 58.3471 101.886 58.1978 102.306C57.9925 102.885 57.6518 103.333 57.1758 103.65C56.6998 103.958 56.1258 104.112 55.4538 104.112C54.7818 104.112 54.1985 103.939 53.7038 103.594C53.2185 103.249 52.8778 102.782 52.6818 102.194C52.5791 101.933 52.5185 101.559 52.4998 101.074C52.4998 100.981 52.5465 100.934 52.6398 100.934H53.7178C53.8111 100.934 53.8578 100.981 53.8578 101.074C53.8765 101.41 53.9138 101.657 53.9698 101.816C54.0631 102.161 54.2358 102.437 54.4878 102.642C54.7491 102.847 55.0711 102.95 55.4538 102.95C56.1631 102.95 56.6391 102.628 56.8818 101.984C57.0031 101.704 57.0638 101.34 57.0638 100.892C57.0638 100.416 56.9891 99.9913 56.8398 99.618C56.5785 99.0393 56.1118 98.75 55.4398 98.75C55.2811 98.75 55.0805 98.82 54.8378 98.96C54.8005 98.9787 54.7725 98.988 54.7538 98.988C54.7071 98.988 54.6698 98.9647 54.6418 98.918L54.1098 98.19C54.0911 98.1527 54.0818 98.12 54.0818 98.092C54.0818 98.064 54.0958 98.0313 54.1238 97.994L56.5178 95.432C56.5458 95.3853 56.5365 95.362 56.4898 95.362H52.7658C52.6725 95.362 52.6258 95.3153 52.6258 95.222V94.34C52.6258 94.2467 52.6725 94.2 52.7658 94.2H58.1978C58.2911 94.2 58.3378 94.2467 58.3378 94.34V95.348C58.3378 95.3947 58.3145 95.4507 58.2678 95.516L56.1398 97.84C56.1211 97.8587 56.1165 97.8773 56.1258 97.896C56.1351 97.9053 56.1538 97.9147 56.1818 97.924C56.6578 97.9707 57.0591 98.12 57.3858 98.372C57.7125 98.6147 57.9645 98.9413 58.1418 99.352ZM62.4736 98.218C62.0909 98.218 61.7363 98.1247 61.4096 97.938C61.0923 97.7513 60.8403 97.4993 60.6536 97.182C60.4669 96.8647 60.3736 96.5147 60.3736 96.132C60.3736 95.7587 60.4669 95.4133 60.6536 95.096C60.8403 94.7787 61.0923 94.5313 61.4096 94.354C61.7363 94.1673 62.0909 94.074 62.4736 94.074C62.8469 94.074 63.1923 94.1673 63.5096 94.354C63.8269 94.5407 64.0789 94.7927 64.2656 95.11C64.4523 95.418 64.5456 95.7587 64.5456 96.132C64.5456 96.5147 64.4523 96.8647 64.2656 97.182C64.0789 97.4993 63.8269 97.7513 63.5096 97.938C63.1923 98.1247 62.8469 98.218 62.4736 98.218ZM62.0676 104C62.0116 104 61.9743 103.986 61.9556 103.958C61.9369 103.921 61.9416 103.879 61.9696 103.832L67.2616 94.298C67.2989 94.2327 67.3549 94.2 67.4296 94.2H68.1156C68.1716 94.2 68.2089 94.2187 68.2276 94.256C68.2463 94.284 68.2416 94.3213 68.2136 94.368L62.9216 103.902C62.8936 103.967 62.8376 104 62.7536 104H62.0676ZM62.4736 97.392C62.8189 97.392 63.1083 97.2707 63.3416 97.028C63.5749 96.7853 63.6916 96.4867 63.6916 96.132C63.6916 95.7867 63.5703 95.4973 63.3276 95.264C63.0943 95.0213 62.8096 94.9 62.4736 94.9C62.1283 94.9 61.8343 95.0213 61.5916 95.264C61.3489 95.4973 61.2276 95.7867 61.2276 96.132C61.2276 96.4867 61.3489 96.7853 61.5916 97.028C61.8343 97.2707 62.1283 97.392 62.4736 97.392ZM67.8076 104.126C67.4249 104.126 67.0703 104.033 66.7436 103.846C66.4263 103.659 66.1743 103.407 65.9876 103.09C65.8009 102.773 65.7076 102.427 65.7076 102.054C65.7076 101.681 65.8009 101.335 65.9876 101.018C66.1743 100.701 66.4263 100.449 66.7436 100.262C67.0703 100.075 67.4249 99.982 67.8076 99.982C68.1809 99.982 68.5263 100.075 68.8436 100.262C69.1609 100.449 69.4129 100.701 69.5996 101.018C69.7863 101.335 69.8796 101.681 69.8796 102.054C69.8796 102.427 69.7863 102.773 69.5996 103.09C69.4129 103.407 69.1609 103.659 68.8436 103.846C68.5263 104.033 68.1809 104.126 67.8076 104.126ZM67.8076 103.3C68.1529 103.3 68.4423 103.179 68.6756 102.936C68.9089 102.693 69.0256 102.399 69.0256 102.054C69.0256 101.709 68.9043 101.415 68.6616 101.172C68.4283 100.929 68.1436 100.808 67.8076 100.808C67.4623 100.808 67.1683 100.929 66.9256 101.172C66.6829 101.415 66.5616 101.709 66.5616 102.054C66.5616 102.399 66.6829 102.693 66.9256 102.936C67.1683 103.179 67.4623 103.3 67.8076 103.3Z" fill="#231F20"/>
<defs>
<filter id="filter0_d" x="172" y="0" width="101" height="53" filterUnits="userSpaceOnUse" color-interpolation-filters="sRGB">
<feFlood flood-opacity="0" result="BackgroundImageFix"/>
<feColorMatrix in="SourceAlpha" type="matrix" values="0 0 0 0 0 0 0 0 0 0 0 0 0 0 0 0 0 0 127 0"/>
<feOffset dy="6"/>
<feGaussianBlur stdDeviation="5.5"/>
<feColorMatrix type="matrix" values="0 0 0 0 0 0 0 0 0 0 0 0 0 0 0 0 0 0 0.25 0"/>
<feBlend mode="normal" in2="BackgroundImageFix" result="effect1_dropShadow"/>
<feBlend mode="normal" in="SourceGraphic" in2="effect1_dropShadow" result="shape"/>
</filter>
<filter id="filter1_d" x="291" y="76" width="101" height="53" filterUnits="userSpaceOnUse" color-interpolation-filters="sRGB">
<feFlood flood-opacity="0" result="BackgroundImageFix"/>
<feColorMatrix in="SourceAlpha" type="matrix" values="0 0 0 0 0 0 0 0 0 0 0 0 0 0 0 0 0 0 127 0"/>
<feOffset dy="6"/>
<feGaussianBlur stdDeviation="5.5"/>
<feColorMatrix type="matrix" values="0 0 0 0 0 0 0 0 0 0 0 0 0 0 0 0 0 0 0.25 0"/>
<feBlend mode="normal" in2="BackgroundImageFix" result="effect1_dropShadow"/>
<feBlend mode="normal" in="SourceGraphic" in2="effect1_dropShadow" result="shape"/>
</filter>
<filter id="filter2_d" x="256" y="216" width="101" height="53" filterUnits="userSpaceOnUse" color-interpolation-filters="sRGB">
<feFlood flood-opacity="0" result="BackgroundImageFix"/>
<feColorMatrix in="SourceAlpha" type="matrix" values="0 0 0 0 0 0 0 0 0 0 0 0 0 0 0 0 0 0 127 0"/>
<feOffset dy="6"/>
<feGaussianBlur stdDeviation="5.5"/>
<feColorMatrix type="matrix" values="0 0 0 0 0 0 0 0 0 0 0 0 0 0 0 0 0 0 0.25 0"/>
<feBlend mode="normal" in2="BackgroundImageFix" result="effect1_dropShadow"/>
<feBlend mode="normal" in="SourceGraphic" in2="effect1_dropShadow" result="shape"/>
</filter>
<filter id="filter3_d" x="78" y="236" width="101" height="53" filterUnits="userSpaceOnUse" color-interpolation-filters="sRGB">
<feFlood flood-opacity="0" result="BackgroundImageFix"/>
<feColorMatrix in="SourceAlpha" type="matrix" values="0 0 0 0 0 0 0 0 0 0 0 0 0 0 0 0 0 0 127 0"/>
<feOffset dy="6"/>
<feGaussianBlur stdDeviation="5.5"/>
<feColorMatrix type="matrix" values="0 0 0 0 0 0 0 0 0 0 0 0 0 0 0 0 0 0 0.25 0"/>
<feBlend mode="normal" in2="BackgroundImageFix" result="effect1_dropShadow"/>
<feBlend mode="normal" in="SourceGraphic" in2="effect1_dropShadow" result="shape"/>
</filter>
<filter id="filter4_d" x="0" y="78" width="101" height="53" filterUnits="userSpaceOnUse" color-interpolation-filters="sRGB">
<feFlood flood-opacity="0" result="BackgroundImageFix"/>
<feColorMatrix in="SourceAlpha" type="matrix" values="0 0 0 0 0 0 0 0 0 0 0 0 0 0 0 0 0 0 127 0"/>
<feOffset dy="6"/>
<feGaussianBlur stdDeviation="5.5"/>
<feColorMatrix type="matrix" values="0 0 0 0 0 0 0 0 0 0 0 0 0 0 0 0 0 0 0.25 0"/>
<feBlend mode="normal" in2="BackgroundImageFix" result="effect1_dropShadow"/>
<feBlend mode="normal" in="SourceGraphic" in2="effect1_dropShadow" result="shape"/>
</filter>
</defs>
</svg>
