<svg width="20" height="19" viewBox="0 0 20 19" fill="none" xmlns="http://www.w3.org/2000/svg">
<rect x="1.45117" y="0.5" width="17.1463" height="17.1463" rx="4.5" stroke="white"/>
<path d="M15.5809 8.39267V6.69145H14.7303V8.39267H13.0291V9.24328H14.7303V10.9445H15.5809V9.24328H17.2821V8.39267H15.5809Z" fill="white"/>
<path d="M7.92614 8.39268V10.0939H10.3325C9.98122 11.084 9.03534 11.7951 7.92614 11.7951C6.51924 11.7951 5.37432 10.6502 5.37432 9.24329C5.37432 7.83638 6.51924 6.69146 7.92614 6.69146C8.53603 6.69146 9.12295 6.91007 9.57888 7.3073L10.6966 6.02458C9.93103 5.35771 8.94773 4.99024 7.92614 4.99024C5.58101 4.99024 3.6731 6.89816 3.6731 9.24329C3.6731 11.5884 5.58101 13.4963 7.92614 13.4963C10.2713 13.4963 12.1792 11.5884 12.1792 9.24329V8.39268H7.92614Z" fill="white"/>
</svg>
