<svg width="46" height="46" viewBox="0 0 46 46" fill="none" xmlns="http://www.w3.org/2000/svg">
<path d="M7.25641 31.7968C8.99581 34.2785 11.267 33.7577 11.267 33.7577C10.8792 37.3584 14.1919 38.1118 18.1249 37.9234H28.3951C28.3951 37.9234 28.24 36.7158 26.1793 36.1286C25.6919 35.9846 24.8609 36.0179 23.886 36.1397C24.7058 34.5997 23.7309 32.2178 23.9081 30.1017C23.9857 29.1046 24.2738 28.1407 24.7391 27.2654L27.3094 27.0106C27.3094 27.0106 27.7193 27.2211 27.9409 27.6975C28.1514 28.1739 27.8855 28.8054 27.8855 28.8054C27.8855 28.8054 28.3065 29.4369 29.1042 29.0713C29.9019 28.7057 29.636 27.1103 29.636 27.1103C29.636 27.1103 29.1596 26.0578 28.6278 25.947C28.2622 25.8695 26.9881 25.526 26.2347 25.3155C27.2872 24.3406 28.6721 23.5983 30.3783 23.2438C33.6687 22.5569 36.9924 19.6653 37.9896 18.1253C38.1003 18.1585 38.2222 18.1807 38.3552 18.1696C38.9202 18.1363 39.3412 17.6489 39.308 17.0949C39.2747 16.5299 38.7872 16.1089 38.2333 16.1421C37.8123 16.1643 37.4688 16.4523 37.3359 16.829C36.4496 16.7626 35.109 16.8844 34.0122 16.408C32.2174 15.6103 30.1013 16.1975 30.1013 16.1975C30.1013 16.1975 30.8547 13.1176 28.0406 12.0761C25.7029 11.2009 24.3513 13.2616 24.3513 13.2616C23.5204 13.2173 22.767 13.6937 22.767 13.6937C22.6895 17.2611 25.293 18.4687 25.293 18.4687C25.293 18.4687 21.7034 19.3661 18.3686 22.0583C15.0339 24.7505 11.7102 33.237 9.6384 30.7996C7.56662 28.3623 16.2969 21.9697 18.0474 16.3194C19.3436 12.1205 18.1249 9.50581 16.0642 8.38683C13.6601 7.09059 11.5661 9.84926 11.6991 10.1262C12.0758 10.9239 14.3913 7.30109 16.6182 10.5251C19.3104 14.436 12.7627 21.7813 10.4915 23.9528C8.20921 26.1243 5.51701 29.3151 7.25641 31.7968ZM30.3561 19.909C30.3561 19.909 31.043 18.9562 32.4168 18.1142C32.4168 18.1142 32.6273 19.3329 32.0512 19.5988C31.464 19.8536 30.3561 19.909 30.3561 19.909ZM25.6475 13.2727C25.6475 13.2727 26.3234 12.3199 27.8301 13.0732C29.3369 13.8266 29.1374 16.7182 29.1374 16.7182C27.952 12.9625 25.6475 13.2727 25.6475 13.2727ZM24.0522 14.3141C24.0522 14.3141 27.7636 13.4278 27.2762 17.671C27.2762 17.671 26.7222 15.145 24.8388 14.9899C24.8388 14.9899 24.9828 16.5521 26.5782 17.9148C26.5893 17.9148 23.6312 17.4384 24.0522 14.3141Z" fill="#FFDE11"/>
<path d="M22.9998 45.4461C35.3964 45.4461 45.4458 35.3966 45.4458 23C45.4458 10.6034 35.3964 0.553955 22.9998 0.553955C10.6031 0.553955 0.553711 10.6034 0.553711 23C0.553711 35.3966 10.6031 45.4461 22.9998 45.4461Z" stroke="#FFDE11" stroke-miterlimit="10"/>
</svg>
