<svg width="20" height="19" viewBox="0 0 20 19" fill="none" xmlns="http://www.w3.org/2000/svg">
<rect x="1.40234" y="0.5" width="17.1463" height="17.1463" rx="4.5" stroke="white"/>
<path d="M15.4892 5.95695C15.1155 6.1209 14.7173 6.22957 14.3021 6.28233C14.7292 6.02731 15.0552 5.62655 15.2085 5.14351C14.8102 5.38095 14.3705 5.54866 13.9019 5.64225C13.5238 5.23961 12.9848 4.99024 12.3969 4.99024C11.2562 4.99024 10.3378 5.91612 10.3378 7.05118C10.3378 7.21449 10.3517 7.37153 10.3856 7.52103C8.67264 7.43749 7.15693 6.6165 6.13872 5.36587C5.96095 5.67429 5.85668 6.02731 5.85668 6.40733C5.85668 7.1209 6.22414 7.75344 6.77188 8.11965C6.44085 8.11337 6.1161 8.01726 5.84098 7.86588C5.84098 7.87216 5.84098 7.88033 5.84098 7.88849C5.84098 8.88975 6.55517 9.72141 7.49173 9.913C7.32402 9.95885 7.14123 9.98083 6.95153 9.98083C6.81962 9.98083 6.68646 9.9733 6.56146 9.94566C6.82842 10.7616 7.58596 11.3615 8.48671 11.381C7.78571 11.9293 6.89563 12.2597 5.93206 12.2597C5.76309 12.2597 5.60103 12.2522 5.43896 12.2315C6.35166 12.82 7.43332 13.1561 8.59978 13.1561C12.3912 13.1561 14.4641 10.0154 14.4641 7.29301C14.4641 7.20193 14.461 7.11399 14.4566 7.02668C14.8655 6.73648 15.2091 6.37404 15.4892 5.95695Z" fill="white"/>
</svg>
