<svg width="28" height="28" viewBox="0 0 28 28" fill="none" xmlns="http://www.w3.org/2000/svg">
<circle cx="14" cy="14" r="14" fill="#3DB54A"/>
<path d="M24.2958 14.9046H21.6263C21.2387 14.9046 20.9221 15.2212 20.9221 15.6088V15.8654V16.182H19.4481C19.4427 16.0729 19.4372 15.9637 19.4263 15.8599C19.4099 15.6907 19.3881 15.5269 19.3553 15.3632C19.1534 14.2932 18.6347 13.3379 17.9087 12.5845C17.7504 12.4262 17.5866 12.2733 17.4119 12.1314C17.2536 12.0059 17.0898 11.8858 16.9151 11.7766C16.069 11.2416 15.07 10.9304 14 10.9304C12.93 10.9304 11.931 11.2416 11.0849 11.7766C10.9102 11.8858 10.7464 12.0059 10.5881 12.1314C10.4134 12.2733 10.2496 12.4207 10.0913 12.5845C9.3598 13.3324 8.84665 14.2932 8.64467 15.3632C8.61191 15.5269 8.59007 15.6907 8.5737 15.8599C8.56278 15.9691 8.55732 16.0729 8.55186 16.182H7.07792V15.8654V15.6088C7.07792 15.2212 6.76129 14.9046 6.3737 14.9046H3.70422C3.31663 14.9046 3 15.2212 3 15.6088V17.3885C3 17.7761 3.31663 18.0927 3.70422 18.0927H6.3737C6.76129 18.0927 7.07792 17.7761 7.07792 17.3885V17.1319V16.8153H8.5464V16.8495H12.799C12.8864 16.7949 12.9737 16.7458 13.0665 16.7021C13.3504 16.5711 13.667 16.5001 14 16.5001C14.333 16.5001 14.6496 16.5711 14.9335 16.7021C15.0263 16.7458 15.1136 16.7949 15.201 16.8495H19.4536V16.8153H20.9221V17.1319V17.3885C20.9221 17.7761 21.2387 18.0927 21.6263 18.0927H24.2958C24.6834 18.0927 25 17.7761 25 17.3885V15.6088C25 15.2212 24.6834 14.9046 24.2958 14.9046ZM4.97618 17.0391C4.68685 17.0391 4.45211 16.8044 4.45211 16.515C4.45211 16.2257 4.68685 15.991 4.97618 15.991C5.26551 15.991 5.50025 16.2257 5.50025 16.515C5.50025 16.8044 5.26551 17.0391 4.97618 17.0391ZM23.0238 17.0391C22.7345 17.0391 22.4998 16.8044 22.4998 16.515C22.4998 16.2257 22.7345 15.991 23.0238 15.991C23.3132 15.991 23.5479 16.2257 23.5479 16.515C23.5479 16.8044 23.3132 17.0391 23.0238 17.0391Z" fill="white"/>
<path d="M19.6828 17.8037C19.6173 17.7764 19.5409 17.76 19.4645 17.76H19.186H17.6138H16.0525H14.8625C14.6387 17.5417 14.3329 17.4106 13.9945 17.4106C13.656 17.4106 13.3558 17.5417 13.1265 17.76H8.80292H8.52451C8.44808 17.76 8.37166 17.7764 8.30615 17.8037C8.10962 17.891 7.97314 18.0821 7.97314 18.3114V19.0101C7.97314 19.294 8.19151 19.5288 8.46446 19.5615C8.4863 19.5615 8.50267 19.567 8.52451 19.567H9.35429H13.121C13.3449 19.7853 13.6506 19.9164 13.989 19.9164C14.3275 19.9164 14.6277 19.7853 14.857 19.567H16.0471H17.6084H18.8913H19.459C19.4808 19.567 19.4972 19.567 19.5191 19.5615C19.7975 19.5288 20.0104 19.294 20.0104 19.0101V18.3114C20.0213 18.0821 19.8793 17.891 19.6828 17.8037Z" fill="white"/>
<path d="M14.0003 7C12.3954 7 11.0852 8.31017 11.0852 9.91514V10.6467C11.713 10.3246 12.4008 10.1062 13.1324 10.0079C13.1051 9.9206 13.0941 9.83325 13.0941 9.73499C13.0941 9.23275 13.5036 8.82333 14.0058 8.82333C14.508 8.82333 14.9175 9.23275 14.9175 9.73499C14.9175 9.82779 14.9011 9.9206 14.8792 10.0079C15.6053 10.1062 16.2931 10.33 16.9264 10.6467V9.91514C16.9155 8.31017 15.6053 7 14.0003 7Z" fill="white"/>
</svg>
