<svg width="21" height="20" viewBox="0 0 21 20" fill="none" xmlns="http://www.w3.org/2000/svg">
<path d="M10.5 20C4.70884 20 0 15.5154 0 10C0 4.48465 4.70884 0 10.5 0C16.2912 0 21 4.48465 21 10C21 15.5154 16.2912 20 10.5 20ZM10.5 1.24497C5.4257 1.24497 1.30722 5.16738 1.30722 10C1.30722 14.8327 5.4257 18.755 10.5 18.755C15.5602 18.755 19.6928 14.8327 19.6928 10C19.6928 5.18076 15.5602 1.24497 10.5 1.24497Z" fill="white"/>
<path d="M12.8288 10.2099C11.9821 11.9667 10.122 12.1028 10.2608 13.8596C10.3164 14.4724 10.3858 16.3109 10.4968 16.8012C10.1776 17.2642 9.83052 16.7603 9.46962 16.8556C9.44186 15.6981 9.45574 13.274 9.51126 12.4024C9.56678 11.3538 9.27531 10.9998 8.31753 10.0192C7.72066 9.40642 7.66514 9.13413 7.58185 8.64387C7.97051 8.98433 7.98438 9.37918 8.52574 9.76049C8.96992 10.0737 9.45573 10.4006 9.67782 10.9317C9.83051 9.85588 9.95545 8.34424 9.9971 7.33649C10.3996 8.45318 10.1914 10.9181 10.1914 12.2936C10.6634 11.5173 11.4407 11.5581 12.8288 10.2099ZM9.5529 4C9.03931 4.34046 8.09544 6.28786 10.011 7.14581C11.3991 6.49214 10.9132 4.57197 9.5529 4ZM9.42798 7.02329C8.15095 6.87349 7.55408 8.13993 8.48409 9.51537C8.45633 8.33059 10.3719 9.20221 9.42798 7.02329ZM7.55406 8.46683C8.01213 7.74506 7.81784 5.9883 5.59691 6.24704C5.76348 6.91434 5.61075 8.84814 7.55406 8.46683ZM8.34528 4.84432C7.2487 5.1984 7.02659 6.21979 7.98436 7.33649C8.02601 6.3015 9.16425 6.41042 8.34528 4.84432ZM8.4702 10.5776C7.56795 9.18858 5.84673 8.94344 5 10.3189C6.20763 12.062 7.26257 10.2644 8.4702 10.5776ZM9.31695 13.7507C9.40024 12.3617 7.70675 10.9589 6.0827 12.4433C7.7484 14.4588 8.56739 12.9064 9.31695 13.7507ZM9.40023 12.0075C9.03933 10.9998 8.35915 10.4278 7.24868 11.0815C7.56794 12.1437 8.88664 11.5445 9.40023 12.0075ZM9.5529 10.3189C9.74723 9.70607 9.7889 9.02513 8.96993 9.10684C8.60903 10.1691 9.51126 9.78778 9.5529 10.3189ZM12.0931 10.278C12.5651 9.93754 12.9121 9.12044 12.0931 8.65742C11.6212 9.73326 12.454 9.50175 12.0931 10.278ZM7.1793 9.24308C6.79063 8.5894 6.01331 8.22169 5.13882 8.54853C5.91614 9.77417 6.38809 8.889 7.1793 9.24308ZM7.12376 11.49C6.47136 11.7215 6.49914 10.9045 5.36091 11.4083C5.8745 12.4842 6.63793 11.8713 7.12376 11.49ZM6.9433 4.92603C6.48524 5.07583 6.31869 5.96107 7.13766 6.26068C7.01273 5.79766 7.41525 5.44352 6.9433 4.92603ZM14.9664 8.09911C13.6339 7.90845 12.3846 8.50768 12.8982 10.0874C14.6194 10.4006 15.1469 9.35198 14.9664 8.09911ZM14.3973 11.4628C13.4951 10.741 12.4401 10.8772 11.3158 12.2527C12.3985 12.3344 13.4673 13.3285 14.3973 11.4628ZM12.1625 12.7565C11.0104 12.5386 10.4691 12.9472 10.4413 14.0095C11.1076 13.3149 11.6767 14.2409 12.1625 12.7565ZM12.6483 6.76454C10.9688 6.57389 10.2192 7.25481 10.3858 9.66524C11.1214 7.99019 13.1064 9.17497 12.6483 6.76454ZM10.5801 11.6126C11.8294 11.0134 12.2319 10.0873 11.524 9.16129C9.67785 9.93753 11.1076 10.8909 10.5801 11.6126ZM12.7594 8.39867C13.4673 8.00374 14.5639 7.85395 13.5784 6.36956C12.454 7.10495 13.273 7.74499 12.7594 8.39867ZM13.1897 5.21204C11.8988 5.06224 11.0937 5.40267 11.0104 6.88706C11.6628 6.02911 13.384 7.28202 13.1897 5.21204ZM11.1631 5.72954C11.5795 5.37547 11.9821 4.34049 11.0382 4.1226C10.4413 4.88522 11.3574 5.14396 11.1631 5.72954ZM14.786 10.6321C14.5639 10.0465 13.5783 10.2372 13.148 10.7547C13.8837 10.6321 14.3834 11.2994 14.786 10.6321Z" fill="white"/>
<path d="M17 8C15.9737 10.3408 13.4506 12 10.4857 12C7.54933 12 5.04057 10.3665 4 8.05142C4.28509 8.56589 5.41117 9.67201 6.92213 10.3022C6.87937 10.1865 6.82237 10.1093 6.58004 10.1221C6.9364 9.69771 7.49233 10.1993 7.5636 10.4308C7.84869 10.1093 7.66337 9.76204 7.90569 9.18326C7.7774 9.82635 8.13378 10.0322 8.06251 10.4051C8.30484 10.2379 8.21931 10.0193 8.06251 9.81348C8.51865 9.98068 8.64695 10.3923 8.60418 10.6238C8.93204 10.1736 8.57565 10.0965 8.53289 9.77493C8.47587 9.33763 8.80371 9.20898 8.66117 8.93889C10.2149 9.69773 8.83225 10.4437 9.00331 10.7396C9.08883 10.4952 9.60198 10.4952 9.659 9.8521C9.81579 10.2637 9.92981 11.0997 10.4857 11.0997C11.0274 11.0997 10.6425 10.1479 11.341 9.31185C11.1272 10.1479 11.17 10.6495 11.5263 10.8682C11.284 10.5595 11.7829 10.3665 11.5263 9.94207C11.8969 10.0321 11.6831 10.4565 12.0252 10.5852C12.125 10.225 11.6974 9.98071 12.0395 9.51768C12.7522 9.96785 12.1963 10.3923 12.5099 10.3151C12.7379 10.1222 13.0088 9.47905 12.9945 9.06747C13.2654 9.64625 12.738 10.1093 13.0088 10.5724C13.0658 10.045 13.7358 9.55623 14.5625 9.8006C14.3629 9.91636 14.363 10.0193 14.3487 10.1736C15.8454 9.42766 16.7577 8.50161 17 8Z" fill="white"/>
</svg>
