<svg width="20" height="20" viewBox="0 0 20 20" fill="none" xmlns="http://www.w3.org/2000/svg">
<path d="M10 20C4.48461 20 0 15.5154 0 10C0 4.48465 4.48461 0 10 0C15.5154 0 20 4.48465 20 10C20 15.5154 15.5154 20 10 20ZM10 1.24497C5.16734 1.24497 1.24499 5.16738 1.24499 10C1.24499 14.8327 5.16734 18.755 10 18.755C14.8327 18.755 18.755 14.8327 18.755 10C18.755 5.18076 14.8193 1.24497 10 1.24497Z" fill="white"/>
<path d="M9.97672 3C10.6485 5.73065 7.82388 7.46436 6.2207 9.28479C5.0145 10.6429 4.64806 12.1889 5.36567 13.8793C6.11382 15.6564 7.93076 17 9.99198 17C12.7556 17 15 14.7317 15 11.9288C14.9847 8.59132 11.7937 4.54592 9.97672 3ZM6.5108 14.9773C5.76265 14.1248 5.41149 13.1424 5.47256 12.0444C5.53364 11.0619 5.90008 10.2384 6.57189 9.57377C6.4192 9.81938 6.29705 10.0794 6.20544 10.3684C5.82373 11.452 5.91534 12.5212 6.465 13.5759C6.63295 13.8937 6.86196 14.1971 7.12153 14.4861L6.5108 14.9773ZM7.42691 15.873C7.21315 15.7141 7.01467 15.5407 6.83145 15.3529C6.81618 15.3385 6.8009 15.3241 6.8009 15.3096L7.41163 14.8039C7.61012 15.0062 7.82387 15.1796 8.0529 15.3674L7.42691 15.873Z" fill="white"/>
</svg>
