<svg width="24" height="19" viewBox="0 0 24 19" fill="none" xmlns="http://www.w3.org/2000/svg">
<path d="M21.857 18.8572C22.3965 18.8572 22.8639 18.6791 23.2613 18.3274L16.4617 11.5275C16.2986 11.6443 16.1405 11.7579 15.9911 11.8659C15.4822 12.2409 15.0692 12.5334 14.7521 12.743C14.435 12.9531 14.0132 13.1673 13.4865 13.386C12.9596 13.6049 12.4686 13.714 12.0132 13.714H11.9865C11.531 13.714 11.0401 13.6049 10.5132 13.386C9.98623 13.1673 9.56436 12.9531 9.24758 12.743C8.9305 12.5334 8.51772 12.2409 8.00861 11.8659C7.86674 11.7619 7.70939 11.6478 7.53928 11.5257L0.738394 18.3274C1.13574 18.6791 1.6035 18.8572 2.14294 18.8572H21.857Z" fill="#ED2A32"/>
<path d="M1.35282 7.24564C0.844016 6.90642 0.392814 6.51792 0 6.08032V16.4257L5.99313 10.4326C4.79416 9.59556 3.24935 8.53446 1.35282 7.24564Z" fill="#ED2A32"/>
<path d="M22.6607 7.24564C20.8365 8.48034 19.2861 9.54327 18.0093 10.435L24 16.426V6.08032C23.6159 6.50912 23.1695 6.89736 22.6607 7.24564Z" fill="#ED2A32"/>
<path d="M21.857 0H2.14298C1.45522 0 0.926457 0.232246 0.55604 0.696259C0.185318 1.16049 0.00026144 1.74106 0.00026144 2.43732C0.00026144 2.99972 0.245841 3.6091 0.736782 4.26562C1.22772 4.92188 1.75012 5.43735 2.30372 5.8123C2.60721 6.02672 3.52243 6.66298 5.04937 7.72085C5.87365 8.29206 6.59047 8.78993 7.20647 9.21956C7.73153 9.5854 8.18435 9.90222 8.5582 10.1651C8.60112 10.1953 8.66862 10.2435 8.75821 10.3076C8.85472 10.3769 8.97686 10.4649 9.12753 10.5737C9.41769 10.7835 9.65874 10.9532 9.85072 11.0828C10.0424 11.2124 10.2747 11.3572 10.5472 11.518C10.8195 11.6785 11.0764 11.7993 11.3174 11.8796C11.5585 11.9598 11.7817 12.0001 11.987 12.0001H12.0137C12.2189 12.0001 12.4422 11.9598 12.6833 11.8796C12.9243 11.7993 13.1809 11.6788 13.4534 11.518C13.7257 11.3572 13.9576 11.2121 14.15 11.0828C14.342 10.9532 14.583 10.7836 14.8732 10.5737C15.0236 10.4649 15.1457 10.3769 15.2422 10.3078C15.3319 10.2435 15.3993 10.1955 15.4425 10.1651C15.7337 9.96249 16.1876 9.64697 16.7978 9.22326C17.9081 8.4518 19.5434 7.31632 21.7104 5.8123C22.3621 5.35709 22.9066 4.80776 23.3442 4.16509C23.781 3.52243 24 2.8483 24 2.14294C24 1.55361 23.7877 1.04933 23.3639 0.62933C22.9397 0.209849 22.4373 0 21.857 0Z" fill="#ED2A32"/>
</svg>
