<svg width="14" height="25" viewBox="0 0 14 25" fill="none" xmlns="http://www.w3.org/2000/svg">
<path d="M12.3502 0.478516H1.65033C0.758897 0.478516 0.0292969 1.20743 0.0292969 2.09954V22.8568C0.0292969 23.7489 0.758897 24.4785 1.65033 24.4785H12.3502C13.2416 24.4785 13.9712 23.7503 13.9712 22.8575V2.09954C13.9712 1.20743 13.2416 0.478516 12.3502 0.478516ZM5.28873 1.64697H8.71181C8.82016 1.64697 8.90793 1.73474 8.90793 1.84377C8.90793 1.95212 8.82016 2.03989 8.71181 2.03989H5.28873C5.18038 2.03989 5.09261 1.95212 5.09261 1.84377C5.09261 1.73474 5.18038 1.64697 5.28873 1.64697ZM7.00027 23.668C6.5525 23.668 6.18975 23.3053 6.18975 22.8568C6.18975 22.4083 6.5525 22.0463 7.00027 22.0463C7.44804 22.0463 7.81078 22.4083 7.81078 22.8568C7.81078 23.3053 7.44804 23.668 7.00027 23.668ZM12.8432 21.4785H1.1573V3.04926H12.8432V21.4785Z" fill="#ED2A32"/>
</svg>
