<svg width="17" height="18" viewBox="0 0 17 18" fill="none" xmlns="http://www.w3.org/2000/svg">
<path d="M7.79245 2H9.20755C9.77358 2 10.2264 2.42228 10.2264 2.95008V6.4336C10.2264 6.9614 10.6792 7.3836 11.2453 7.3836H14.9811C15.5472 7.3836 16 7.80588 16 8.33368V9.65319C16 10.181 15.5472 10.6032 14.9811 10.6032H11.2453C10.6792 10.6032 10.2264 11.0254 10.2264 11.5664V15.0499C10.2264 15.5777 9.77358 16 9.20755 16H7.79245C7.22642 16 6.77358 15.5777 6.77358 15.0499V11.5664C6.77358 11.0386 6.32075 10.6032 5.75471 10.6032H2.01887C1.45283 10.6032 1 10.181 1 9.65319V8.33368C1 7.80588 1.45283 7.3836 2.01887 7.3836H5.75471C6.32075 7.3836 6.77358 6.9614 6.77358 6.4336V2.95008C6.77358 2.42228 7.22642 2 7.79245 2Z" fill="#D91F26"/>
<path d="M8.5 18C3.8122 18 0 13.9636 0 9C0 4.03645 3.8122 0 8.5 0C13.1878 0 17 4.03645 17 9C17 13.9636 13.1878 18 8.5 18ZM8.5 0.271002C3.96038 0.271002 0.26941 4.17915 0.26941 8.98581C0.26941 13.7925 3.96038 17.7005 8.5 17.7005C13.0396 17.7005 16.7306 13.7925 16.7306 8.98581C16.7441 4.19342 13.0396 0.271002 8.5 0.271002Z" fill="#D91F26"/>
</svg>
