<svg width="18" height="24" viewBox="0 0 18 24" fill="none" xmlns="http://www.w3.org/2000/svg">
<path d="M9.00049 0C4.20775 0 0.308594 3.89916 0.308594 8.69185C0.308594 14.6397 8.08699 23.3716 8.41817 23.7404C8.72923 24.0868 9.27232 24.0862 9.58282 23.7404C9.914 23.3716 17.6924 14.6397 17.6924 8.69185C17.6923 3.89916 13.7932 0 9.00049 0ZM9.00049 13.065C6.58915 13.065 4.62743 11.1032 4.62743 8.69185C4.62743 6.28051 6.58919 4.31879 9.00049 4.31879C11.4118 4.31879 13.3735 6.28055 13.3735 8.6919C13.3735 11.1032 11.4118 13.065 9.00049 13.065Z" fill="#ED2A32"/>
</svg>
