<svg width="21" height="20" viewBox="0 0 21 20" fill="none" xmlns="http://www.w3.org/2000/svg">
<path d="M10.5 20C4.70884 20 0 15.5154 0 10C0 4.48465 4.70884 0 10.5 0C16.2912 0 21 4.48465 21 10C21 15.5154 16.2912 20 10.5 20ZM10.5 1.24497C5.4257 1.24497 1.30722 5.16738 1.30722 10C1.30722 14.8327 5.4257 18.755 10.5 18.755C15.5602 18.755 19.6928 14.8327 19.6928 10C19.6928 5.18076 15.5602 1.24497 10.5 1.24497Z" fill="white"/>
<path d="M15.985 12.2893C16.1615 10.2936 14.7197 10.15 14.9992 8.62814C14.3519 8.90094 13.9399 9.38905 13.9988 10.4659C13.6751 7.19234 11.4241 5.51258 12.8806 3C7.76074 4.16296 7.27526 8.21173 7.52537 9.03011C7.11343 8.75732 6.878 8.05385 6.9957 7.65184C2.52315 13.0359 6.43667 16.8838 10.2472 16.9986C12.1009 17.0417 15.6466 16.0797 15.985 12.2893Z" fill="white"/>
<path d="M12.7195 15.3662C12.9582 14.6479 13.4497 14.2394 14.0394 13.5352C16.0895 11.0845 14.1658 10.3662 14.5168 9.25348C13.899 9.70419 13.6182 10.338 13.562 11.338C13.3935 7.80284 10.4307 6.16901 11.3013 4C7.7628 5.14084 7.63642 9.35207 7.87513 10.0422C7.56621 9.81686 6.97647 9.38025 7.00456 8.46475C5.54423 10.2535 5.68466 13.3521 7.36965 15.1409C8.22619 15.6902 9.20908 16 10.2482 16C11.1187 16 11.9612 15.7746 12.7195 15.3662Z" fill="white"/>
<path d="M12.482 15.604C12.5486 14.8853 12.6817 14.1227 12.8681 13.3453C13.7602 9.59067 9.79254 7.75733 10.9376 5C7.94185 7.112 9.91233 10.588 9.44633 10.7787C8.96702 10.9693 8.83387 9.76662 8.82056 9.07729C7.43587 12.3186 7.99509 14.152 9.08686 15.7213C9.57949 15.912 10.1121 16 10.6447 16C11.2837 16 11.9095 15.868 12.482 15.604Z" fill="white"/>
<path d="M11.6603 13.6814C11.692 13.3672 11.7395 13.0393 11.8504 12.6703C12.6585 9.58242 9.88567 8.95387 10.8047 7C8.68145 8.46198 10.2025 11.14 9.86979 11.263C9.52119 11.3996 9.34692 10.5662 9.29939 10.0879C8.79235 11.263 8.98246 12.5747 9.47366 13.7088C10.1708 14.1597 11.1216 14.0367 11.6603 13.6814Z" fill="white"/>
</svg>
