<svg width="19" height="19" viewBox="0 0 19 19" fill="none" xmlns="http://www.w3.org/2000/svg">
<circle cx="9.5" cy="9.5" r="9.5" fill="white"/>
<path d="M9.5 18C4.8122 18 1 14.1878 1 9.5C1 4.8122 4.8122 1 9.5 1C14.1878 1 18 4.8122 18 9.5C18 14.1878 14.1878 18 9.5 18ZM9.5 1.26935C4.96038 1.26935 1.26941 4.96038 1.26941 9.5C1.26941 14.0396 4.96038 17.7306 9.5 17.7306C14.0396 17.7306 17.7306 14.0396 17.7306 9.5C17.7441 4.96038 14.0396 1.26935 9.5 1.26935Z" fill="#231F20"/>
<path d="M15.266 11H3.73404C2.77539 11 2 10.3293 2 9.50004C2 8.67078 2.77539 8 3.73404 8H15.266C16.2246 8 17 8.67078 17 9.50004C17 10.3293 16.2246 11 15.266 11Z" fill="#231F20"/>
</svg>
