<svg width="21" height="20" viewBox="0 0 21 20" fill="none" xmlns="http://www.w3.org/2000/svg">
<path d="M10.5 20C4.70884 20 0 15.5154 0 10C0 4.48465 4.70884 0 10.5 0C16.2912 0 21 4.48465 21 10C21 15.5154 16.2912 20 10.5 20ZM10.5 1.25837C5.4257 1.25837 1.30724 5.18078 1.30724 10.0134C1.30724 14.8461 5.4257 18.7684 10.5 18.7684C15.5743 18.7684 19.6928 14.8461 19.6928 10.0134C19.6928 5.18078 15.5602 1.25837 10.5 1.25837Z" fill="white"/>
<path d="M16.9349 5.67031L15.3134 4.07132C15.1807 3.94049 14.9596 3.99856 14.768 4.173C14.5911 4.34744 14.5469 4.58009 14.6648 4.69638L15.0333 5.0598L13.5592 6.51346L12.8074 5.77208C12.6452 5.61218 12.3357 5.64125 12.1293 5.8593C11.9229 6.06281 11.8787 6.36811 12.0409 6.52801L12.6452 7.12398L10.5078 9.02827L8.37027 7.12398L8.97467 6.52801C9.13682 6.36811 9.0926 6.06281 8.88623 5.8593C8.67985 5.65578 8.37027 5.61218 8.20812 5.77208L7.48579 6.48436L6.01166 5.0307L6.33597 4.71093C6.4539 4.59464 6.40969 4.36199 6.23279 4.18755C6.04115 4.01311 5.82002 3.95495 5.68735 4.08578L4.06582 5.68486C3.94789 5.81569 3.9921 6.03374 4.169 6.22271C4.34589 6.39715 4.58176 6.45531 4.69969 6.32448L5.06822 5.96106L6.54235 7.41473L5.79055 8.15611C5.62839 8.31601 5.67261 8.62122 5.87899 8.82474C6.08537 9.02825 6.39495 9.07186 6.5571 8.91195L7.16148 8.31599L9.03362 10.3511L5.56944 13.4474C5.53996 13.4619 5.52519 13.4911 5.52519 13.5201L4.84711 15.8169C4.83237 15.875 4.84711 15.9187 4.8766 15.9623C4.92082 16.0059 4.96503 16.0058 5.024 15.9913L7.35312 15.3372C7.3826 15.3227 7.41209 15.3081 7.42683 15.2936L10.493 11.9501L13.5592 15.2936C13.5739 15.3226 13.6034 15.3372 13.6329 15.3372L15.962 15.9913C16.021 16.0058 16.0652 15.9913 16.1094 15.9623C16.1537 15.9332 16.1537 15.875 16.1389 15.8169L15.4608 13.5201C15.4461 13.4911 15.4313 13.4619 15.4166 13.4474L11.9524 10.3511L13.8245 8.31599L14.4289 8.91195C14.5911 9.07186 14.9006 9.04279 15.107 8.82474C15.3134 8.62122 15.3576 8.31601 15.1955 8.15611L14.4732 7.44374L15.9473 5.99008L16.2716 6.30993C16.3895 6.44076 16.6254 6.3826 16.817 6.20816C17.0087 6.01919 17.0529 5.78661 16.9349 5.67031Z" fill="white"/>
</svg>
