<svg width="28" height="28" viewBox="0 0 28 28" fill="none" xmlns="http://www.w3.org/2000/svg">
<circle cx="14" cy="14" r="14" fill="#8B5F3D"/>
<path d="M9.45021 17.402L9.43164 10.3882C9.29845 10.4981 9.16962 10.6146 9.04517 10.739L6.29897 13.4852C5.22885 14.5553 4.70774 15.9755 4.73325 17.3895L9.45021 17.402Z" fill="white"/>
<path d="M10.2411 17.4044L17.4856 17.4236C17.7391 17.0108 17.932 16.5698 18.0643 16.1146C16.2782 16.3768 14.3909 15.818 13.0118 14.4388C11.6327 13.0597 11.0738 11.1724 11.336 9.3863C10.9514 9.49737 10.5772 9.65271 10.2215 9.85127L10.2411 17.4044Z" fill="white"/>
<path d="M4.80659 18.19C4.98609 19.2681 5.49049 20.3029 6.31898 21.1314C8.4273 23.2397 11.8682 23.2488 13.9654 21.1516L16.7116 18.4054C16.7716 18.3454 16.8291 18.2842 16.8856 18.222L4.80659 18.19Z" fill="white"/>
<path d="M21.7889 8.86608C21.4918 9.1377 21.1197 9.31264 20.7118 9.36778C20.066 9.45494 19.4477 9.22225 19.0174 8.792C18.7174 8.49195 18.5092 8.09639 18.4463 7.64571C18.4186 7.4465 18.5571 7.26369 18.7561 7.23701C18.9552 7.21033 19.1387 7.34975 19.1665 7.54896C19.2644 8.24892 19.9125 8.74141 20.6116 8.6475C20.9503 8.60197 21.2501 8.4272 21.4558 8.15534C21.4659 8.1423 21.4757 8.12818 21.4851 8.11443C21.2579 7.66513 20.9568 7.24393 20.5819 6.86896C18.6885 4.97558 15.6274 4.96784 13.7444 6.85085C11.8613 8.73387 11.8694 11.7953 13.7625 13.6883C15.6555 15.5814 18.7169 15.5895 20.6 13.7065C21.9074 12.399 22.3029 10.524 21.7889 8.86608ZM15.7964 8.51215C15.5825 8.2983 15.2365 8.29738 15.0237 8.5101L14.6364 8.12277C15.0619 7.69733 15.7539 7.69916 16.1817 8.12686C16.6094 8.55456 16.6112 9.24665 16.1857 9.6721L15.7984 9.28476C16.0111 9.07204 16.0102 8.726 15.7964 8.51215ZM14.9503 12.6875C14.3018 12.039 14.2991 10.9907 14.9441 10.3457L17.2921 12.6937C16.6471 13.3387 15.5988 13.3359 14.9503 12.6875ZM18.9407 12.4271C19.1534 12.2143 19.1525 11.8683 18.9387 11.6544C18.7248 11.4406 18.3788 11.4397 18.166 11.6524L17.7787 11.2651C18.2042 10.8396 18.8963 10.8415 19.324 11.2692C19.7517 11.6969 19.7535 12.389 19.328 12.8144L18.9407 12.4271Z" fill="white"/>
</svg>
