<svg width="52" height="52" viewBox="0 0 52 52" fill="none" xmlns="http://www.w3.org/2000/svg">
<circle cx="26" cy="26" r="20" fill="#2DA9E1"/>
<circle cx="26" cy="26" r="23" stroke="#2DA9E1" stroke-opacity="0.2" stroke-width="6"/>
<path d="M25.5 43C25.0302 43 24.5773 42.8319 24.2243 42.5265C22.8912 41.3751 21.6059 40.293 20.4719 39.3386L20.4661 39.3336C17.1415 36.5351 14.2706 34.1184 12.273 31.7377C10.0401 29.0762 9 26.5528 9 23.7961C9 21.1177 9.92979 18.6467 11.6179 16.838C13.3262 15.0079 15.6701 14 18.2188 14C20.1237 14 21.8682 14.5949 23.4038 15.7679C24.1787 16.36 24.8811 17.0847 25.5 17.93C26.1191 17.0847 26.8213 16.36 27.5965 15.7679C29.132 14.5949 30.8765 14 32.7814 14C35.3299 14 37.6741 15.0079 39.3823 16.838C41.0705 18.6467 42 21.1177 42 23.7961C42 26.5528 40.9602 29.0762 38.7272 31.7374C36.7297 34.1184 33.859 36.5349 30.5349 39.3331C29.3989 40.2891 28.1116 41.3728 26.7755 42.527C26.4227 42.8319 25.9696 43 25.5 43ZM18.2188 15.9094C16.2165 15.9094 14.3771 16.6988 13.0389 18.1322C11.6808 19.5873 10.9328 21.5987 10.9328 23.7961C10.9328 26.1146 11.8052 28.1881 13.7612 30.5193C15.6518 32.7727 18.4638 35.1397 21.7197 37.8805L21.7257 37.8855C22.864 38.8437 24.1543 39.9299 25.4972 41.0898C26.8482 39.9277 28.1406 38.8397 29.2811 37.88C32.5367 35.1392 35.3485 32.7727 37.239 30.5193C39.1948 28.1881 40.0672 26.1146 40.0672 23.7961C40.0672 21.5987 39.3192 19.5873 37.9611 18.1322C36.6232 16.6988 34.7835 15.9094 32.7814 15.9094C31.3146 15.9094 29.9679 16.37 28.7788 17.2782C27.7191 18.0879 26.9809 19.1115 26.5481 19.8278C26.3256 20.1961 25.9338 20.4159 25.5 20.4159C25.0662 20.4159 24.6744 20.1961 24.4519 19.8278C24.0193 19.1115 23.2812 18.0879 22.2212 17.2782C21.0321 16.37 19.6854 15.9094 18.2188 15.9094Z" fill="white"/>
</svg>
