<svg width="21" height="21" viewBox="0 0 21 21" fill="none" xmlns="http://www.w3.org/2000/svg">
<path d="M10.5 21C4.70884 21 0 16.2911 0 10.5C0 4.70879 4.70884 0 10.5 0C16.2912 0 21 4.70879 21 10.5C21 16.2911 16.2912 21 10.5 21ZM10.5 1.32129C5.4257 1.32129 1.30722 5.43973 1.30722 10.514C1.30722 15.5883 5.4257 19.7069 10.5 19.7069C15.5743 19.7069 19.6928 15.5883 19.6928 10.514C19.6928 5.43973 15.5743 1.32129 10.5 1.32129Z" fill="white"/>
<path d="M10.5 3C6.3631 3 3 6.36306 3 10.5C3 14.6369 6.3631 18 10.5 18C14.6369 18 18 14.6369 18 10.5C18 6.34818 14.6369 3 10.5 3ZM16.1101 6.55656C16.1547 6.5268 16.1994 6.55655 16.2441 6.54167L16.2589 6.52677V6.49698L16.2441 6.48209C16.1994 6.43744 16.1994 6.46721 16.2292 6.3928H16.3184L16.3333 6.4077C16.378 6.42258 16.3482 6.4226 16.3928 6.4226C16.3928 6.45236 16.4077 6.43748 16.4077 6.4226C16.6905 6.82438 16.9286 7.27081 17.122 7.73212C17.0774 7.68748 17.0178 7.64281 17.003 7.61305C16.9732 7.58329 16.9434 7.53864 16.9137 7.50887C16.8988 7.49399 16.9137 7.49399 16.8988 7.50887V7.52377C16.8988 7.53865 16.8988 7.53866 16.9137 7.53866C16.9137 7.56843 16.9286 7.58327 16.9435 7.59816L16.9583 7.61305C17.003 7.70234 17.0476 7.7172 17.0922 7.77672L17.1071 7.79162L17.122 7.80651C17.1369 7.83627 17.1815 7.88093 17.1815 7.91069L17.1964 7.92558L17.2113 7.94048L17.2411 7.97018C17.2559 7.99994 17.2559 8.01489 17.2708 8.04466C17.2559 8.04466 17.2559 8.04466 17.2411 8.04466C17.2262 8.07442 17.2262 8.0744 17.2262 8.11904C17.2113 8.1488 17.2411 8.13386 17.2113 8.14874H17.1964C17.1667 8.13386 17.1816 8.14878 17.1667 8.08925C17.1518 8.05949 17.1518 8.05952 17.1518 8.02976C17.1518 8.01488 17.1518 8.01486 17.1369 8.01486C17.122 7.99998 17.122 7.98506 17.122 7.97018L17.1071 7.95537C17.0625 7.89585 17.0476 7.86603 16.9881 7.80651C16.9435 7.76187 16.8988 7.73216 16.869 7.67263L16.8541 7.65774C16.8393 7.64286 16.8393 7.62793 16.8393 7.61305L16.8244 7.59816C16.8095 7.53863 16.7946 7.44937 16.7351 7.43449C16.7351 7.40473 16.7202 7.43449 16.7202 7.43449C16.616 7.44937 16.6905 7.50887 16.5714 7.50887L16.5565 7.49398C16.5268 7.46422 16.5119 7.41961 16.4821 7.43449C16.4375 7.44937 16.4673 7.49404 16.4524 7.55356C16.4226 7.64285 16.3184 7.59817 16.3036 7.70233L16.2887 7.71723C16.2887 7.76187 16.2738 7.77676 16.2738 7.82141C16.2738 7.88093 16.2738 7.86604 16.2738 7.91069L16.2589 7.92558C16.2291 7.97023 16.244 7.97019 16.1845 7.98507L16.1696 7.99997H16.0803L16.0655 7.98507C15.9464 7.98507 15.9613 8.04458 15.9167 8.05946C15.8572 8.07434 15.8422 7.99996 15.7827 7.98507C15.7827 7.97019 15.7827 7.97018 15.7679 7.97018C15.7381 7.97018 15.7232 7.95537 15.6934 7.95537C15.6637 7.95537 15.6488 7.95537 15.619 7.95537C15.5744 7.94049 15.5595 7.92552 15.5595 7.866C15.5744 7.866 15.5744 7.86608 15.5744 7.8512V7.79162C15.5744 7.77673 15.5744 7.77672 15.5595 7.77672V7.76191L15.5447 7.74702L15.4851 7.68744V7.64284C15.5 7.58332 15.5744 7.53864 15.5298 7.41959C15.5 7.34519 15.5149 7.36013 15.5149 7.30061C15.5149 7.25597 15.4851 7.27082 15.4851 7.18154C15.5149 7.15177 15.5446 7.12198 15.6041 7.15175L15.619 7.16664H15.6339C15.6339 7.18152 15.6339 7.18154 15.6488 7.18154C15.6785 7.19642 15.6786 7.19642 15.7083 7.18154C15.7232 7.18154 15.7232 7.18152 15.7232 7.16664C15.7827 7.16664 15.7827 7.16669 15.7976 7.21133C15.7976 7.22621 15.7976 7.22613 15.8125 7.22613C15.8274 7.25589 15.8125 7.24103 15.8422 7.24103L15.8571 7.25592C15.9315 7.25592 15.9315 7.2708 16.0208 7.25592L16.0357 7.24103C16.1101 7.1815 16.0208 7.01782 15.9911 6.97318C15.9762 6.94342 15.9316 6.89877 15.9167 6.869C15.8869 6.83924 15.8571 6.8095 15.8125 6.79462L15.7976 6.77972H15.7381C15.7232 6.74996 15.6935 6.72019 15.7232 6.67555C15.753 6.64578 15.7976 6.67555 15.8274 6.67555L15.8422 6.69044C15.9018 6.69044 15.9167 6.70531 15.9613 6.67555C15.9911 6.64578 15.9911 6.64585 16.0506 6.64585C16.0357 6.63096 16.0654 6.57144 16.1101 6.55656ZM15.3809 5.78273L15.3958 5.76783V5.75294L15.3809 5.73804C15.3809 5.6934 15.381 5.69341 15.3958 5.66365C15.4256 5.64877 15.4256 5.64876 15.4702 5.64876L15.4851 5.66365C15.5595 5.7083 15.4405 5.78273 15.5595 5.78273L15.5744 5.79762C15.6339 5.8125 15.619 5.84226 15.6488 5.8869C15.6785 5.97619 15.7827 6.02081 15.8422 6.13985L15.8571 6.15475C15.872 6.18451 15.8869 6.19939 15.9018 6.24403C15.9167 6.27379 15.9315 6.30355 15.9464 6.33331C15.9911 6.39284 16.0357 6.36305 16.0357 6.49698L16.0506 6.51188C16.0655 6.55652 16.0506 6.57137 15.9911 6.57137L15.9762 6.55656H15.9613L15.9464 6.54167C15.872 6.54167 15.872 6.51189 15.8125 6.52677C15.753 6.52677 15.7381 6.52674 15.6934 6.49698L15.6786 6.48209L15.6637 6.46728L15.6488 6.45239C15.6339 6.42262 15.6339 6.43746 15.6339 6.4077L15.619 6.3928V6.30352C15.6339 6.28864 15.6339 6.31846 15.6339 6.27382C15.6339 6.22918 15.6339 6.27381 15.619 6.25893V6.21424C15.6488 6.19936 15.6488 6.19942 15.6786 6.18454C15.6786 6.1399 15.6934 6.12494 15.6637 6.11006L15.6488 6.09526C15.619 6.0655 15.6339 6.06545 15.6041 6.05057C15.5744 6.02081 15.5744 6.03566 15.5447 6.02078C15.4851 5.99102 15.5298 5.96132 15.4851 5.9018L15.4702 5.8869C15.4256 5.84226 15.4256 5.87196 15.3958 5.82732L15.3809 5.81252V5.78273ZM15.1577 5.9315C15.2173 5.94638 15.1577 5.96129 15.247 5.96129C15.2173 5.91665 15.2173 5.8869 15.2917 5.8869L15.3066 5.9018L15.3214 5.9166C15.4553 5.9166 15.4256 6.02085 15.4554 6.09526C15.4703 6.15478 15.5 6.08033 15.5 6.22914C15.4703 6.24402 15.4851 6.25893 15.4405 6.25893H15.4107C15.3065 6.25893 15.3363 6.2887 15.2917 6.27382C15.2619 6.27382 15.2322 6.244 15.2173 6.21424C15.2024 6.1696 15.2322 6.15478 15.2173 6.09526C15.2024 6.03573 15.1726 6.06549 15.1726 5.99108L15.1577 5.97619L15.1428 5.96129C15.1428 5.94641 15.1429 5.96126 15.1577 5.9315ZM8.10419 4.10117C8.13395 4.04165 8.11907 4.08633 8.14883 4.04168L8.16368 4.02679C8.17856 3.98214 8.19344 3.99698 8.25297 3.9821L8.26786 3.96721C8.34227 3.96721 8.34225 3.95239 8.34225 3.93751C8.49106 3.84822 8.34227 4.0714 8.46132 4.08628L8.47622 4.10117C8.47622 4.11606 8.47618 4.11608 8.49107 4.13096C8.4613 4.13096 8.49107 4.16067 8.49107 4.16067C8.52083 4.17555 8.5506 4.14577 8.5506 4.14577C8.5506 4.08625 8.55059 4.13095 8.53571 4.11607L8.52086 4.10117L8.50596 4.08628C8.49108 4.05652 8.50595 4.08625 8.49107 4.05649C8.50595 4.02673 8.53572 4.01186 8.5506 3.9821C8.58036 3.92258 8.55061 3.93748 8.61014 3.90771L8.62499 3.89282C8.65475 3.89282 8.65478 3.87792 8.69942 3.87792L8.71427 3.89282H8.74406C8.74406 3.9077 8.74408 3.9077 8.75896 3.89282C8.77384 3.89282 8.77381 3.89282 8.77381 3.89282C8.80357 3.87794 8.78869 3.878 8.81845 3.86312H8.86309C8.93749 3.89288 8.87797 3.95235 8.90773 3.997C8.90773 4.02676 8.92263 4.01188 8.92263 3.997C8.98215 3.98212 9.04165 3.92259 9.08629 3.997L9.10119 4.01189C9.19047 4.01189 9.16071 3.95239 9.23511 3.93751L9.25001 3.92261C9.30953 3.92261 9.29466 3.9077 9.35418 3.89282L9.36903 3.87792C9.3988 3.86304 9.39882 3.86312 9.44347 3.86312L9.45832 3.87792C9.48808 3.8928 9.51785 3.89285 9.51785 3.92261C9.53273 3.96725 9.50296 3.96721 9.45832 3.96721V3.997H9.48811L9.503 4.01189H9.54764C9.56252 4.01189 9.56249 4.01189 9.56249 4.01189H9.57739C9.57739 4.01189 9.5774 4.01189 9.59229 4.01189H9.62203C9.62203 4.04165 9.6369 4.01189 9.65178 4.01189C9.69642 4.01189 9.72621 3.96723 9.77085 3.997C9.81549 4.02676 9.78573 4.04161 9.86013 4.05649C10.0089 4.10113 9.90478 4.08626 9.96431 4.07138C10.0238 4.0565 10.0387 4.1012 10.0089 4.13096H10.0238L10.0387 4.11607L10.1726 4.10117L10.1875 4.11607H10.2024L10.2173 4.13096V4.14577V4.17556C10.1875 4.19044 10.1577 4.17562 10.1577 4.23514L10.1429 4.24995C10.128 4.29459 10.0833 4.32435 10.1577 4.33923C10.247 4.35411 10.2024 4.32438 10.2768 4.36902L10.2917 4.38392C10.3363 4.38392 10.4107 4.39883 10.4554 4.41371L10.4703 4.42851L10.4851 4.44341C10.4851 4.45829 10.4851 4.4583 10.5 4.4583L10.5149 4.4732L10.5297 4.48809C10.6934 4.53274 10.5893 4.48811 10.6637 4.50299C10.7381 4.51787 10.6786 4.53269 10.7827 4.53269C10.8869 4.53269 10.8125 4.68155 10.7232 4.68155H10.6935H10.6786C10.6786 4.65179 10.6488 4.68155 10.6488 4.68155C10.6339 4.71131 10.6488 4.72618 10.6339 4.75594C10.5893 4.75594 10.5893 4.74103 10.5595 4.72615L10.5446 4.71125C10.4851 4.71125 10.4702 4.72618 10.4554 4.66666V4.65176V4.63687L10.4405 4.62197C10.3661 4.62197 10.3661 4.60715 10.3214 4.59227L10.3065 4.57737C10.2768 4.56249 10.2768 4.56248 10.247 4.56248V4.57737C10.2322 4.59226 10.247 4.56252 10.2322 4.60717C10.2322 4.62205 10.2322 4.62198 10.2322 4.63687C10.2173 4.65175 10.2321 4.65176 10.2024 4.65176C10.1577 4.65176 10.1875 4.65175 10.1875 4.63687L10.1726 4.59227C10.1429 4.60715 10.1429 4.6071 10.1429 4.63687L10.1577 4.65176C10.1726 4.68152 10.1726 4.66667 10.2024 4.68155L10.2173 4.69645C10.2619 4.72621 10.2917 4.75595 10.3363 4.77083C10.3661 4.78571 10.381 4.78565 10.4107 4.80053C10.4405 4.81541 10.4405 4.81546 10.4703 4.84522L10.4851 4.86012L10.5 4.87501L10.5149 4.88982C10.5744 4.91958 10.5893 4.93448 10.5744 5.00889C10.5297 5.00889 10.5595 5.00895 10.5149 4.97919C10.5149 5.02383 10.5149 4.99404 10.5 5.03868C10.4554 5.03868 10.4554 5.03867 10.4256 5.02378C10.3959 5.0089 10.3809 5.00889 10.3512 5.00889L10.3363 4.99399C10.2917 4.99399 10.2917 4.97917 10.2322 4.96429L10.2173 4.9494H10.1875L10.1429 4.9345H10.0833C10.0982 4.94938 10.0982 4.96431 10.128 4.97919C10.1429 4.99407 10.1578 4.99399 10.1875 4.99399L10.2024 5.00889C10.2619 5.02377 10.2917 5.05351 10.3363 5.08328C10.3512 5.09816 10.381 5.11311 10.3661 5.15775C10.3512 5.18751 10.3363 5.18744 10.3065 5.17256L10.2917 5.15775L10.2768 5.14286L10.2619 5.12796C10.1875 5.12796 10.2321 5.11305 10.1726 5.09817L10.1577 5.08328H10.0982H10.0387C10.0089 5.06839 10.0089 5.08332 9.99405 5.03868L9.97916 5.02378L9.96431 5.00889L9.94941 4.99399H9.7857L9.77085 4.97919C9.72621 4.93455 9.77084 4.91965 9.71131 4.87501C9.54762 4.78573 9.60715 4.83037 9.53275 4.78573L9.51785 4.77083C9.45833 4.77083 9.48809 4.77083 9.42857 4.77083L9.41368 4.78573H9.39883L9.38393 4.80053C9.32441 4.81541 9.30955 4.8601 9.22026 4.84522C9.13098 4.83034 9.07144 4.86012 9.07144 4.77083C9.11609 4.75595 9.11608 4.74104 9.16073 4.74104L9.17562 4.72615C9.22026 4.72615 9.20536 4.71125 9.25001 4.71125C9.27977 4.71125 9.27975 4.72615 9.32439 4.72615H9.33929C9.38393 4.71127 9.36905 4.71125 9.42857 4.71125L9.44347 4.69645H9.503L9.53275 4.68155C9.56251 4.66667 9.54761 4.68152 9.56249 4.65176C9.53273 4.63688 9.53276 4.63685 9.503 4.62197C9.503 4.57733 9.50297 4.54758 9.56249 4.54758L9.59229 4.53269C9.62205 4.51781 9.62201 4.50297 9.65178 4.48809L9.66667 4.4732L9.71131 4.42851L9.69642 4.41371C9.60713 4.30954 9.60717 4.35416 9.503 4.29463C9.48812 4.27975 9.47323 4.27972 9.44347 4.26484C9.36906 4.2202 9.32441 4.19046 9.29465 4.19046C9.27977 4.17558 9.29465 4.17556 9.25001 4.17556C9.19048 4.17556 9.19047 4.14585 9.14583 4.13096C9.10119 4.11608 9.07143 4.11603 9.05655 4.07138L8.99701 4.13096L8.98216 4.14577H8.92263C8.8631 4.16065 8.878 4.19047 8.8036 4.20535C8.77384 4.22023 8.69941 4.22025 8.63988 4.22025L8.62499 4.23514H8.58035L8.5655 4.22025H8.50596L8.49107 4.23514H8.46132L8.44642 4.22025H8.43157L8.41668 4.23514H8.34225L8.3274 4.22025L8.14883 4.24995C8.08931 4.24995 8.04466 4.16067 8.19347 4.16067L8.23812 4.17556H8.25297L8.28276 4.16067L8.29761 4.14577H8.26786L8.25297 4.16067H8.20832L8.17858 4.19046H8.13394L8.11904 4.20535C8.08928 4.20535 8.10418 4.20534 8.0893 4.19046L8.0744 4.17556C8.0744 4.1458 8.07443 4.13094 8.10419 4.10117ZM13.2827 14.2202V14.2946V14.3691C13.2678 14.3839 13.2679 14.3541 13.2679 14.3987C13.2679 14.4583 13.253 14.4732 13.2381 14.5178L13.2232 14.5327C13.1786 14.6071 13.1786 14.6071 13.1042 14.6666C13.0446 14.7112 13.0298 14.741 12.9702 14.7857L12.9553 14.8006L12.9405 14.8155L12.9256 14.8304L12.9107 14.8452L12.8959 14.8601C12.881 14.8749 12.881 14.8899 12.881 14.9196L12.8661 14.9344V14.9642C12.8661 14.9791 12.8661 14.9643 12.8512 14.994C12.8512 15.0089 12.8512 15.0089 12.8512 15.0238C12.8512 15.0833 12.8363 15.113 12.8363 15.1577L12.8214 15.1726C12.8214 15.2172 12.8065 15.2172 12.8065 15.2619L12.7917 15.2768V15.2917C12.7768 15.2917 12.7768 15.2916 12.7768 15.3065C12.7619 15.3362 12.7619 15.3363 12.7619 15.366C12.747 15.366 12.747 15.3661 12.747 15.3809C12.7322 15.4256 12.6875 15.4851 12.6726 15.5148C12.6577 15.5148 12.6578 15.5148 12.6578 15.5297C12.6429 15.5446 12.628 15.5743 12.6131 15.5892L12.5982 15.6041C12.5833 15.6339 12.5684 15.6487 12.5387 15.6785C12.5238 15.6785 12.5238 15.6785 12.5238 15.6934C12.5089 15.7083 12.5089 15.7381 12.5089 15.753C12.4941 15.753 12.494 15.753 12.494 15.7679C12.494 15.8125 12.4643 15.8274 12.4494 15.8571L12.4345 15.8719L12.4197 15.8868L12.4048 15.9017L12.3899 15.9166C12.3303 15.9613 12.3155 15.9761 12.2113 15.9761C12.1964 15.9761 12.1816 15.9761 12.1816 15.9761C12.1369 15.9761 12.1667 15.9761 12.1518 15.991C12.0923 15.991 12.0774 16.0059 12.0327 16.0208L12.0178 16.0357C11.9732 16.0357 11.9732 16.0505 11.9137 16.0654L11.8988 16.0803H11.8839L11.8691 16.0952C11.8244 16.0952 11.8095 16.1101 11.7798 16.1101L11.7649 16.125H11.75L11.7351 16.1399L11.7202 16.1547L11.7054 16.1696L11.6607 16.2143L11.6458 16.2292C11.6309 16.2589 11.631 16.2589 11.631 16.2887L11.6161 16.3036V16.4077L11.6012 16.4225C11.5863 16.4672 11.5863 16.4821 11.5417 16.4821L11.5268 16.497C11.5119 16.5119 11.497 16.5118 11.4821 16.5267C11.4673 16.5416 11.4524 16.5416 11.4375 16.5565L11.4226 16.5714L11.4078 16.5863C11.3334 16.6905 11.2143 16.8244 11.1101 16.8839L11.0952 16.8987C11.0655 16.9136 11.0506 16.9285 11.0208 16.9434L11.0059 16.9583C10.9613 16.9732 10.9911 16.9732 10.9464 16.9732L10.9316 16.988C10.9018 16.988 10.9018 17.0029 10.872 17.0029L10.8571 17.0178C10.7976 17.0327 10.7232 17.0774 10.6935 17.1369C10.6637 17.1964 10.619 17.256 10.5446 17.256L10.5297 17.2708H10.4405C10.4405 17.2559 10.4405 17.256 10.4256 17.256H10.4107C10.4107 17.256 10.4107 17.256 10.3958 17.256H10.3214C10.3066 17.256 10.3065 17.2559 10.3065 17.2708H10.2917C10.2768 17.2708 10.2768 17.2708 10.2768 17.2857L10.2322 17.3005L10.2173 17.3154L10.2024 17.3303L10.1875 17.3452L10.1726 17.3749L10.1577 17.3898C10.1428 17.4345 10.1429 17.4345 10.0982 17.4642C10.0685 17.4791 10.0685 17.494 10.0089 17.494L9.97916 17.5089C9.87499 17.5089 9.81548 17.5982 9.75595 17.6577C9.74107 17.6577 9.74106 17.6577 9.74106 17.6726C9.72618 17.7321 9.74106 17.7172 9.74106 17.747C9.51784 17.7321 9.27976 17.7023 9.05655 17.6577C9.07143 17.6428 9.07144 17.6279 9.07144 17.5982C9.08632 17.5387 9.07144 17.5535 9.07144 17.4791L9.05655 17.4493C9.05655 17.4196 9.04165 17.4047 9.04165 17.36L9.0268 17.3303V17.3005L9.01191 17.2857V17.1666L9.0268 17.1518V17.122L9.04165 17.0922C9.04165 17.0476 9.05655 17.0476 9.05655 17.0178L9.07144 17.0029C9.08632 16.9732 9.08631 16.9583 9.10119 16.9434L9.11608 16.9285C9.11608 16.8839 9.13098 16.869 9.13098 16.8095C9.13098 16.7499 9.11608 16.7499 9.11608 16.7053V16.5863C9.11608 16.5417 9.13095 16.497 9.14583 16.4672L9.16073 16.4523C9.17561 16.4226 9.17562 16.4226 9.17562 16.3928L9.19047 16.3779C9.19047 16.3333 9.20537 16.3333 9.20537 16.2738L9.22026 16.2589V16.2143V16.1994L9.23511 15.991C9.23511 15.9464 9.25002 15.8124 9.22026 15.7827C9.20538 15.6934 9.13095 15.5744 9.05655 15.5595L9.04165 15.5446C8.99701 15.5297 8.99701 15.5297 8.95237 15.5148C8.95237 15.4999 8.9524 15.4999 8.93752 15.4999L8.84824 15.4553L8.83334 15.4404C8.77382 15.4107 8.75891 15.3958 8.71427 15.366L8.69942 15.3512C8.58037 15.2619 8.47622 15.1577 8.38693 15.0386L8.37204 15.0238C8.35716 14.9941 8.34228 14.994 8.3274 14.9642C8.31252 14.9345 8.29764 14.9196 8.28276 14.9047C8.26788 14.875 8.22322 14.8005 8.22322 14.7708L8.20832 14.7559C8.19344 14.6964 8.1488 14.622 8.11904 14.5773C8.0744 14.5178 8.01487 14.4881 7.97022 14.4583L7.95537 14.4434C7.94049 14.4286 7.9256 14.4285 7.89584 14.4285L7.88094 14.4136L7.86609 14.3987L7.8512 14.3839V14.3393L7.86609 14.3244C7.86609 14.25 7.85118 14.2946 7.8363 14.2351C7.82142 14.1904 7.83632 14.1756 7.8512 14.1458L7.86609 14.1309C7.91073 14.1011 7.95534 14.1011 7.97022 14.0267L7.95537 14.0118L7.94048 13.997H7.92558L7.91073 13.9821C7.88097 13.9821 7.86608 13.9672 7.8512 13.9374C7.82143 13.8482 7.92558 13.8481 7.92558 13.7291C7.94046 13.7291 7.92558 13.7292 7.92558 13.7143C7.92558 13.6994 7.92558 13.6994 7.92558 13.6994V13.6547L7.94048 13.6398C7.95536 13.5654 8.00001 13.6101 8.04466 13.5654L8.05955 13.5357C8.08931 13.4762 8.13392 13.4613 8.16368 13.4166L8.17858 13.4018C8.19346 13.3869 8.19347 13.3719 8.19347 13.3571C8.20836 13.3571 8.20832 13.3571 8.20832 13.3423V13.3125L8.22322 13.2976V13.119L8.20832 13.0892V12.9553L8.22322 12.9404C8.22322 12.8809 8.25298 12.8214 8.26786 12.7917C8.29762 12.747 8.32738 12.7321 8.35714 12.6875L8.37204 12.6726C8.38692 12.6428 8.40178 12.628 8.40178 12.5982L8.41668 12.5833C8.41668 12.5238 8.43157 12.494 8.47622 12.4791L8.50596 12.4642C8.58037 12.4642 8.56548 12.4196 8.63988 12.4048C8.66965 12.3899 8.68454 12.4047 8.69942 12.375C8.7143 12.3601 8.71428 12.3452 8.72917 12.3006L8.71427 12.2857C8.69939 12.241 8.62502 12.2113 8.5655 12.2113C8.47621 12.2262 8.49107 12.2708 8.49107 12.3601C8.4613 12.375 8.47622 12.3899 8.43157 12.3899H8.41668C8.37204 12.375 8.35714 12.3304 8.3125 12.3155C8.28274 12.3006 8.22324 12.2708 8.19347 12.2559L8.17858 12.241C8.14882 12.241 8.13395 12.2262 8.10419 12.2113L8.0893 12.1964C8.02977 12.1815 8 12.1518 7.94048 12.1369L7.92558 12.122C7.89582 12.1071 7.89582 12.1071 7.88094 12.0922L7.86609 12.0773H7.8512L7.8363 12.0624C7.79166 12.0476 7.7768 12.0327 7.76191 12.0029C7.73215 11.9732 7.73215 11.9434 7.71727 11.8988L7.70238 11.8839C7.6875 11.8392 7.67263 11.8243 7.67263 11.7946C7.67263 11.7797 7.67262 11.7797 7.65774 11.7797C7.64286 11.7499 7.64287 11.75 7.62799 11.7202C7.61311 11.6904 7.59823 11.6905 7.58335 11.6756L7.56846 11.6607C7.50893 11.6458 7.4643 11.6011 7.38989 11.6011L7.375 11.5862C7.31547 11.5862 7.3006 11.5714 7.24107 11.5714L7.22618 11.5565H7.21133L7.18154 11.5416C7.15177 11.5416 7.12202 11.5267 7.09225 11.5118C7.04761 11.497 7.06253 11.497 7.03276 11.4673L7.01787 11.4524L7.00297 11.4375L6.98812 11.4226L6.97323 11.4077C6.94347 11.3779 6.94345 11.3482 6.91369 11.3036L6.89884 11.2887L6.88395 11.2738L6.86905 11.2589L6.82441 11.244C6.82441 11.2291 6.82439 11.2291 6.80951 11.2291H6.70538L6.69049 11.244C6.61608 11.2589 6.58633 11.2738 6.51192 11.244C6.46728 11.2291 6.48215 11.2143 6.45239 11.1994C6.43751 11.1845 6.40773 11.1696 6.39285 11.1547L6.378 11.1398L6.24408 11.0803L6.22918 11.0654C6.18454 11.0506 6.18454 11.0356 6.1399 11.0356L6.125 11.0208C6.09524 11.0208 6.09523 11.0059 6.06547 11.0059L6.05062 10.9911C6.02086 10.9911 5.9911 10.9613 5.96134 10.9613L5.94644 10.9464C5.88692 10.9315 5.81252 10.872 5.76788 10.8274C5.72323 10.7827 5.67859 10.7083 5.67859 10.619L5.6637 10.6041C5.6637 10.5595 5.6488 10.5297 5.6488 10.4851L5.63395 10.4702C5.61907 10.4255 5.5893 10.366 5.57442 10.3363C5.54465 10.2916 5.51491 10.2619 5.50003 10.2172L5.48513 10.2023L5.47024 10.1875L5.41075 10.1279L5.39585 10.113L5.38096 10.0981C5.23215 9.99397 5.32145 10.0237 5.26193 9.91958C5.24705 9.88981 5.21727 9.86006 5.20239 9.83029C5.17263 9.80053 5.15774 9.78567 5.14286 9.75591C5.14286 9.74103 5.14289 9.74101 5.12801 9.74101C5.11313 9.69637 5.06846 9.6369 5.05358 9.60713C5.05358 9.59225 5.05361 9.59224 5.03873 9.59224L5.02383 9.51785L5.00893 9.50296V9.48806L4.99404 9.47317C4.99404 9.42852 4.97916 9.38388 4.9494 9.38388C4.9494 9.33924 4.91965 9.38388 4.91965 9.38388C4.88989 9.39877 4.90479 9.38393 4.88991 9.42857C4.88991 9.44345 4.88991 9.45829 4.88991 9.47317C4.88991 9.51781 4.90476 9.56248 4.90476 9.59224C4.90476 9.60712 4.90477 9.60713 4.91965 9.60713C4.91965 9.65178 4.94943 9.69636 4.97919 9.72612C4.97919 9.741 4.97916 9.74101 4.99404 9.74101L5.00893 9.75591L5.02383 9.7708C5.06847 9.80057 5.14287 9.90474 5.15775 9.96426L5.17265 9.97916V9.99405L5.1875 10.0089C5.20238 10.0386 5.20239 10.0535 5.20239 10.0981L5.21729 10.1279V10.1875L5.23214 10.2023C5.23214 10.2321 5.24703 10.247 5.24703 10.2768L5.26193 10.2916V10.3065L5.27678 10.3214C5.29166 10.3512 5.32144 10.3809 5.33632 10.4107V10.4405C5.32144 10.4702 5.36609 10.4553 5.30657 10.4702C5.29169 10.4702 5.29166 10.4702 5.27678 10.4702L5.26193 10.4554L5.20239 10.3958L5.1875 10.3809L5.15775 10.3512C5.11311 10.2768 5.06847 10.2023 5.06847 10.113L5.05358 10.0981C5.03869 10.0535 5.0238 10.0535 4.99404 10.0238C4.88987 9.91959 4.90477 10.0535 4.87501 9.75591L4.86012 9.74101C4.84523 9.71125 4.83039 9.68149 4.80062 9.65173C4.77086 9.62197 4.77085 9.62199 4.74109 9.57734C4.71133 9.51782 4.69645 9.45826 4.69645 9.35409V9.33929C4.69645 9.32441 4.69643 9.32438 4.68155 9.3095C4.66667 9.22021 4.56253 9.16071 4.47324 9.14583L4.45835 9.13093C4.4137 9.10117 4.39884 9.07139 4.38396 9.01186C4.38396 8.99698 4.38396 8.96724 4.38396 8.93748C4.38396 8.90771 4.36907 8.89285 4.36907 8.86309L4.35417 8.84819C4.35417 8.78867 4.32442 8.77376 4.32442 8.72912L4.30953 8.71422C4.30953 8.66958 4.29468 8.66957 4.29468 8.61005L4.27978 8.58035V8.55056L4.26489 8.53566L4.24999 8.3125C4.24999 8.26786 4.26489 8.25297 4.26489 8.20832C4.26489 8.1488 4.27978 8.14879 4.27978 8.10415L4.29468 8.08925V8.05946L4.30953 8.02976C4.30953 7.98512 4.32442 7.98511 4.32442 7.92558L4.33932 7.91069C4.33932 7.86604 4.36908 7.85115 4.38396 7.80651C4.39884 7.77675 4.39883 7.7172 4.41371 7.68744C4.42859 7.56839 4.39881 7.52377 4.39881 7.43449L4.38396 7.41959C4.38396 7.36007 4.3542 7.33036 4.33932 7.28571C4.33932 7.27083 4.33931 7.27082 4.32442 7.27082L4.26489 7.16664C4.26489 7.15176 4.26487 7.15175 4.24999 7.15175C4.23511 7.1071 4.22025 7.10711 4.22025 7.06246L4.20535 7.04757C4.19047 7.01781 4.1905 6.98805 4.1905 6.95829L4.17561 6.94339C4.16072 6.91363 4.14585 6.8988 4.13096 6.8988C4.53275 6.19939 5.05358 5.57441 5.6637 5.05358H5.72323C5.76788 5.05358 5.79762 5.03868 5.84226 5.03868L5.85716 5.02378H5.8869L5.9018 5.00889C5.94644 4.99401 5.94645 4.97911 6.00598 4.99399L6.02083 4.97919C6.08035 4.97919 6.09527 4.96428 6.15479 4.9494L6.16964 4.9345C6.25893 4.91962 6.30358 4.84522 6.40774 4.84522L6.43749 4.83032H6.48213L6.49703 4.81543C6.54167 4.81543 6.6012 4.81543 6.64585 4.81543C6.69049 4.81543 6.72023 4.80053 6.76487 4.80053L6.77977 4.78573C6.86905 4.77085 6.86904 4.72615 7.00297 4.72615H7.03276C7.10717 4.72615 7.10715 4.72616 7.15179 4.74104C7.15179 4.75592 7.15181 4.75594 7.16669 4.75594C7.22621 4.75594 7.22619 4.7708 7.28571 4.74104C7.31548 4.72616 7.33037 4.69642 7.34525 4.66666L7.36015 4.65176L7.375 4.63687L7.41964 4.59227L7.43453 4.57737C7.5387 4.53273 7.49404 4.48803 7.55356 4.42851C7.58332 4.39875 7.59824 4.39881 7.64289 4.39881C7.68753 4.39881 7.71729 4.41363 7.73217 4.42851L7.74702 4.44341L7.76191 4.4583L7.77681 4.48809C7.82145 4.45833 7.8363 4.44339 7.88094 4.42851C7.92558 4.41363 7.98512 4.41367 7.98512 4.4732V4.48809C7.98512 4.54762 7.95535 4.51784 7.92558 4.56248C8.01487 4.60712 8 4.57737 8.0744 4.57737L8.0893 4.56248C8.23811 4.53272 8.10417 4.44347 8.22322 4.41371L8.23812 4.39881C8.28276 4.38393 8.28275 4.36902 8.3274 4.36902L8.34225 4.35412H8.40178C8.40178 4.36901 8.4018 4.36902 8.41668 4.36902H8.43157L8.44642 4.38392C8.47619 4.41368 8.50596 4.44344 8.5506 4.4732C8.59524 4.50296 8.61013 4.57739 8.5506 4.59227L8.53571 4.60717C8.49106 4.62205 8.52083 4.62198 8.49107 4.63687C8.47618 4.65175 8.47619 4.65178 8.44642 4.66666L8.43157 4.68155H8.41668L8.40178 4.69645C8.37202 4.69645 8.34226 4.69645 8.3125 4.69645C8.28274 4.71133 8.28273 4.71127 8.25297 4.72615C8.19344 4.74103 8.16369 4.69637 8.11904 4.71125C8.05952 4.72613 8.02975 4.81541 7.92558 4.88982L7.91073 4.90471H7.92558H7.95537C7.98514 4.91959 7.97022 4.90474 7.97022 4.9345C7.94046 4.97915 7.82144 5.05359 7.76191 5.06847L7.74702 5.08328C7.70238 5.09816 7.67263 5.11307 7.62799 5.11307C7.61311 5.11307 7.6131 5.11308 7.6131 5.12796C7.55357 5.12796 7.55359 5.14287 7.49407 5.15775L7.47917 5.17256H7.46428L7.44943 5.18745C7.41967 5.18745 7.40477 5.21726 7.38989 5.23214C7.36013 5.24702 7.36013 5.26187 7.34525 5.29163L7.33036 5.30653V5.32142C7.31547 5.32142 7.31551 5.32144 7.31551 5.33632C7.30062 5.36608 7.3006 5.36605 7.28571 5.39581C7.27083 5.39581 7.27086 5.39582 7.27086 5.4107C7.25598 5.42558 7.25595 5.44042 7.24107 5.4553C7.22619 5.47018 7.22618 5.4851 7.22618 5.49998L7.21133 5.51488V5.52978L7.19643 5.54458C7.19643 5.6041 7.16666 5.61902 7.18154 5.67855C7.18154 5.72319 7.19645 5.76786 7.21133 5.79762C7.22621 5.84226 7.31549 5.94641 7.34525 5.96129L7.36015 5.97619C7.38991 5.99107 7.49407 6.03568 7.53871 6.03568L7.55356 6.05057C7.62796 6.05057 7.64288 6.06547 7.73217 6.06547L7.76191 6.08036H7.82145C7.85121 6.09524 7.89585 6.09524 7.91073 6.08036H7.94048L7.95537 6.06547C8.0149 6.06547 8.00001 6.05057 8.04466 6.05057C8.0893 6.05057 8.07441 6.06547 8.13394 6.06547L8.14883 6.08036C8.1786 6.08036 8.19346 6.09518 8.22322 6.11006C8.2381 6.12494 8.26788 6.13987 8.28276 6.15475C8.31252 6.18451 8.35714 6.24398 8.35714 6.28863L8.37204 6.30352C8.37204 6.34816 8.3869 6.43744 8.40178 6.48209C8.41666 6.54161 8.43156 6.57141 8.46132 6.61605L8.47622 6.63095C8.53574 6.72024 8.625 6.69046 8.68453 6.61605L8.69942 6.60116C8.7143 6.54164 8.72917 6.52679 8.72917 6.45239C8.72917 6.39286 8.7143 6.36306 8.69942 6.31842C8.68454 6.18449 8.75894 6.15471 8.83334 6.11006L8.84824 6.09526C8.92264 6.0655 9.04167 5.96126 9.01191 5.84222C8.99703 5.78269 8.95237 5.7678 8.90773 5.73804C8.84821 5.6934 8.84824 5.69345 8.84824 5.60416L8.86309 5.58927C8.90773 5.51486 8.9524 5.54465 8.93752 5.4256C8.93752 5.39584 8.92263 5.38094 8.92263 5.32142C8.92263 5.27678 8.90773 5.2619 8.90773 5.23214V5.20235C8.90773 5.14282 8.89286 5.18751 8.92263 5.15775L8.95237 5.14286C8.99701 5.12798 8.98216 5.14287 9.0268 5.15775C9.04168 5.17263 9.08632 5.17256 9.11608 5.17256C9.16073 5.17256 9.14584 5.18745 9.20537 5.18745C9.25001 5.18745 9.23512 5.17256 9.29465 5.17256H9.39883C9.44347 5.17256 9.48811 5.18747 9.53275 5.20235L9.54764 5.21724C9.59229 5.23212 9.60713 5.26185 9.65178 5.27673L9.66667 5.29163C9.74108 5.33627 9.81546 5.33633 9.83034 5.44049C9.83034 5.45537 9.83034 5.47021 9.83034 5.48509C9.83034 5.51485 9.83035 5.5 9.84524 5.51488V5.52978C9.84524 5.54466 9.84525 5.54458 9.86013 5.54458C9.88989 5.6041 9.91965 5.61898 9.99405 5.63386C10.1429 5.6785 10.2173 5.61905 10.2917 5.51488C10.3215 5.47024 10.3809 5.45533 10.4405 5.48509L10.4554 5.49998C10.4702 5.51487 10.4851 5.52971 10.4851 5.55948C10.5 5.619 10.4703 5.5893 10.5149 5.61906L10.5297 5.63386L10.5595 5.64876L10.5744 5.66365L10.5893 5.67855L10.6042 5.69344C10.6191 5.70832 10.619 5.72316 10.6339 5.73804C10.6339 5.75292 10.6339 5.75294 10.6488 5.75294C10.6637 5.82734 10.6637 5.87196 10.7381 5.9166C10.8125 5.96125 10.872 5.94638 10.9464 5.9315C10.9613 5.9315 10.9613 5.93148 10.9613 5.9166C11.0655 5.88684 11.0952 5.88684 11.1994 5.9166L11.2143 5.9315C11.2441 5.9315 11.2589 5.9613 11.2887 5.97619L11.3036 5.99108L11.3333 6.02078L11.3482 6.03568L11.3631 6.05057L11.378 6.09526L11.3929 6.11006V6.12496L11.4078 6.13985C11.4078 6.1845 11.4226 6.1994 11.4375 6.25893C11.4375 6.30357 11.4375 6.34816 11.4375 6.3928C11.4375 6.49697 11.4226 6.52675 11.378 6.60116L11.3631 6.61605L11.3482 6.63095C11.3333 6.63095 11.3333 6.63096 11.3333 6.64585C11.2738 6.69049 11.2292 6.69044 11.125 6.69044C11.1101 6.69044 11.1101 6.69046 11.1101 6.70534C11.0655 6.70534 11.0506 6.72025 11.0208 6.73513L11.0059 6.74993C10.9762 6.77969 10.9167 6.80951 10.872 6.80951L10.8571 6.82441C10.7976 6.82441 10.7976 6.8393 10.753 6.8393C10.7084 6.8393 10.7232 6.82441 10.6637 6.82441L10.6488 6.80951C10.5893 6.80951 10.5595 6.79462 10.4851 6.79462C10.4256 6.79462 10.381 6.80951 10.3214 6.80951C10.3066 6.80951 10.3065 6.80953 10.3065 6.82441C10.2768 6.82441 10.2619 6.83923 10.2322 6.85411L10.2173 6.869C10.1726 6.88389 10.1429 6.8988 10.0982 6.8988L10.0833 6.91369C10.0089 6.92857 9.96431 6.95833 9.91967 7.00297L9.90477 7.01787L9.88988 7.03267C9.875 7.04755 9.81546 7.10707 9.7857 7.12195C9.74106 7.15172 9.71133 7.18157 9.68157 7.21133L9.66667 7.22613V7.25592C9.74108 7.24104 9.77082 7.1666 9.83034 7.12195C9.8601 7.09219 9.96428 7.03267 10.0238 7.03267L10.0387 7.01787C10.0982 7.01787 10.0982 7.00297 10.1726 7.00297C10.1875 7.00297 10.2024 7.00297 10.2173 7.00297H10.2322C10.247 7.00297 10.247 7.00296 10.2619 6.98808H10.3065C10.3214 7.00296 10.2917 7.00297 10.3363 7.00297C10.3661 7.01785 10.3661 7.01781 10.381 7.04757C10.381 7.06245 10.381 7.10707 10.381 7.12195C10.3512 7.13684 10.3661 7.15175 10.3214 7.15175C10.3066 7.15175 10.3066 7.15175 10.2917 7.15175C10.2768 7.15175 10.2768 7.15176 10.2768 7.16664L10.247 7.18154L10.2619 7.19643C10.3065 7.21131 10.3214 7.22616 10.3512 7.25592C10.3809 7.28569 10.3809 7.31544 10.3958 7.34521C10.4256 7.38985 10.5 7.44938 10.5744 7.44938L10.5893 7.46428C10.619 7.47916 10.634 7.47914 10.6637 7.44938H10.7084L10.7232 7.46428L10.753 7.47917C10.753 7.52382 10.753 7.5238 10.7381 7.55356C10.6786 7.56844 10.6488 7.56846 10.5744 7.56846L10.5446 7.58335H10.5149C10.5 7.58335 10.5 7.58327 10.5 7.59816C10.4554 7.59816 10.4703 7.61307 10.4256 7.62795L10.4107 7.64284C10.381 7.65772 10.3661 7.65768 10.3363 7.68744C10.3215 7.70232 10.3066 7.73214 10.2917 7.74702C10.247 7.79166 10.1726 7.79165 10.1577 7.73212L10.1429 7.71723C10.1429 7.64282 10.2024 7.59823 10.2768 7.58335C10.2917 7.58335 10.2917 7.58334 10.2917 7.56846C10.3363 7.55357 10.3661 7.55352 10.3661 7.50887C10.3066 7.50887 10.3363 7.50887 10.2768 7.50887L10.2619 7.52377H10.247L10.2322 7.53866C10.1726 7.53866 10.1578 7.58327 10.0982 7.59816L10.0833 7.61305C10.0238 7.64281 9.97916 7.64284 9.88988 7.64284L9.87503 7.65774H9.84524L9.83034 7.67263C9.7857 7.67263 9.72621 7.71724 9.68157 7.73212L9.66667 7.74702C9.59227 7.79166 9.56251 7.85118 9.53275 7.92558L9.51785 7.94048C9.47321 8.01488 9.3988 8.08929 9.32439 8.13394L9.30954 8.14874C9.25002 8.1785 9.22023 8.20829 9.19047 8.26782C9.14583 8.34222 9.17559 8.35716 9.10119 8.41668L9.08629 8.43148C9.05653 8.43148 9.04168 8.44638 9.0268 8.44638L9.01191 8.46127L8.99701 8.47617L8.98216 8.49107C8.9524 8.55059 8.92263 8.63985 8.92263 8.74402L8.90773 8.75891C8.90773 8.80355 8.89287 8.83334 8.87798 8.87798L8.86309 8.89279C8.84821 8.95231 8.80358 8.99701 8.7887 9.04165C8.77382 9.04165 8.77381 9.04167 8.77381 9.05655C8.71428 9.16071 8.63987 9.2202 8.53571 9.2946L8.52086 9.3095C8.49109 9.32438 8.43155 9.35412 8.40178 9.38388C8.37202 9.41365 8.34226 9.4434 8.3125 9.47317L8.29761 9.48806C8.28273 9.51782 8.28276 9.5327 8.28276 9.57734C8.26788 9.59223 8.26786 9.56249 8.26786 9.60713V9.63684L8.28276 9.66663C8.28276 9.74103 8.29761 9.74106 8.29761 9.7857L8.3125 9.80059C8.32738 9.83036 8.34225 9.87501 8.34225 9.90477L8.35714 9.91958C8.37202 9.94934 8.37204 9.97911 8.37204 10.0238L8.38693 10.0535V10.0981L8.40178 10.113V10.3065C8.37202 10.3214 8.37203 10.3363 8.3125 10.3363L8.29761 10.3214C8.23808 10.2767 8.20833 10.247 8.16368 10.1875L8.14883 10.1726C8.13395 10.1429 8.10418 10.0684 8.0893 10.0386L8.0744 10.0238V10.0089L8.05955 9.99405C8.05955 9.91965 8.04466 9.90473 8.04466 9.86009L8.02976 9.84519C8.01488 9.80055 8.00002 9.77079 7.95537 9.75591L7.94048 9.74101H7.86609L7.8512 9.75591C7.76191 9.75591 7.76193 9.78564 7.68753 9.72612L7.67263 9.71131C7.55359 9.65179 7.47919 9.66659 7.36015 9.72612L7.34525 9.74101C7.31549 9.75589 7.28573 9.77082 7.25597 9.7857L7.24107 9.80059C7.19643 9.81548 7.19642 9.81541 7.1369 9.83029L7.10715 9.84519H6.92859C6.85418 9.84519 6.8244 9.8601 6.76487 9.87498L6.75002 9.88988H6.73513L6.72023 9.90477C6.69047 9.91965 6.6905 9.91958 6.66074 9.91958L6.64585 9.93447C6.55656 9.97911 6.49703 10.0386 6.45239 10.1279L6.43749 10.1428V10.1577L6.42264 10.1726L6.40774 10.2172L6.39285 10.2321V10.247C6.37797 10.247 6.378 10.247 6.378 10.2619C6.378 10.3958 6.27382 10.3958 6.27382 10.5148L6.25893 10.5446V10.7083L6.27382 10.7381C6.27382 10.7827 6.28872 10.8124 6.28872 10.8571C6.28872 10.872 6.28869 10.872 6.30357 10.872L6.34821 10.9613L6.3631 10.9762C6.39287 11.0208 6.40776 11.0357 6.42264 11.0803L6.43749 11.0952C6.48213 11.1696 6.60118 11.2589 6.72023 11.2589C6.72023 11.2589 6.72025 11.2589 6.73513 11.2589C6.75001 11.2589 6.73514 11.2589 6.75002 11.2589C6.7649 11.2589 6.76489 11.2589 6.77977 11.2589H6.88395C6.91371 11.2589 6.91371 11.2589 6.92859 11.244C6.97323 11.244 7.01788 11.2143 7.03276 11.1845C7.06253 11.1547 7.0774 11.1101 7.0774 11.0654C7.09229 11.0506 7.09225 11.0357 7.09225 11.0208C7.10714 10.9613 7.13689 10.9167 7.18154 10.9167L7.19643 10.9018C7.28572 10.8869 7.3899 10.872 7.49407 10.8869C7.50895 10.9464 7.49404 10.9464 7.46428 10.9911C7.43452 11.0208 7.41967 11.0357 7.40479 11.0803L7.38989 11.0952C7.37501 11.1399 7.36013 11.1696 7.34525 11.2142C7.33037 11.244 7.33036 11.3035 7.33036 11.3482C7.31547 11.4672 7.33035 11.5417 7.41964 11.5565L7.43453 11.5714H7.44943C7.46431 11.5714 7.46429 11.5714 7.47917 11.5714H7.6131H7.71727C7.7768 11.5714 7.76191 11.5862 7.80656 11.5862L7.82145 11.6011C7.85121 11.6309 7.86608 11.6309 7.89584 11.6607C7.91072 11.6905 7.9256 11.7053 7.94048 11.75C7.94048 11.7649 7.94049 11.7649 7.95537 11.7649C7.95537 11.8691 7.94046 11.8839 7.92558 11.9583C7.9107 12.0475 7.92558 12.0773 7.92558 12.1517L7.94048 12.1666C7.95536 12.1964 7.95534 12.2261 7.97022 12.2559L7.98512 12.2708C8.02976 12.3303 8.02977 12.3303 8.0893 12.375L8.10419 12.3899C8.19348 12.4345 8.2232 12.4047 8.29761 12.3899L8.3125 12.375C8.35714 12.3601 8.34229 12.3601 8.38693 12.3601H8.49107C8.52083 12.3601 8.52084 12.3601 8.5506 12.375C8.5506 12.3898 8.55062 12.3899 8.5655 12.3899H8.58035L8.59524 12.4048C8.61012 12.4196 8.61011 12.4196 8.62499 12.4345C8.63987 12.4493 8.62502 12.4345 8.65478 12.4642C8.66966 12.494 8.68453 12.5089 8.68453 12.5386L8.69942 12.5535C8.69942 12.5982 8.71427 12.628 8.71427 12.6875C8.71427 12.747 8.72917 12.7619 8.72917 12.8214L8.74406 12.8363C8.74406 12.866 8.74408 12.8512 8.75896 12.8661C8.78872 12.9107 8.81846 12.8958 8.83334 12.9107V12.8512L8.81845 12.8363V12.8214L8.83334 12.8065V12.7619L8.84824 12.747C8.878 12.6875 8.92264 12.6279 9.0268 12.6428C9.07145 12.6428 9.10122 12.6726 9.13098 12.6875C9.16074 12.7173 9.16074 12.7321 9.22026 12.747C9.23514 12.7619 9.22023 12.7619 9.23511 12.747C9.26487 12.747 9.29463 12.7321 9.32439 12.7321C9.33927 12.7321 9.39879 12.747 9.41368 12.747C9.41368 12.7619 9.41369 12.7619 9.42857 12.7619C9.45833 12.7768 9.45835 12.7768 9.48811 12.7917L9.503 12.8065C9.57741 12.8214 9.56251 12.8214 9.62203 12.8065C9.66667 12.7916 9.71133 12.7917 9.77085 12.7917L9.7857 12.8065C9.81546 12.8214 9.83035 12.8214 9.84524 12.8363L9.86013 12.8512C9.88989 12.8512 9.96428 12.881 9.97916 12.881C10.0089 12.8958 10.0238 12.9553 10.0387 12.985L10.0536 12.9999L10.0684 13.0148C10.0982 13.0297 10.1131 13.0297 10.1577 13.0297C10.1726 13.0446 10.1429 13.0297 10.1875 13.0446C10.2024 13.0446 10.2024 13.0446 10.2173 13.0446C10.2619 13.0446 10.2768 13.0594 10.3065 13.0743L10.3214 13.0892C10.3661 13.119 10.3661 13.1488 10.4256 13.2232C10.5298 13.3422 10.6191 13.3571 10.753 13.3423C10.8572 13.3274 10.8869 13.3571 10.9613 13.3571L10.9762 13.372C11.0208 13.372 11.0209 13.3869 11.0357 13.3869L11.0506 13.4018C11.1399 13.4464 11.2441 13.5357 11.2589 13.6547L11.2738 13.6696V13.6845L11.2887 13.6994C11.3036 13.8036 11.4226 13.8036 11.3631 13.9077L11.3482 13.9225C11.3482 13.997 11.378 13.9821 11.4673 13.9821C11.5417 13.9821 11.5714 13.997 11.631 13.997L11.6607 14.0118C11.7054 14.0118 11.7351 14.0267 11.7798 14.0267C11.7798 14.0416 11.7798 14.0416 11.7946 14.0416H11.8095C11.8095 14.0565 11.8095 14.0565 11.8244 14.0565L11.8988 14.0863C11.8988 14.1012 11.8988 14.1011 11.9137 14.1011C11.9732 14.116 12.0476 14.1755 12.1072 14.2053C12.1518 14.2351 12.2708 14.2798 12.3304 14.2798C12.3304 14.2946 12.3303 14.2946 12.3452 14.2946H12.3601L12.3899 14.3095C12.4494 14.3095 12.494 14.3244 12.5387 14.3393L12.5536 14.3542C12.6131 14.3542 12.6875 14.3988 12.7172 14.4285C12.7768 14.4732 12.7917 14.5029 12.881 14.5029C12.8958 14.5178 12.9256 14.5178 12.9553 14.5178C12.9702 14.5178 12.9703 14.5178 12.9851 14.5327L13 14.5476L13.0149 14.5624L13.0298 14.5773L13.0446 14.5922C13.0446 14.6071 13.0446 14.6071 13.0595 14.6071V14.2202H13.2827ZM10.3512 10.9613C10.3363 11.0059 10.3661 10.9911 10.3214 10.9911L10.2768 11.0059C10.2322 11.0208 10.2172 11.0208 10.2024 11.0059L10.1875 10.9911C10.1726 10.9464 10.1875 10.9167 10.247 10.9167L10.2619 10.9316H10.3065C10.3214 10.9464 10.3066 10.9315 10.3214 10.9464C10.3363 10.9464 10.3512 10.9464 10.3512 10.9464V10.9613ZM9.41368 10.9911C9.38391 10.9911 9.33931 11.0059 9.30954 10.9762C9.27978 10.9464 9.30951 10.9315 9.32439 10.9167H9.33929C9.38393 10.9315 9.47321 10.9464 9.51785 10.9167V10.9018V10.8869L9.503 10.872C9.48812 10.7976 9.41368 10.9017 9.41368 10.7827C9.42856 10.7678 9.42859 10.7827 9.44347 10.7678H9.45832C9.51784 10.7678 9.54761 10.7976 9.60713 10.7827C9.7113 10.7529 9.66665 10.7827 9.74106 10.7976C9.74106 10.8274 9.77085 10.7976 9.77085 10.7976H9.80059L9.81549 10.8125C9.86013 10.8274 9.84526 10.8273 9.87503 10.8571C9.90479 10.8868 9.88991 10.872 9.91967 10.8869L9.93452 10.9018C9.96428 10.9018 9.9494 10.9018 9.97916 10.9167L9.99405 10.9316C10.0089 10.9613 10.0089 10.9613 10.0238 10.9911V11.0208C9.99404 11.0506 10.0089 11.0505 9.97916 11.0356C9.97916 11.0356 9.96429 11.0208 9.94941 11.0208C9.93453 11.006 9.93452 11.0059 9.93452 11.0059L9.91967 11.0208C9.80062 11.0208 9.87502 11.0505 9.72621 11.0505C9.71133 11.0803 9.71133 11.11 9.68157 11.1249C9.63692 11.1398 9.60713 11.125 9.60713 11.0803V11.0505L9.41368 10.9911ZM8.90773 10.6636C8.87797 10.6487 8.86312 10.6488 8.84824 10.6339C8.78871 10.6042 8.83336 10.5893 8.75896 10.5595C8.74408 10.5595 8.75893 10.5595 8.72917 10.5446C8.71428 10.5446 8.7143 10.5446 8.69942 10.5446C8.62502 10.5446 8.625 10.5297 8.59524 10.5148C8.40179 10.4256 8.46134 10.5 8.38693 10.4405C8.34229 10.3958 8.37201 10.4107 8.29761 10.4256L8.28276 10.4405L8.17858 10.5C8.08929 10.5595 8.07443 10.5 8.10419 10.4405L8.11904 10.4256C8.13392 10.3958 8.16368 10.3958 8.20832 10.3661C8.25297 10.3512 8.20834 10.3512 8.26786 10.3512C8.29762 10.3512 8.29764 10.3512 8.3274 10.3363L8.34225 10.3214H8.35714L8.40178 10.3363C8.43155 10.3363 8.43156 10.3363 8.46132 10.3363C8.50596 10.3363 8.49106 10.3512 8.53571 10.3512C8.56547 10.3512 8.59526 10.3512 8.61014 10.3512C8.65478 10.3661 8.68452 10.3958 8.72917 10.3958L8.74406 10.4107C8.77382 10.4256 8.77384 10.4256 8.8036 10.4256L8.81845 10.4405C8.84821 10.4553 8.90774 10.4553 8.92263 10.4702C8.95239 10.485 8.93752 10.5149 8.98216 10.5446L8.99701 10.5595H9.01191L9.04165 10.5743C9.14582 10.5743 9.08634 10.619 9.17562 10.6339C9.27979 10.6637 9.30951 10.6488 9.32439 10.6934V10.7232L9.30954 10.7381L9.29465 10.7529H9.25001C9.23513 10.738 9.2649 10.7381 9.22026 10.7381C9.17562 10.7381 9.19047 10.738 9.19047 10.7529C9.11607 10.7529 9.01191 10.738 8.96727 10.7678L8.95237 10.7827C8.8482 10.7827 8.92264 10.7083 8.93752 10.6934C8.93752 10.6785 8.93749 10.6785 8.90773 10.6636ZM13.5208 4.14577C13.5208 4.14577 13.506 4.14577 13.4911 4.14577C13.4613 4.14577 13.4762 4.14578 13.4613 4.16067C13.4315 4.16067 13.4167 4.17558 13.4018 4.19046L13.3869 4.20535C13.3423 4.27976 13.2827 4.36903 13.1785 4.38392C13.1637 4.38392 13.1637 4.38393 13.1637 4.39881C13.1191 4.39881 13.119 4.41371 13.0595 4.41371C13 4.41371 13 4.42851 12.9553 4.42851C12.9405 4.42851 12.9405 4.42853 12.9405 4.44341L12.9256 4.4583L12.881 4.50299L12.8661 4.51779C12.8661 4.56244 12.8661 4.59222 12.881 4.63687C12.881 4.65175 12.881 4.65176 12.8959 4.65176C12.9107 4.6964 12.9107 4.6815 12.8959 4.72615L12.881 4.74104C12.8661 4.7708 12.8512 4.77083 12.8065 4.77083L12.7917 4.78573V4.80053L12.8065 4.81543C12.8809 4.9196 12.8661 5.00893 12.8363 5.14286L12.8214 5.15775C12.7768 5.24704 12.6726 5.24701 12.6131 5.21724C12.5833 5.20236 12.5684 5.17262 12.5387 5.14286C12.5089 5.1131 12.494 5.09816 12.4494 5.08328L12.4345 5.06847H12.4048C12.3899 5.05359 12.3304 5.05359 12.3155 5.06847H12.2708L12.2559 5.08328H12.1072L12.0923 5.06847H12.0476L12.0178 5.05358C11.9286 5.05358 11.8244 4.97916 11.7649 4.9494C11.6905 4.90475 11.6458 4.84524 11.5863 4.77083L11.5714 4.75594L11.5417 4.71125C11.5417 4.69637 11.5417 4.69645 11.5268 4.69645L11.5119 4.68155C11.497 4.63691 11.497 4.66661 11.497 4.62197L11.4821 4.60717C11.4524 4.56252 11.4524 4.54755 11.4078 4.51779L11.3929 4.50299C11.3482 4.47323 11.2738 4.42856 11.244 4.38392L11.2292 4.36902C11.2143 4.35414 11.2143 4.33931 11.2143 4.32442L11.1994 4.30953V4.19046C11.2143 4.19046 11.2143 4.19044 11.2143 4.17556V4.16067L11.2292 4.14577C11.244 4.08625 11.3185 4.02677 11.3929 4.01189L11.4226 3.997H11.4524L11.4673 3.9821L11.4524 3.96721C11.4375 3.95232 11.4375 3.9524 11.3929 3.9524C11.3631 3.9524 11.3631 3.95232 11.3482 3.96721H11.3036L11.2887 3.9821C11.2292 3.9821 11.1845 4.02676 11.125 3.997C11.1101 3.98212 11.0952 3.96727 11.0952 3.93751C11.0952 3.89286 11.0952 3.89288 11.1101 3.86312L11.125 3.84822C11.1994 3.80358 11.2738 3.83333 11.3631 3.83333C11.378 3.84821 11.3928 3.84821 11.4226 3.83333H11.4524L11.4375 3.80354L11.4226 3.78864C11.4077 3.77376 11.4077 3.77375 11.3929 3.77375L11.378 3.75894C11.1696 3.75894 11.0953 3.58031 10.9911 3.5059C10.9613 3.47614 10.9018 3.4464 10.8571 3.43151L10.8423 3.41662H10.8274C10.8274 3.40174 10.8274 3.40172 10.8125 3.40172C10.7827 3.38684 10.7678 3.38692 10.7232 3.38692L10.7084 3.37202H10.6786L10.6488 3.35713C11.7054 3.38689 12.7024 3.63984 13.5804 4.07138C13.6101 4.10115 13.5952 4.14577 13.5208 4.14577ZM17.0625 12.8363C17.0774 12.8065 17.0774 12.8066 17.0774 12.7917V12.6279C17.0774 12.613 17.0774 12.5982 17.0774 12.5982C17.0625 12.5536 17.0774 12.5833 17.0625 12.5684V12.5386L17.0476 12.5237C17.0476 12.4642 17.0327 12.4494 17.0327 12.3899L17.0179 12.375V12.3452L17.003 12.3303L16.9732 12.2262L16.9583 12.2113L16.9435 12.1666L16.9286 12.1517V12.122L16.9137 12.1071C16.9137 12.0476 16.8988 12.0476 16.8988 12.0029C16.8988 11.9583 16.9137 11.9583 16.9137 11.9137L16.9286 11.8988V11.869L16.9435 11.8542C16.9435 11.8095 16.9583 11.8243 16.9583 11.7797L16.9732 11.7649C16.9732 11.7054 16.9881 11.6607 16.9583 11.616C16.9434 11.5863 16.9137 11.5565 16.869 11.5416C16.869 11.5268 16.869 11.5267 16.8541 11.5267C16.8095 11.5267 16.8095 11.5267 16.7798 11.5118L16.7649 11.497L16.75 11.4821C16.6756 11.4375 16.631 11.4672 16.5565 11.497L16.5417 11.5118C16.5119 11.5267 16.497 11.5267 16.4524 11.5267C16.4375 11.5267 16.4375 11.5268 16.4375 11.5416C16.3928 11.5416 16.378 11.5565 16.3184 11.5565H16.3036C16.2589 11.5714 16.3036 11.5565 16.2738 11.5714H16.2292H16.2143C16.1994 11.5714 16.1994 11.5714 16.1845 11.5862C16.125 11.5862 16.0655 11.5862 16.006 11.5862C15.9613 11.5862 15.9167 11.6011 15.8571 11.6011L15.8274 11.616C15.6637 11.6309 15.7232 11.6458 15.6339 11.5416C15.6191 11.5268 15.6042 11.5118 15.5893 11.497C15.5447 11.4672 15.5298 11.4226 15.4851 11.3929C15.4554 11.3631 15.4107 11.3333 15.3809 11.3036L15.366 11.2887L15.3512 11.2738L15.3363 11.2589L15.3214 11.244L15.3066 11.2291L15.2917 11.2142L15.2768 11.1994L15.2619 11.1845L15.247 11.1696L15.2321 11.1547L15.2173 11.1398C15.2024 11.1101 15.1875 11.1101 15.1726 11.0803C15.1578 11.0655 15.1429 11.0506 15.128 11.0208C15.0982 10.9762 15.0833 10.9613 15.0536 10.9018L15.0387 10.8869C15.0089 10.8273 14.9792 10.7975 14.9345 10.7529C14.8601 10.6934 14.875 10.6785 14.8899 10.5743L14.9047 10.5595C14.9196 10.5149 14.9197 10.5446 14.9345 10.5C14.9048 10.4553 14.875 10.4553 14.875 10.3958V10.3661C14.875 10.3066 14.9048 10.3066 14.9345 10.2768L14.9494 10.2619V10.247L14.9643 10.2321C14.9643 10.1875 14.9792 10.1577 14.9792 10.0981C15.0089 10.0833 14.9941 10.0684 14.9792 10.0535C14.9792 10.0089 14.9643 9.99401 14.9643 9.94937L14.9494 9.93447V9.91958L14.9345 9.90477C14.9048 9.87501 14.875 9.83034 14.875 9.7857L14.8601 9.7708C14.8601 9.71128 14.8304 9.68154 14.8453 9.60713C14.8453 9.56249 14.8601 9.50291 14.875 9.45827L14.8899 9.44347C14.9048 9.4137 14.9048 9.41365 14.9196 9.38388L14.9345 9.36899C14.9494 9.35411 14.9494 9.33926 14.9643 9.3095C14.9792 9.29462 14.994 9.27969 15.0089 9.26481C15.0238 9.26481 15.0238 9.26489 15.0238 9.25001C15.0536 9.20536 15.0982 9.16068 15.128 9.11604L15.1428 9.10114C15.1726 9.0565 15.1875 9.02671 15.2173 8.98207C15.247 8.93743 15.2619 8.90773 15.2917 8.86309L15.3066 8.84819C15.3214 8.81843 15.3363 8.80357 15.366 8.77381L15.3809 8.75891L15.4107 8.71422L15.4256 8.69942C15.4405 8.66966 15.4554 8.65472 15.4851 8.63984C15.5149 8.61008 15.5149 8.61012 15.5447 8.59524V8.53566V8.43148C15.5447 8.35708 15.5744 8.29756 15.6041 8.25292L15.619 8.23802C15.6339 8.20826 15.6637 8.17852 15.6934 8.16364C15.7083 8.14876 15.7083 8.14882 15.7381 8.13394C15.7678 8.11906 15.7679 8.11901 15.7679 8.08925L15.7827 8.07436V8.01486V7.98507C15.7976 7.94043 15.8125 7.92561 15.872 7.95537L15.8869 7.97018L15.9018 7.98507C15.9464 7.99996 15.9613 7.99998 16.006 8.01486L16.0208 8.02976C16.0655 8.04464 16.0357 8.04458 16.0803 8.05946C16.1101 8.07434 16.125 8.05946 16.1547 8.05946L16.1696 8.04466C16.2143 8.02978 16.2292 7.99996 16.2738 7.98507C16.3036 7.97019 16.3631 7.95537 16.3928 7.95537H16.4077C16.4226 7.95537 16.4226 7.95536 16.4375 7.94048H16.5268C16.5268 7.94048 16.5268 7.94048 16.5417 7.94048C16.5565 7.94048 16.5566 7.94048 16.5714 7.94048C16.6458 7.95536 16.7202 7.98512 16.7649 8.02976C16.8095 8.0744 16.869 8.1339 16.8839 8.19343L16.8988 8.20832C16.9137 8.25297 16.9286 8.29756 16.9583 8.3422C16.9583 8.35708 16.9583 8.3571 16.9732 8.3571C17.0179 8.41662 17.0476 8.4613 17.1071 8.49107L17.122 8.50596C17.1518 8.52084 17.1816 8.55057 17.2113 8.56545C17.2411 8.59521 17.2559 8.61006 17.2857 8.62494L17.3006 8.63984C17.3452 8.65472 17.3452 8.66961 17.3899 8.65473C17.3899 8.65473 17.4345 8.62494 17.4494 8.62494C17.4494 8.62494 17.4494 8.62494 17.4643 8.62494C17.5982 9.16066 17.6577 9.72614 17.6577 10.3065C17.6577 11.5863 17.3155 12.7916 16.7351 13.8333C16.7351 13.7737 16.75 13.7291 16.75 13.6696C16.7649 13.6547 16.7649 13.6845 16.7649 13.6398C16.7649 13.5505 16.7946 13.491 16.7946 13.4018L16.8095 13.372C16.8095 13.3273 16.8393 13.2827 16.8393 13.2381C16.8542 13.2381 16.8541 13.2381 16.8541 13.2232C16.8541 13.1785 16.869 13.1785 16.869 13.1339L16.8839 13.119C16.8988 13.0595 16.9583 12.9553 16.9881 12.9107C17.003 12.9107 17.003 12.9106 17.003 12.8958C17.0178 12.866 17.0327 12.8362 17.0476 12.8065L17.0625 12.7917C17.0774 12.747 17.0774 12.7469 17.0774 12.7023L17.0922 12.6875L17.0625 12.8363Z" fill="white"/>
</svg>
