<svg width="28" height="28" viewBox="0 0 28 28" fill="none" xmlns="http://www.w3.org/2000/svg">
<circle cx="14" cy="14" r="14" fill="#F15822"/>
<path d="M20.1465 5.71057C19.865 5.21039 19.328 4.89966 18.7452 4.89966H14.0355C13.1533 4.89966 12.4356 5.61735 12.4356 6.49952V8.63266C12.4356 9.51482 13.1533 10.2325 14.0355 10.2325H17.2352C17.5293 10.2325 17.7685 10.4718 17.7685 10.7658V14.9551C16.2308 14.5347 14.6099 14.4827 13.0518 14.7997C11.8646 13.6637 10.1831 13.2015 8.50401 13.6214C6.82515 14.0411 5.43182 15.4112 5.03303 17.1164C4.69009 18.5832 5.02442 20.0941 5.95042 21.2616C6.8783 22.4315 8.25727 23.1025 9.73366 23.1025C16.6954 23.1025 21.5144 20.4572 22.8066 19.8109C22.9872 19.7206 23.1014 19.5359 23.1014 19.3339V17.0205C23.1014 13.056 22.0796 9.14504 20.1465 5.71057ZM22.0348 19.0053C20.3023 19.878 15.9164 22.0359 9.73366 22.0359C8.58482 22.0359 7.51046 21.5121 6.78601 20.5987C6.06358 19.6879 5.80316 18.5071 6.07158 17.3592C6.37314 16.0694 7.45464 14.9831 8.76269 14.656C9.83665 14.3875 10.9134 14.5711 11.7828 15.145C11.367 15.2879 10.959 15.4586 10.5617 15.6572C10.2983 15.7889 10.1915 16.1092 10.3233 16.3727C10.4549 16.6361 10.7753 16.7429 11.0387 16.6112C13.5719 15.3446 16.5966 15.3445 19.1299 16.6112C19.3937 16.7431 19.7139 16.6356 19.8453 16.3727C19.9771 16.1092 19.8703 15.7889 19.6068 15.6572C19.3538 15.5306 19.0962 15.4156 18.8351 15.3116V10.7658C18.8351 9.88364 18.1174 9.16595 17.2352 9.16595H16.7019V7.56609C16.7019 7.27157 16.4632 7.0328 16.1686 7.0328H15.1021C14.8076 7.0328 14.5688 7.27157 14.5688 7.56609C14.5688 7.86061 14.8076 8.09938 15.1021 8.09938H15.6354V9.16595H14.0355C13.7414 9.16595 13.5022 8.92672 13.5022 8.63266V6.49952C13.5022 6.20546 13.7414 5.96623 14.0355 5.96623H18.7452C18.9434 5.96623 19.1242 6.06873 19.2171 6.23369C21.0605 9.50882 22.0348 13.2388 22.0348 17.0205L22.0348 19.0053Z" fill="white"/>
</svg>
