<svg width="28" height="28" viewBox="0 0 28 28" fill="none" xmlns="http://www.w3.org/2000/svg">
<circle cx="14" cy="14" r="14" fill="#DFC211"/>
<path d="M15.4714 12.523C15.7421 12.3129 15.7421 11.9712 15.4714 11.7611C15.2007 11.551 14.7604 11.551 14.4897 11.7611L15.4714 12.523Z" fill="white"/>
<path d="M4.35235 15.2365L9.52191 19.2487C9.99171 19.6133 10.7535 19.6133 11.2233 19.2487L23.6476 9.60603C24.1175 9.24141 24.1175 8.65021 23.6476 8.2856L18.4781 4.27346C18.0083 3.90885 17.2465 3.90885 16.7767 4.27346L4.35235 13.9161C3.88255 14.2807 3.88255 14.8719 4.35235 15.2365ZM14.9817 7.1904L17.3819 5.32759C17.5177 5.22221 17.7372 5.22254 17.8725 5.32759L22.2894 8.75559C22.4248 8.86063 22.4252 9.03133 22.2894 9.13637L19.8892 10.9992L19.3986 10.6184L21.5537 8.94581L17.6274 5.89858L15.4723 7.57118L14.9817 7.1904ZM11.3009 13.8562C9.81256 12.7011 9.81256 10.8214 11.3009 9.66629C12.7893 8.51117 15.2112 8.51117 16.6995 9.66629C18.1879 10.8214 18.1879 12.7011 16.6995 13.8562C15.2112 15.0113 12.7893 15.0113 11.3009 13.8562ZM5.71014 14.7669C5.57479 14.6618 5.57436 14.4912 5.71014 14.3861L8.11034 12.5233L8.60096 12.9041L6.44586 14.5767L10.3722 17.6239L12.5273 15.9513L13.0179 16.3321L10.6177 18.1949C10.4819 18.3003 10.2624 18.2999 10.1271 18.1949L5.71014 14.7669Z" fill="white"/>
<path d="M11.7912 10.0472C10.5735 10.9922 10.5735 12.5301 11.7912 13.4752C13.0088 14.4202 14.9904 14.4202 16.2081 13.4752C17.4258 12.5298 17.4258 10.9922 16.2081 10.0472C14.9904 9.10212 13.0093 9.10212 11.7912 10.0472ZM15.963 11.3804C16.5044 11.8006 16.5044 12.484 15.963 12.9038L16.2085 13.0944L15.7179 13.4752L15.4724 13.2846C14.931 13.7048 14.0504 13.7048 13.5095 13.2846L14.0001 12.9038C14.2708 13.1139 14.7111 13.1139 14.9818 12.9038L14.0001 12.1419C13.4587 12.5621 12.5781 12.5621 12.0371 12.1419C11.4958 11.7218 11.4958 11.0383 12.0371 10.6185L11.7916 10.4279L12.2822 10.0472L12.5278 10.2377C13.0691 9.81755 13.9498 9.81755 14.4907 10.2377L14.0001 10.6185C13.7294 10.4084 13.2891 10.4084 13.0184 10.6185L14.0001 11.3804C14.541 10.9602 15.4216 10.9602 15.963 11.3804Z" fill="white"/>
<path d="M12.5277 11.7607C12.7984 11.9708 13.2387 11.9708 13.5094 11.7607L12.5277 10.9988C12.257 11.2089 12.257 11.5506 12.5277 11.7607Z" fill="white"/>
<path d="M4.06813 15.7897L9.38648 19.9173C9.93914 20.3462 10.7898 20.3813 11.2865 19.9958L23.9391 10.176C24.077 10.5002 23.9799 10.8716 23.6476 11.1295L11.2236 20.7725C10.7538 21.1371 9.99206 21.1371 9.52226 20.7725L4.35227 16.7603C4.01434 16.4977 3.91934 16.118 4.06813 15.7897Z" fill="white"/>
<path d="M4.06813 17.2663L9.38648 21.3939C9.93914 21.8228 10.7898 21.8578 11.2865 21.4723L23.9391 11.6526C24.077 11.9768 23.9799 12.3482 23.6476 12.606L11.2236 22.2487C10.7538 22.6133 9.99206 22.6133 9.52226 22.2487L4.35227 18.2366C4.01434 17.974 3.91934 17.5942 4.06813 17.2663Z" fill="white"/>
<path d="M4.06813 18.7441L9.38648 22.8717C9.93914 23.3006 10.7898 23.3356 11.2865 22.9501L23.9391 13.1304C24.077 13.4546 23.9799 13.8259 23.6476 14.0838L11.2236 23.7265C10.7538 24.0911 9.99206 24.0911 9.52226 23.7265L4.35227 19.7144C4.01434 19.4521 3.91934 19.0723 4.06813 18.7441Z" fill="white"/>
</svg>
