<svg width="40" height="40" viewBox="0 0 40 40" fill="none" xmlns="http://www.w3.org/2000/svg">
<circle cx="20" cy="20" r="17" fill="#F15822"/>
<circle cx="20" cy="20" r="18.5" stroke="#F15822" stroke-opacity="0.2" stroke-width="3"/>
<path d="M32.2011 21.528C29.5758 20.7605 30.0214 16.7968 28.1771 14.3071C26.6337 12.223 22.8949 13.1452 20.5476 13.602C18.2003 14.0588 13.8826 12.8543 11.9967 13.2289C10.1108 13.602 7.7635 16.2166 7.7635 16.2166C7.38661 15.8846 6.67295 15.8846 6.67295 15.8846V17.3373C5.96073 17.2125 5.03786 17.5444 5.03786 17.5444L5.87619 18.0835C5.87619 18.0835 4.78564 20.4073 5.03786 21.528C5.29007 22.6488 6.96673 22.2757 6.96673 22.2757L7.84661 22.6913C7.84661 22.6913 7.51128 22.3182 8.01428 22.1934C8.51727 22.0686 8.89416 23.2304 8.89416 23.2304L8.30662 23.1893L9.28108 24.0972C9.70383 24.4916 10.3286 24.6193 10.8603 24.3867C10.9348 24.354 11.0065 24.3157 11.0738 24.2689C11.6184 23.8958 10.9893 23.439 10.9061 22.236C10.8216 21.0329 11.9121 20.1193 11.9121 20.1193C11.9121 20.1193 13.1274 20.2853 13.3796 20.8669C13.6318 21.4486 14.1763 23.2319 14.4701 23.9795C14.7639 24.7271 14.7223 24.7271 14.4286 25.1825C14.1348 25.6393 13.5487 25.8053 13.9671 26.0961C14.387 26.387 15.35 25.9713 15.35 25.9713C15.35 25.9713 15.0978 26.4281 15.3084 26.6352C15.5177 26.8424 15.6438 26.6764 16.2729 26.9261C16.902 27.1757 17.7403 26.7601 17.9911 26.1742C18.2433 25.5883 19.6677 23.8135 20.0862 23.0659C20.5046 22.3182 20.0862 21.738 20.0862 21.738C20.7984 21.6969 23.1042 20.6173 23.1042 20.6173C23.6917 20.9081 24.2778 21.1989 24.8224 21.406C25.3669 21.6132 24.8224 22.5679 24.6963 23.8547C24.5702 25.1414 24.0672 24.7257 23.4811 25.1414C22.8935 25.557 23.7333 25.6805 24.5286 25.7642C25.3254 25.8465 25.7438 25.6805 25.7023 25.1002C25.6607 24.5186 27.002 23.0247 27.2528 22.5693C27.505 22.1125 26.8759 20.9918 26.8759 20.9918C26.8759 20.9918 27.505 21.7394 28.0496 22.1948C28.5941 22.6516 28.3849 23.8135 28.3849 24.8094C28.3849 25.8053 27.5466 25.723 27.7142 26.0124C27.8819 26.3033 29.2232 26.1373 29.6431 26.0124C30.063 25.8876 29.9369 25.0165 30.2722 23.771C30.6075 22.5254 30.566 21.7791 30.566 21.7791C31.6565 22.4842 34.6315 23.7256 34.9668 23.0659C35.1445 22.7183 34.6616 22.2473 32.2011 21.528ZM5.37319 21.5564C5.70852 21.5834 5.98796 22.0274 5.98796 22.0274C5.40758 22.0515 5.37319 21.5564 5.37319 21.5564ZM6.32329 22.026C6.32329 22.026 6.1456 21.6217 6.32329 21.4443C6.46373 21.3053 6.85495 21.3337 6.7704 20.8627C6.7704 20.8641 7.5815 21.7224 6.32329 22.026ZM7.13153 19.6441L6.88218 19.871V19.288L7.17595 18.4581L7.31209 19.078C7.35795 19.2851 7.28916 19.4994 7.13153 19.6441ZM10.6281 20.7535L10.32 19.5362L9.70526 19.8682L9.28538 18.2353L8.80961 18.651L8.08306 17.0181L8.92139 17.9587L9.50893 17.543L9.95604 19.1759L10.6267 18.8851V20.7535H10.6281ZM12.0812 19.3703V17.0181L11.3547 17.3501V15.8293L10.6281 16.3003L10.2369 14.778L10.8804 15.608L11.8032 15.2476L11.8305 16.6039L12.6416 16.4932L12.0812 19.3703ZM16.5494 23.7724C16.6612 23.1794 16.5494 21.9919 16.5494 21.9919C16.5494 21.9919 17.1485 21.9551 17.1485 22.4374C17.1485 22.9198 16.5494 23.7724 16.5494 23.7724ZM22.0151 19.9987L22.6857 18.8865L21.9305 18.6368L22.518 17.5686L21.6382 17.3785L22.3088 16.0917H21.3444L21.5536 14.2659L21.8474 15.5626L22.8534 15.8676L22.3504 17.0749L23.0626 17.1884L22.6427 18.18L23.3549 18.6382L22.0151 19.9987ZM26.2067 19.3802L24.4885 20.2654L25.4945 19.3802L24.4885 18.6368L25.7037 17.8651L24.4455 17.1884L25.4515 16.1343L24.2363 15.5626L24.8654 14.2659L24.8238 15.4647L26.1651 15.8676L25.3268 17.0749L26.4173 17.8665L25.4529 18.5943L26.2067 19.3802ZM28.6801 18.8865L27.5065 19.2227V19.9987L27.045 18.8865L28.1771 18.5928L27.6741 17.5515L28.6801 17.0195L28.2187 17.6962L28.6801 18.8865Z" fill="white"/>
</svg>
