<svg width="19" height="19" viewBox="0 0 19 19" fill="none" xmlns="http://www.w3.org/2000/svg">
<rect x="1.35352" y="0.5" width="17.1463" height="17.1463" rx="4.5" stroke="white"/>
<path d="M15.8555 5.77713C15.5333 5.20404 15.1836 5.09863 14.4717 5.05854C13.7606 5.01029 11.9722 4.99024 10.423 4.99024C8.8707 4.99024 7.08163 5.01029 6.37121 5.0578C5.66078 5.09863 5.31039 5.2033 4.98524 5.77713C4.65341 6.34949 4.48267 7.33533 4.48267 9.07094C4.48267 9.07243 4.48267 9.07317 4.48267 9.07317C4.48267 9.07465 4.48267 9.0754 4.48267 9.0754V9.07688C4.48267 10.8051 4.65341 11.7983 4.98524 12.3648C5.31039 12.9378 5.66003 13.0418 6.37046 13.09C7.08163 13.1316 8.8707 13.1561 10.423 13.1561C11.9722 13.1561 13.7606 13.1316 14.4725 13.0908C15.1844 13.0425 15.534 12.9386 15.8562 12.3655C16.191 11.7991 16.3603 10.8058 16.3603 9.07762C16.3603 9.07762 16.3603 9.0754 16.3603 9.07391C16.3603 9.07391 16.3603 9.07243 16.3603 9.07168C16.3603 7.33533 16.191 6.34949 15.8555 5.77713ZM8.93677 11.3002V6.84612L12.6485 9.07317L8.93677 11.3002Z" fill="white"/>
</svg>
