<svg width="149" height="158" viewBox="0 0 149 158" fill="none" xmlns="http://www.w3.org/2000/svg">
<path fill-rule="evenodd" clip-rule="evenodd" d="M114.576 48.1329C117.122 46.665 120.273 48.483 120.273 51.3784V91.051C120.273 93.9463 123.437 95.7643 125.969 94.3099L125.996 94.283C127.168 93.6096 127.868 92.3842 127.868 91.0375L128.016 38.006C128.016 35.1107 124.878 33.2658 122.36 34.7202L106.847 43.7159C105.675 44.3892 104.975 45.6147 104.975 46.9613V95.4276C104.975 96.7743 104.274 97.9998 103.103 98.6731C100.585 100.141 97.4064 98.323 97.4468 95.3872L97.595 55.7415C97.595 52.8462 94.4573 51.0282 91.939 52.4557L76.5871 61.3167C75.4155 61.99 74.6748 63.2155 74.6748 64.5756V117.419C74.6748 120.314 77.8395 122.132 80.3308 120.664H80.3577C81.5293 119.991 82.2296 118.725 82.2296 117.419V68.9523C82.2296 67.6056 82.9298 66.3802 84.0745 65.7068L84.2496 65.5856C86.7678 64.0908 89.9729 65.9088 89.9459 68.8446L89.8247 108.638C89.8247 111.534 92.9625 113.352 95.4807 111.924L110.819 103.104C111.991 102.43 112.691 101.164 112.691 99.8177V51.3784C112.691 50.0317 113.432 48.8062 114.576 48.1329Z" fill="white"/>
<path fill-rule="evenodd" clip-rule="evenodd" d="M33.4397 48.1329C30.881 46.665 27.7433 48.483 27.7433 51.3784V91.051C27.7433 93.9463 24.5786 95.7643 22.0469 94.3099L22.02 94.283C20.8484 93.6096 20.1481 92.3842 20.1481 91.0375L20 38.006C20 35.1107 23.1377 33.2658 25.656 34.7202L41.1695 43.7159C42.3411 44.3892 43.0414 45.6147 43.0414 46.9613V95.4276C43.0414 96.7743 43.7416 97.9998 44.9132 98.6731C47.4315 100.141 50.6096 98.323 50.5692 95.3872L50.4211 55.7415C50.4211 52.8462 53.5588 51.0282 56.077 52.4557L71.3886 61.3032C72.5602 61.9766 73.3008 63.202 73.3008 64.5622V117.419C73.3008 120.314 70.1362 122.132 67.6449 120.664H67.6179C66.4463 119.991 65.7461 118.725 65.7461 117.419V68.9523C65.7461 67.6056 65.0458 66.3802 63.9011 65.7068L63.7261 65.5856C61.2078 64.0908 58.0028 65.9088 58.0297 68.8446L58.1509 108.638C58.1509 111.534 55.0132 113.352 52.4949 111.924L37.1565 103.104C35.9849 102.43 35.2846 101.164 35.2846 99.8177V51.3784C35.3115 50.0317 34.5843 48.8062 33.4397 48.1329Z" fill="#ED2A32"/>
<path d="M71.9693 1.18828L27.5429 26.8287C24.8496 28.3774 24.8496 32.2827 27.5429 33.8583L71.9693 59.4987C73.2351 60.2259 74.7838 60.2259 76.0497 59.4987L120.476 33.7101C123.169 32.1615 123.169 28.2292 120.449 26.6806L76.0227 1.18828C74.7569 0.48802 73.2351 0.48802 71.9693 1.18828Z" fill="white"/>
<path d="M73.9317 53.6541C86.7835 53.6541 97.202 43.2356 97.202 30.3838C97.202 17.532 86.7835 7.11353 73.9317 7.11353C61.0798 7.11353 50.6614 17.532 50.6614 30.3838C50.6614 43.2356 61.0798 53.6541 73.9317 53.6541Z" fill="#15151F"/>
<path d="M66.1507 22.1962C66.1507 21.9269 66.0968 21.3882 65.9756 20.6341C65.9756 19.9742 66.0698 19.3682 66.2718 18.7353C66.4469 18.1293 66.7566 17.5233 67.1472 16.9308C67.8744 15.8131 68.8574 14.9108 70.0425 14.2509C71.241 13.5911 72.5473 13.2544 73.9209 13.2544C75.7927 13.2544 77.3279 13.6719 78.5265 14.5472C79.725 15.4225 80.6003 16.446 81.1121 17.6849C81.6507 18.8969 81.8931 20.0012 81.8931 21.0381C81.8931 22.277 81.6777 23.3274 81.2602 24.2701C80.8427 25.1993 80.2098 25.9938 79.4287 26.6537C78.7958 27.1654 78.1359 27.5829 77.3818 27.8926C76.6546 28.1889 75.8197 28.4986 74.8231 28.7679C73.8535 29.0373 73.1668 29.2797 72.7493 29.5221C72.1164 29.8183 71.6316 30.1819 71.268 30.6667C70.9313 31.1515 70.7562 31.7171 70.7562 32.3904C70.7562 32.781 70.8505 33.1715 70.9986 33.5082C71.1468 33.8448 71.3892 34.2084 71.7258 34.5316C72.3318 35.1646 73.0456 35.5012 73.8939 35.5012C74.8635 35.5012 75.6446 35.1646 76.2102 34.4778C76.7758 33.8179 77.0855 32.9964 77.0855 32.0403H81.0582C81.0582 33.0638 80.7889 34.1546 80.2771 35.2319C79.7385 36.3227 78.9574 37.2519 77.8397 38.006C77.2741 38.3965 76.6681 38.7063 76.0351 38.9083C75.4022 39.1237 74.675 39.2045 73.9613 39.2045C72.7224 39.2045 71.5508 38.9083 70.433 38.3023C69.3153 37.6963 68.44 36.821 67.7532 35.7032C67.4165 35.1242 67.1472 34.5586 66.9721 33.9256C66.797 33.3196 66.7028 32.6598 66.7028 31.9326L66.824 31.8114V31.7575C66.824 31.1515 66.8778 30.6398 66.999 30.2223C67.1202 29.7645 67.2953 29.347 67.5377 28.9295C67.9956 28.1754 68.5612 27.5694 69.221 27.125C69.9078 26.6671 70.7024 26.2497 71.6046 25.8861L74.2306 24.8626C76.4526 24.0546 77.6646 22.9369 77.8397 21.5094C77.8397 20.5802 77.6646 19.7857 77.301 19.1258C76.9374 18.4256 76.4526 17.9138 75.8197 17.5233C75.2137 17.1866 74.5807 17.0116 73.8939 17.0116C72.8705 17.0116 71.9682 17.4021 71.1872 18.1562C70.4061 18.9104 70.0156 19.8126 70.0156 20.8092C70.1098 21.267 70.1906 21.7384 70.231 22.2232H66.1507V22.1962ZM73.9209 42.9617C74.4595 42.9617 74.9174 43.0829 75.281 43.3523C75.6446 43.5947 75.9409 43.9313 76.1833 44.3488C76.3987 44.7393 76.4795 45.1299 76.4795 45.5204C76.4795 46.2206 76.2371 46.8132 75.7254 47.3249C75.2406 47.8636 74.6481 48.1329 73.9209 48.1329C73.1668 48.1329 72.5338 47.8636 72.0894 47.3518C71.6316 46.8401 71.4026 46.2341 71.4026 45.6012C71.4026 44.9413 71.645 44.3623 72.1298 43.7967C72.6012 43.2311 73.2072 42.9617 73.9209 42.9617Z" fill="#ED2A32"/>
<path d="M9.78198 157.971H1.26803H1.20765C0.543444 157.941 0 157.397 0 156.703V152.144C0 151.752 0.301913 151.45 0.6944 151.45H2.59645C2.98894 151.45 3.29085 151.752 3.29085 152.144V154.046C3.29085 154.439 3.59277 154.741 3.98525 154.741H6.55151V139.132C6.55151 138.739 6.85343 138.437 7.24591 138.437H9.14797C9.54045 138.437 9.84237 138.739 9.84237 139.132V157.971H9.78198Z" fill="white"/>
<path d="M147.111 138H146.111C145.559 138 145.111 138.448 145.111 139V152C145.111 152.552 145.559 153 146.111 153H147.111C147.664 153 148.111 152.552 148.111 152V139C148.111 138.448 147.664 138 147.111 138Z" fill="white"/>
<path d="M147.111 155H146.111C145.559 155 145.111 155.448 145.111 156V157C145.111 157.552 145.559 158 146.111 158H147.111C147.664 158 148.111 157.552 148.111 157V156C148.111 155.448 147.664 155 147.111 155Z" fill="white"/>
<path d="M11.926 139.1C11.926 138.708 12.2279 138.406 12.6204 138.406H14.4923C14.8848 138.406 15.1867 138.708 15.1867 139.1V154.045C15.1867 154.437 15.4886 154.739 15.8811 154.739H18.4473V139.13C18.4473 138.738 18.7493 138.436 19.1417 138.436H21.0438C21.4363 138.436 21.7382 138.738 21.7382 139.13V158H14.4319C13.0129 157.94 11.926 156.762 11.926 155.373V139.1Z" fill="white"/>
<path d="M30.3717 142.935C30.3717 142.24 29.8282 141.697 29.1338 141.667H25.9335C26.5978 141.727 27.111 142.27 27.111 142.935V146.799V146.89C27.111 146.92 27.111 146.95 27.111 146.98C27.1412 147.614 27.6846 148.127 28.3187 148.158H31.0661H31.1264C32.5454 148.218 33.6323 149.396 33.6323 150.815V155.313C33.6323 155.524 33.6021 155.736 33.5719 155.947C33.3002 157.064 32.3039 157.909 31.1264 157.97H31.0057H26.5072H26.3562C26.2053 157.97 26.0241 157.94 25.8732 157.909C24.907 157.668 24.1523 156.913 23.9107 155.947C23.8805 155.736 23.8503 155.524 23.8503 155.313V153.773C23.8503 153.381 24.1523 153.079 24.5447 153.079H26.4468C26.8393 153.079 27.1412 153.381 27.1412 153.773V154.045C27.1412 154.437 27.4431 154.739 27.8356 154.739H29.7376C30.1301 154.739 30.432 154.437 30.432 154.045V152.113C30.432 151.75 30.1301 151.418 29.7376 151.418H26.5072H26.3562C26.2053 151.418 26.0241 151.388 25.8732 151.358C24.907 151.147 24.1523 150.392 23.9107 149.426C23.8805 149.214 23.8503 149.003 23.8503 148.822V141.063C23.8503 140.851 23.8805 140.64 23.9107 140.429C24.1523 139.463 24.907 138.708 25.8732 138.466C26.0241 138.436 26.1751 138.406 26.3562 138.406H26.4166C26.4468 138.406 26.477 138.406 26.477 138.406H30.9755H31.0963C32.5152 138.466 33.6021 139.644 33.6021 141.063V144.263C33.6021 144.625 33.3304 144.927 32.9379 144.957H30.9755C30.6132 144.957 30.3113 144.655 30.3113 144.263V142.935H30.3717Z" fill="white"/>
<path d="M45.404 139.1V141.002C45.404 141.365 45.1021 141.667 44.77 141.697H40.9055C41.5999 141.727 42.1433 142.27 42.1433 142.965V157.306C42.1433 157.698 41.8414 158 41.4489 158H39.5469C39.1544 158 38.8525 157.698 38.8525 157.306V141.697H36.2258C35.8937 141.697 35.5918 141.395 35.5918 141.002V139.1C35.5918 138.768 35.8635 138.466 36.1956 138.406H44.77C45.1322 138.466 45.404 138.768 45.404 139.1Z" fill="white"/>
<path d="M60.4149 138.375C61.1093 138.406 61.6528 138.949 61.6528 139.644V157.185C61.6528 157.607 61.3508 157.909 60.9584 157.909H59.0865C58.694 157.909 58.3921 157.607 58.3921 157.215V152.052C58.3921 151.69 58.0902 151.388 57.6977 151.388H55.1314V157.215C55.1314 157.607 54.8295 157.909 54.437 157.909H52.535C52.1425 157.909 51.8406 157.607 51.8406 157.185V139.644C51.8406 138.949 52.384 138.406 53.0482 138.375H53.1086H60.3243H60.4149ZM58.3921 142.331C58.3921 141.968 58.0902 141.666 57.6977 141.666H53.8936C54.5578 141.666 55.1314 142.27 55.1314 142.934V147.463C55.1314 147.856 55.4333 148.157 55.8258 148.157H57.7279C58.1204 148.157 58.4223 147.886 58.4223 147.493V142.331H58.3921Z" fill="white"/>
<path d="M70.2279 142.934C70.2279 142.24 69.6845 141.697 68.9901 141.666H65.7596C66.4238 141.727 66.9371 142.27 66.9371 142.934V146.799V146.889C66.9371 146.92 66.9371 146.95 66.9371 146.98C66.9673 147.614 67.5107 148.127 68.1447 148.157H70.8922H70.9525C72.3715 148.218 73.4584 149.395 73.4584 150.814V155.313C73.4584 155.524 73.4282 155.735 73.398 155.947C73.1263 157.064 72.13 157.909 70.9525 157.97H70.8016H66.3031H66.1521C66.0012 157.97 65.82 157.939 65.6691 157.909C64.7029 157.668 63.9482 156.913 63.7066 155.947C63.6764 155.735 63.6462 155.524 63.6462 155.313V153.773C63.6462 153.381 63.9482 153.079 64.3406 153.079H66.2427C66.6352 153.079 66.9371 153.381 66.9371 153.773V154.045C66.9371 154.437 67.239 154.739 67.6315 154.739H69.5335C69.926 154.739 70.2279 154.437 70.2279 154.045V152.113C70.2279 151.75 69.926 151.418 69.5335 151.418H66.3333H66.1823C66.0314 151.418 65.8502 151.388 65.6992 151.358C64.7331 151.116 63.9783 150.361 63.7368 149.395C63.7066 149.184 63.6764 148.973 63.6764 148.791V141.032C63.6764 140.821 63.7066 140.61 63.7368 140.398C63.9783 139.432 64.7331 138.677 65.6992 138.436C65.8502 138.406 66.0012 138.375 66.1823 138.375H66.2427C66.2729 138.375 66.3031 138.375 66.3031 138.375H70.8016H70.9525C72.3715 138.436 73.4584 139.613 73.4584 141.032V144.233C73.4584 144.595 73.1867 144.897 72.7942 144.927H70.8318C70.4695 144.927 70.1676 144.625 70.1676 144.233V142.934H70.2279Z" fill="white"/>
<path d="M82.9397 149.848C84.3587 149.909 85.4456 151.086 85.4456 152.505V156.702C85.4456 157.396 84.9021 157.94 84.2077 157.97H84.1473H82.8793C82.4868 157.97 82.1849 157.668 82.1849 157.306V152.143C82.1849 151.781 81.9132 151.509 81.5509 151.449H77.7166C78.3808 151.479 78.9242 152.022 78.9242 152.717V157.306C78.9242 157.698 78.6223 157.97 78.2298 157.97H75.6636V138.406H78.2298C78.6223 138.406 78.9242 138.708 78.9242 139.1V147.524C78.9242 147.886 79.196 148.188 79.5583 148.218H81.5207C81.883 148.218 82.1547 147.916 82.1547 147.524V139.1C82.1547 138.738 82.4566 138.436 82.8491 138.436H84.1171H84.1775C84.8719 138.466 85.4154 139.01 85.4154 139.704V147.222C85.4456 148.641 84.3587 149.788 82.9397 149.848Z" fill="white"/>
<path d="M108.6 141.032V157.275C108.6 157.668 108.298 157.97 107.906 157.97H106.004C105.611 157.97 105.309 157.668 105.309 157.275V142.331C105.309 141.938 105.007 141.636 104.615 141.636H100.811C101.505 141.667 102.049 142.21 102.049 142.904V157.245C102.049 157.638 101.747 157.94 101.354 157.94H99.4522C99.0597 157.94 98.7578 157.638 98.7578 157.245V142.301C98.7578 141.908 98.4559 141.606 98.0634 141.606H94.2593C94.9235 141.636 95.467 142.18 95.467 142.874V157.215C95.467 157.608 95.165 157.909 94.7726 157.909H92.9913C92.5988 157.909 92.2969 157.608 92.2969 157.215V138.345H106.094C107.513 138.496 108.6 139.644 108.6 141.032Z" fill="white"/>
<path d="M112.617 157.788C111.651 157.577 110.926 156.822 110.685 155.856C110.654 155.645 110.624 155.434 110.624 155.252V141.093C110.624 139.704 111.711 138.557 113.1 138.466C114.7 138.375 116.27 138.375 117.84 138.466C119.229 138.526 120.316 139.674 120.316 141.093V155.252C120.316 156.671 119.199 157.788 117.84 157.879C116.3 157.97 114.7 157.97 113.1 157.879C112.919 157.849 112.768 157.819 112.617 157.788ZM116.33 154.528C116.632 154.407 116.844 154.196 116.995 153.864C117.055 153.713 117.115 153.531 117.115 153.35V142.934C117.115 142.753 117.085 142.602 116.995 142.421C116.874 142.119 116.632 141.878 116.33 141.757C116.179 141.696 116.029 141.666 115.878 141.636H112.707C113.372 141.696 113.855 142.24 113.855 142.904V153.32C113.855 153.652 113.976 153.954 114.217 154.196C114.7 154.679 115.364 154.618 115.908 154.588C116.029 154.618 116.179 154.588 116.33 154.528Z" fill="white"/>
<path d="M138.607 141.032V157.275C138.607 157.668 138.305 157.97 137.913 157.97H136.011C135.618 157.97 135.316 157.668 135.316 157.275V142.331C135.316 141.938 135.014 141.636 134.622 141.636H130.818C131.512 141.667 132.056 142.21 132.056 142.904V157.245C132.056 157.638 131.754 157.94 131.361 157.94H129.52C129.127 157.94 128.825 157.638 128.825 157.245V142.301C128.825 141.908 128.523 141.606 128.131 141.606H124.327C124.991 141.636 125.534 142.18 125.534 142.874V157.215C125.534 157.608 125.232 157.909 124.84 157.909H122.938C122.545 157.909 122.243 157.608 122.243 157.215V138.345H136.041C137.52 138.496 138.607 139.644 138.607 141.032Z" fill="white"/>
</svg>
