<svg width="28" height="28" viewBox="0 0 28 28" fill="none" xmlns="http://www.w3.org/2000/svg">
<circle cx="14" cy="14" r="14" fill="#1C7FAC"/>
<g clip-path="url(#clip0)">
<path d="M18.14 17.2753C18.1569 17.2499 18.1738 17.233 18.1906 17.2161L18.8399 16.6234C18.6459 16.6064 18.452 16.5726 18.2581 16.5218L17.8787 16.4202L18.14 17.2753Z" fill="white"/>
<path d="M5.65258 16.5642L7.45696 16.0307C7.4654 16.0307 7.47383 16.0223 7.48226 16.0223L7.70992 15.9715C7.76894 15.963 7.80266 15.9122 7.80266 15.8529V15.6751C7.7858 15.6667 7.76894 15.6582 7.75207 15.6497C7.75207 15.6497 7.74364 15.6497 7.74364 15.6413C7.00165 15.2772 6.43673 14.6421 6.18378 13.8547C6.17535 13.8378 6.16691 13.8124 6.16691 13.7954H5.93926C5.5261 13.7954 5.18884 13.4568 5.18884 13.0419V12.5677C5.18884 12.5423 5.18884 12.5254 5.18884 12.5C5.18884 12.4915 5.18884 12.4915 5.18884 12.4831C5.18884 12.4577 5.19727 12.4407 5.19727 12.4153C5.2057 12.3984 5.2057 12.373 5.21413 12.356C5.21413 12.3476 5.21413 12.3476 5.22256 12.3391C5.231 12.3222 5.23943 12.2968 5.24786 12.2798V12.2714C5.25629 12.2544 5.26472 12.2375 5.27315 12.2206C5.27315 12.2121 5.28159 12.2121 5.28159 12.2036C5.29002 12.1867 5.30688 12.1698 5.31531 12.1528C5.31531 12.1528 5.31531 12.1444 5.32374 12.1444C5.33218 12.1274 5.34904 12.1105 5.35747 12.102L5.3659 12.0936C5.38277 12.0766 5.3912 12.0597 5.40806 12.0428L5.41649 12.0343C5.43336 12.0174 5.44179 12.0089 5.45865 12.0004L5.46708 11.992C5.48395 11.975 5.50081 11.9666 5.51767 11.9581L5.5261 11.9496C5.53454 11.9412 5.54297 11.9412 5.5514 11.9327C5.5514 11.8819 5.5514 11.8311 5.5514 11.7803C5.5514 11.7634 5.5514 11.7464 5.5514 11.721C5.5514 11.6872 5.55983 11.6533 5.55983 11.6279C5.55983 11.6025 5.55983 11.5771 5.56826 11.5517C5.56826 11.5432 5.56826 11.5347 5.56826 11.5263C5.69474 10.5441 6.20064 9.68894 6.94263 9.12165C6.94263 9.12165 6.95106 9.12165 6.95106 9.11318C6.96793 9.09624 6.99322 9.08778 7.01008 9.07084C7.03538 9.05391 7.06067 9.03698 7.07754 9.02004C7.0944 9.01157 7.11126 8.99464 7.12813 8.98617C7.16186 8.96077 7.19558 8.94384 7.22931 8.91844C7.23774 8.91844 7.24617 8.90997 7.24617 8.90997C7.28833 8.88457 7.33892 8.85917 7.38108 8.83377C7.38951 8.83377 7.39794 8.8253 7.40637 8.8253C7.45696 8.79143 7.49069 8.7745 7.53285 8.75756C7.54128 8.7491 7.54971 8.74063 7.56658 8.74063C7.57501 8.73216 7.59187 8.73216 7.6003 8.7237C7.6003 8.69829 7.6003 8.68136 7.6003 8.65596C7.6003 8.63056 7.6003 8.60516 7.6003 8.57129C6.7487 8.97771 5.74533 9.83288 4.99491 11.6279C4.23605 13.4483 4.04213 15.0147 3.99997 15.7852C3.99153 15.9545 4.10115 16.1154 4.26135 16.1662L5.58513 16.5896C5.60199 16.5811 5.62729 16.5726 5.65258 16.5642Z" fill="white"/>
<path d="M21.2683 17.5209L20.8467 16.7673L20.0288 19.4429L21.2683 17.5209Z" fill="white"/>
<path d="M7.50763 9.48578C7.4992 9.49425 7.49077 9.49425 7.48234 9.50272C7.44861 9.51965 7.42332 9.54505 7.39802 9.56199C7.37273 9.57892 7.34743 9.59586 7.33057 9.61279C7.3137 9.62126 7.30527 9.62972 7.28841 9.63819C7.27155 9.66359 7.24625 9.68053 7.22095 9.69746C7.21252 9.69746 7.21252 9.70593 7.20409 9.70593C6.6476 10.1801 6.2766 10.8659 6.19229 11.6025C6.19229 11.6195 6.19229 11.6279 6.18386 11.6449C6.18386 11.6618 6.18386 11.6872 6.17542 11.7041C6.17542 11.7295 6.17542 11.7549 6.16699 11.7803C6.16699 11.7888 6.16699 11.7973 6.16699 11.8057H6.33563H6.39465L6.61387 11.0183C6.68133 10.7728 6.86682 10.5865 7.10291 10.5103C7.11977 10.5018 7.13664 10.4934 7.1535 10.4934C7.16193 10.4934 7.16193 10.4934 7.17036 10.4934C7.1788 10.4934 7.19566 10.4849 7.20409 10.4849C7.21252 10.4849 7.21252 10.4849 7.22095 10.4849C7.22939 10.4849 7.24625 10.4849 7.25468 10.4849C7.26311 10.4849 7.26311 10.4849 7.27155 10.4849C7.27998 10.4849 7.29684 10.4849 7.30527 10.4849H7.3137C7.33057 10.4849 7.34743 10.4849 7.37273 10.4849C7.38116 10.4849 7.38116 10.4849 7.38959 10.4849C7.40645 10.4849 7.41488 10.4849 7.43175 10.4934C7.44018 10.4934 7.44018 10.4934 7.44861 10.4934C7.46547 10.4934 7.48234 10.5018 7.50763 10.5018C7.5245 10.5103 7.54136 10.5103 7.55822 10.5188C7.56665 10.5188 7.56665 10.5188 7.57509 10.5272C7.60038 10.5272 7.61724 10.5357 7.62568 10.5357C7.62568 10.5357 7.63411 10.5357 7.63411 10.5442C7.65097 10.5526 7.66783 10.5611 7.6847 10.5696L7.69313 10.578C7.70999 10.5865 7.71843 10.595 7.73529 10.6034C7.74372 10.6034 7.74372 10.6119 7.75215 10.6119C7.76902 10.6204 7.78588 10.6373 7.80274 10.6458C8.31708 11.0861 9.32888 11.8227 10.2817 11.8227H11.8078H11.9764C11.9764 11.8142 11.9764 11.8057 11.9764 11.7973C11.9764 11.7719 11.9764 11.7465 11.968 11.7211C11.968 11.7041 11.968 11.6787 11.9596 11.6618C11.9596 11.6449 11.9596 11.6364 11.9511 11.6195C11.8668 10.8744 11.4958 10.197 10.9393 9.72286C10.9309 9.72286 10.9309 9.71439 10.9225 9.71439C10.9056 9.68053 10.8803 9.66359 10.8635 9.63819C10.8466 9.62972 10.8382 9.62126 10.8213 9.61279C10.8044 9.59586 10.7791 9.57892 10.7538 9.56199C10.7285 9.54505 10.7032 9.51965 10.6695 9.50272C10.6611 9.49425 10.6527 9.49425 10.6442 9.48578C10.6189 9.46885 10.5852 9.45192 10.5599 9.43498C10.5515 9.42651 10.543 9.42651 10.5346 9.41805C10.5009 9.40111 10.4756 9.38418 10.4419 9.36725C10.4334 9.36725 10.4334 9.35878 10.425 9.35878C10.3491 9.31644 10.2648 9.27411 10.1889 9.24871C10.1805 9.24871 10.172 9.24024 10.1636 9.24024C10.1383 9.23177 10.1046 9.21484 10.0793 9.20637C10.054 9.18944 10.0371 9.18944 10.0203 9.18097C9.99498 9.1725 9.96969 9.16404 9.95283 9.15557C9.92753 9.1471 9.91067 9.1471 9.88537 9.13864C9.86851 9.13017 9.84321 9.1217 9.81792 9.1217C9.80106 9.11323 9.77576 9.10477 9.7589 9.10477C9.7336 9.0963 9.70831 9.0963 9.68301 9.08783C9.66615 9.07937 9.64085 9.07937 9.62399 9.0709C9.59869 9.0709 9.5734 9.06243 9.5481 9.06243C9.53124 9.06243 9.50595 9.05397 9.48908 9.05397C9.46379 9.05397 9.43849 9.0455 9.40477 9.0455C9.3879 9.0455 9.37104 9.03703 9.35418 9.03703C9.32045 9.03703 9.29515 9.02856 9.26143 9.02856C9.24456 9.02856 9.2277 9.02856 9.21927 9.02856C9.17711 9.02856 9.12652 9.02856 9.07593 9.02856C9.02534 9.02856 8.98318 9.02856 8.93259 9.02856C8.91573 9.02856 8.89886 9.02856 8.89043 9.02856C8.8567 9.02856 8.83141 9.02856 8.79768 9.03703C8.78082 9.03703 8.76396 9.03703 8.74709 9.0455C8.7218 9.0455 8.68807 9.05397 8.66278 9.05397C8.64591 9.05397 8.62062 9.06243 8.60375 9.06243C8.57846 9.06243 8.55316 9.0709 8.52787 9.07937C8.511 9.07937 8.48571 9.08783 8.46885 9.08783C8.44355 9.0963 8.41826 9.0963 8.39296 9.10477C8.3761 9.10477 8.35923 9.11323 8.33394 9.1217C8.30864 9.1217 8.29178 9.13017 8.26649 9.13864C8.24119 9.1471 8.22433 9.1471 8.20746 9.15557C8.18217 9.16404 8.15687 9.1725 8.13158 9.18097C8.11472 9.18944 8.09785 9.18944 8.08099 9.19791C8.04726 9.21484 8.02197 9.22331 7.99667 9.23177C7.98824 9.23177 7.97981 9.24024 7.97138 9.24024C7.88706 9.27411 7.81117 9.30798 7.73529 9.35031C7.72686 9.35031 7.72686 9.35878 7.71843 9.35878C7.6847 9.38418 7.65097 9.40111 7.61724 9.41805C7.60881 9.42651 7.60038 9.42651 7.59195 9.43498C7.56665 9.45192 7.54136 9.46885 7.50763 9.48578Z" fill="white"/>
<path d="M19.0086 18.3423L18.8315 19.5785L19.0845 20.4167L19.2025 20.0357L19.3374 19.5785L19.1688 18.3423H19.0086Z" fill="white"/>
<path d="M19.0844 17.2332L18.7893 17.5041L18.9158 17.7158H19.2615L19.3795 17.5041L19.0844 17.2332Z" fill="white"/>
<path d="M12.398 17.1907C12.3895 17.1907 12.3895 17.1907 12.398 17.1907C12.3642 17.1823 12.3474 17.1738 12.3221 17.1653L10.5261 16.6319L10.2563 16.5811C10.231 16.5726 10.2141 16.5726 10.1973 16.5642C10.1889 16.5642 10.1804 16.5557 10.1804 16.5557C10.1636 16.5557 10.1551 16.5472 10.1383 16.5472C10.1298 16.5472 10.1214 16.5388 10.113 16.5388C10.1045 16.5303 10.0877 16.5303 10.0792 16.5218C10.0708 16.5218 10.0624 16.5134 10.0539 16.5134C10.0455 16.5049 10.0371 16.5049 10.0202 16.4964C10.0118 16.488 10.0034 16.488 9.99492 16.4795C9.98649 16.471 9.97806 16.471 9.96963 16.4626C9.9612 16.4541 9.95276 16.4541 9.94433 16.4456C9.9359 16.4372 9.92747 16.4287 9.91904 16.4202C9.91904 16.4118 9.91061 16.4033 9.90217 16.4033C9.90217 16.3948 9.89374 16.3864 9.88531 16.3779C9.87688 16.3694 9.86845 16.361 9.86845 16.361C9.86001 16.3525 9.85158 16.344 9.84315 16.3355C9.83472 16.3271 9.83472 16.3186 9.82629 16.3101C9.81786 16.3017 9.80942 16.2932 9.80942 16.2847C9.80099 16.2763 9.80099 16.2678 9.79256 16.2593C9.78413 16.2509 9.78413 16.2424 9.7757 16.2339C9.76727 16.2255 9.76727 16.217 9.75883 16.2085C9.7504 16.2001 9.7504 16.1916 9.74197 16.1831C9.74197 16.1747 9.73354 16.1662 9.73354 16.1577C9.72511 16.1493 9.72511 16.1408 9.71668 16.1239C9.71668 16.1154 9.70824 16.1069 9.70824 16.0985C9.70824 16.09 9.69981 16.0731 9.69981 16.0646C9.69981 16.0561 9.69138 16.0477 9.69138 16.0392C9.69138 16.0307 9.68295 16.0138 9.68295 16.0053C9.68295 15.9969 9.68295 15.9884 9.67452 15.9799C9.67452 15.9715 9.67452 15.9545 9.66609 15.9461C9.66609 15.9376 9.66609 15.9291 9.66609 15.9207V15.9122C9.65765 15.9122 9.64079 15.9122 9.63236 15.9207C9.59863 15.9291 9.55647 15.9376 9.52275 15.9376C9.50588 15.9376 9.48902 15.9376 9.47216 15.9461C9.43843 15.9545 9.4047 15.9545 9.37098 15.9545C9.35411 15.9545 9.33725 15.9545 9.32039 15.9545C9.28666 15.9545 9.25293 15.963 9.21921 15.963C9.20234 15.963 9.18548 15.963 9.16018 15.963C9.13489 15.963 9.10116 15.963 9.07587 15.963C9.06743 15.963 9.06743 15.963 9.059 15.963C9.04214 15.963 9.01684 15.963 8.99998 15.963C8.96625 15.963 8.93253 15.963 8.90723 15.963C8.89037 15.963 8.86507 15.963 8.84821 15.9545C8.81448 15.9545 8.78919 15.9461 8.75546 15.9461C8.73017 15.9461 8.70487 15.9376 8.68801 15.9376C8.66271 15.9376 8.63742 15.9291 8.60369 15.9291C8.5784 15.9207 8.5531 15.9207 8.51937 15.9122C8.49408 15.9037 8.47722 15.9037 8.45192 15.8953C8.44349 15.8953 8.44349 15.8953 8.43506 15.8953C8.43506 15.9037 8.43506 15.9037 8.43506 15.9122C8.43506 15.9207 8.43506 15.9291 8.43506 15.9461C8.43506 15.9545 8.43506 15.9715 8.42663 15.9799C8.42663 15.9884 8.42663 15.9969 8.41819 16.0138C8.41819 16.0223 8.40976 16.0392 8.40976 16.0477C8.40976 16.0561 8.40133 16.0646 8.40133 16.0731C8.40133 16.0815 8.3929 16.09 8.3929 16.1069C8.3929 16.1154 8.38447 16.1239 8.38447 16.1323C8.38447 16.1408 8.37604 16.1493 8.37604 16.1577C8.37604 16.1662 8.3676 16.1747 8.3676 16.1831C8.35917 16.1916 8.35917 16.2001 8.35074 16.2085C8.34231 16.217 8.34231 16.2255 8.33388 16.2339C8.32545 16.2424 8.32545 16.2509 8.31701 16.2593C8.30858 16.2678 8.30858 16.2763 8.30015 16.2847C8.29172 16.2932 8.28329 16.3017 8.28329 16.3101C8.27485 16.3186 8.27485 16.3271 8.26642 16.3355C8.25799 16.344 8.24956 16.3525 8.24113 16.361C8.2327 16.3694 8.22426 16.3779 8.22426 16.3864C8.21583 16.3948 8.2074 16.4033 8.19897 16.4033C8.19054 16.4118 8.18211 16.4202 8.17367 16.4202C8.16524 16.4287 8.15681 16.4372 8.14838 16.4372C8.13995 16.4541 8.13995 16.4626 8.13152 16.4626C8.12308 16.471 8.11465 16.471 8.10622 16.4795C8.09779 16.488 8.08936 16.488 8.08093 16.4964C8.07249 16.5049 8.06406 16.5049 8.0472 16.5134C8.03877 16.5218 8.03034 16.5218 8.0219 16.5303C8.01347 16.5388 7.99661 16.5388 7.98818 16.5472C7.97975 16.5472 7.97131 16.5557 7.96288 16.5557C7.94602 16.5642 7.93759 16.5642 7.92072 16.5726C7.91229 16.5726 7.90386 16.5811 7.90386 16.5811C7.887 16.5896 7.8617 16.5896 7.84484 16.598L7.62561 16.6319L5.82966 17.1653C5.8128 17.1653 5.80437 17.1738 5.7875 17.1823C5.77907 17.1823 5.77064 17.1907 5.76221 17.1907C5.75378 17.1907 5.75378 17.1907 5.74534 17.1992C5.06238 17.4363 4.59863 18.0882 4.59863 18.8164V21.5682C4.59863 21.8052 4.79256 22 5.02865 22C5.26474 22 5.45867 21.8052 5.45867 21.5682V21.0771C5.45867 20.9077 5.59357 20.7553 5.76221 20.7553C5.93927 20.7469 6.08261 20.8908 6.08261 21.0686V21.5766C6.08261 21.8137 6.27654 22.0085 6.51263 22.0085H11.6391C11.8752 22.0085 12.0691 21.8137 12.0691 21.5766V19.0535C12.0691 19.0281 12.0607 19.0111 12.0523 18.9857C11.7656 18.6047 11.3356 18.3846 10.8634 18.3846C10.4249 18.3846 10.0034 18.5793 9.72511 18.918C9.56491 19.1127 9.32882 19.2228 9.0843 19.2228C8.83978 19.2228 8.60369 19.1127 8.44349 18.918C8.15681 18.5793 7.74366 18.3846 7.30521 18.3846C6.83303 18.3846 6.39459 18.6047 6.11634 18.9857C6.09948 19.0027 6.09948 19.0281 6.09948 19.0535V19.6038C6.09948 19.7732 5.96457 19.9256 5.79593 19.9256C5.61887 19.934 5.47553 19.7901 5.47553 19.6123V19.0535C5.47553 18.8926 5.52612 18.7402 5.61887 18.6132C6.01516 18.0798 6.64754 17.758 7.31364 17.758C7.93759 17.758 8.52781 18.0374 8.93253 18.52C8.99155 18.5878 9.059 18.5962 9.09273 18.5962C9.12646 18.5962 9.19391 18.5878 9.25293 18.52C9.65765 18.0374 10.2479 17.758 10.8718 17.758C11.5379 17.758 12.1703 18.0798 12.5666 18.6132C12.6593 18.7402 12.7099 18.8926 12.7099 19.0535V21.5766C12.7099 21.8137 12.9039 22.0085 13.1399 22.0085H13.57V18.8249C13.5447 18.0798 13.0809 17.4278 12.398 17.1907Z" fill="white"/>
<path d="M14 8.4951C14.6577 8.19875 17.4149 6.8525 17.4149 4.74421C17.4149 3.77897 16.6307 3 15.678 3C15.1383 3 14.6409 3.24554 14.3036 3.66889C14.2277 3.76203 14.1181 3.8213 14 3.8213C13.882 3.8213 13.7724 3.76203 13.6965 3.66889C13.3677 3.24554 12.8618 3 12.3221 3C11.3694 3 10.5852 3.78743 10.5852 4.74421C10.5852 6.8525 13.3424 8.20722 14 8.4951Z" fill="white"/>
<path d="M10.5599 8.65596C10.5599 8.68136 10.5599 8.69829 10.5599 8.7237C10.5683 8.73216 10.5767 8.73216 10.5936 8.74063C10.602 8.74063 10.6104 8.7491 10.6189 8.75756C10.661 8.7745 10.7032 8.7999 10.7369 8.81683C10.7454 8.81683 10.7538 8.8253 10.7622 8.8253C10.8128 8.8507 10.855 8.8761 10.8971 8.9015C10.9056 8.9015 10.9056 8.90997 10.914 8.90997C10.9477 8.93537 10.9814 8.95231 11.0236 8.97771C11.0405 8.99464 11.0573 9.01157 11.0742 9.02004C11.0995 9.03698 11.1248 9.05391 11.1416 9.07084C11.1585 9.08778 11.1838 9.09624 11.2007 9.11318L11.2091 9.12165C11.2765 9.17245 11.3356 9.22325 11.3946 9.27405C12.0354 9.84134 12.4738 10.6288 12.575 11.5263C12.575 11.5347 12.575 11.5432 12.575 11.5517C12.575 11.5771 12.5835 11.6025 12.5835 11.6279C12.5835 11.6618 12.5919 11.6956 12.5919 11.721C12.5919 11.738 12.5919 11.7549 12.5919 11.7803C12.5919 11.8311 12.5919 11.8819 12.5919 11.9327C12.6003 11.9412 12.6088 11.9412 12.6172 11.9496L12.6256 11.9581C12.6425 11.9666 12.6593 11.9835 12.6762 11.992L12.6846 12.0004C12.7015 12.0089 12.7099 12.0258 12.7268 12.0343L12.7352 12.0428C12.7521 12.0597 12.7605 12.0766 12.7774 12.0936L12.7858 12.102C12.7943 12.119 12.8111 12.1359 12.8195 12.1444C12.8195 12.1444 12.8195 12.1528 12.828 12.1528C12.8364 12.1698 12.8533 12.1867 12.8617 12.2036C12.8617 12.2121 12.8701 12.2121 12.8701 12.2206C12.8786 12.2375 12.887 12.2544 12.8954 12.2714C12.8954 12.2714 12.8954 12.2714 12.8954 12.2798C12.9039 12.2968 12.9123 12.3222 12.9207 12.3391C12.9207 12.3476 12.9207 12.3476 12.9292 12.356C12.9376 12.373 12.9376 12.3984 12.946 12.4153C12.9545 12.4407 12.9545 12.4577 12.9545 12.4831C12.9545 12.4915 12.9545 12.4915 12.9545 12.5C12.9545 12.5254 12.9545 12.5423 12.9545 12.5677V13.0503C12.9545 13.4652 12.6172 13.8039 12.204 13.8039H11.9848C11.7909 14.4389 11.3862 14.9893 10.8634 15.3703L10.855 15.3788C10.8212 15.4042 10.7791 15.4296 10.7369 15.455C10.7285 15.4634 10.7201 15.4634 10.7116 15.4719C10.6779 15.4973 10.6442 15.5142 10.6104 15.5312C10.5936 15.5396 10.5851 15.5481 10.5683 15.5566C10.5346 15.5735 10.5008 15.5905 10.4755 15.6074C10.4587 15.6159 10.4418 15.6243 10.4249 15.6328C10.3912 15.6497 10.3575 15.6667 10.3238 15.6751C10.3153 15.6921 10.2985 15.7005 10.29 15.709V15.8529C10.29 15.9122 10.3322 15.9545 10.3828 15.9715L10.6695 16.0307C10.6779 16.0307 10.6863 16.0307 10.6948 16.0392L12.4991 16.5726C12.5244 16.5811 12.5497 16.5896 12.575 16.598L13.8988 16.1747C14.059 16.1239 14.1686 15.963 14.1602 15.7937C14.118 15.0232 13.9241 13.4483 13.1652 11.6364C12.4064 9.83288 11.403 8.97771 10.5514 8.57129C10.5599 8.60516 10.5599 8.63056 10.5599 8.65596Z" fill="white"/>
<path d="M8.38444 8.46121C8.43503 8.45274 8.47719 8.44428 8.52778 8.43581H8.53621C8.59523 8.42734 8.64582 8.41887 8.69641 8.41887C8.70484 8.41887 8.71327 8.41887 8.73014 8.41887C8.78073 8.41041 8.83132 8.41041 8.88191 8.41041C8.89034 8.41041 8.89877 8.41041 8.9072 8.41041C8.95779 8.41041 9.01681 8.41041 9.0674 8.41041C9.118 8.41041 9.17702 8.41041 9.22761 8.41041C9.23604 8.41041 9.24447 8.41041 9.2529 8.41041C9.30349 8.41041 9.35408 8.41887 9.40467 8.41887C9.4131 8.41887 9.42154 8.41887 9.4384 8.41887C9.50585 8.41887 9.55644 8.42734 9.60703 8.43581H9.61547C9.66606 8.44428 9.70821 8.45274 9.7588 8.46121C9.76724 8.46121 9.77567 8.46121 9.79253 8.46968C9.83469 8.47814 9.87685 8.48661 9.91058 8.49508C9.91058 8.49508 9.91058 8.49508 9.91058 8.48661C9.91058 8.46968 9.91058 8.45274 9.90214 8.42734C9.90214 8.41887 9.90214 8.41887 9.90214 8.41041C9.89371 8.39347 9.88528 8.37654 9.87685 8.35961C9.87685 8.35114 9.86842 8.35114 9.86842 8.34267C9.86842 8.32574 9.85999 8.3088 9.85155 8.29187C9.85155 8.2834 9.85155 8.2834 9.84312 8.27493C9.70821 7.99552 9.4131 7.80078 9.07584 7.80078C8.73857 7.80078 8.44346 7.99552 8.30855 8.2834C8.30855 8.29187 8.30855 8.29187 8.30012 8.30034C8.29169 8.3088 8.28326 8.32574 8.28326 8.34267C8.28326 8.35114 8.27482 8.35114 8.27482 8.35961C8.26639 8.37654 8.25796 8.39347 8.25796 8.41887C8.25796 8.42734 8.25796 8.42734 8.25796 8.42734C8.2411 8.45274 8.2411 8.46968 8.23267 8.49508C8.23267 8.49508 8.23267 8.49508 8.23267 8.50354C8.27482 8.49508 8.31698 8.48661 8.35071 8.47814C8.36757 8.46968 8.376 8.46968 8.38444 8.46121Z" fill="white"/>
<path d="M12.339 13.0588V12.5677C12.339 12.4999 12.28 12.4407 12.2125 12.4407H12.1282H12.1198V12.8979C12.1198 12.9487 12.1198 12.991 12.1198 13.0418C12.1198 13.0672 12.1198 13.0926 12.1113 13.118C12.1113 13.135 12.1113 13.1519 12.1113 13.1773H12.2209C12.28 13.1858 12.339 13.1265 12.339 13.0588Z" fill="white"/>
<path d="M10.0118 12.4323C9.40474 12.373 8.51098 12.0682 7.398 11.1284C7.35584 11.0945 7.31368 11.103 7.29682 11.103C7.27152 11.1115 7.22936 11.1284 7.22093 11.1792L6.99327 12.0428C6.99327 12.0598 6.98484 12.0767 6.97641 12.0852C6.96798 12.1021 6.95955 12.119 6.95112 12.136C6.95112 12.1444 6.94268 12.1444 6.94268 12.1529C6.93425 12.1614 6.92582 12.1783 6.92582 12.1868L6.91739 12.1952C6.90053 12.2206 6.87523 12.246 6.84994 12.2714L6.8415 12.2799C6.82464 12.2968 6.81621 12.3053 6.80778 12.3138L6.79934 12.3222C6.78248 12.3307 6.77405 12.3392 6.75719 12.3476C6.74032 12.3561 6.73189 12.3646 6.71503 12.373C6.7066 12.373 6.7066 12.3815 6.69816 12.3815C6.68973 12.39 6.67287 12.39 6.66444 12.3984H6.65601V12.898C6.65601 12.9403 6.65601 12.9827 6.65601 13.025V13.0335C6.65601 13.0758 6.66444 13.1181 6.66444 13.152C6.66444 13.152 6.66444 13.152 6.66444 13.1605C6.67287 13.2028 6.67287 13.2451 6.6813 13.2875V13.296C6.68973 13.3383 6.69816 13.3722 6.7066 13.4145C6.71503 13.4314 6.71503 13.4568 6.72346 13.4738C6.73189 13.4992 6.73189 13.5161 6.74032 13.5415C6.74875 13.5584 6.74875 13.5754 6.75719 13.5923C6.76562 13.6092 6.76562 13.6262 6.77405 13.6431C6.77405 13.6516 6.78248 13.66 6.78248 13.66C6.79934 13.7024 6.80778 13.7362 6.82464 13.7786V13.787C7.00171 14.2273 7.29682 14.6083 7.68467 14.8793C7.69311 14.8793 7.69311 14.8878 7.70154 14.8878C7.7184 14.8962 7.73526 14.9047 7.7437 14.9216C7.76056 14.9386 7.78585 14.947 7.80272 14.9555C7.81115 14.964 7.81958 14.964 7.82801 14.9724C7.85331 14.9894 7.88703 15.0063 7.92076 15.0232C7.92919 15.0232 7.92919 15.0317 7.93762 15.0317C8.07253 15.1079 8.21587 15.1672 8.35921 15.2095C8.36764 15.2095 8.36764 15.2095 8.37607 15.218C8.4098 15.2264 8.4351 15.2349 8.46882 15.2434C8.47725 15.2434 8.48569 15.2518 8.50255 15.2518C8.52784 15.2603 8.55314 15.2688 8.58687 15.2688C8.5953 15.2688 8.61216 15.2772 8.62059 15.2772C8.64589 15.2857 8.67118 15.2857 8.69648 15.2942C8.71334 15.2942 8.72177 15.2942 8.73864 15.3026C8.76393 15.3026 8.78923 15.3111 8.81452 15.3111C8.83139 15.3111 8.83982 15.3111 8.85668 15.3196C8.88198 15.3196 8.90727 15.328 8.941 15.328C8.94943 15.328 8.96629 15.328 8.97472 15.328C9.01688 15.328 9.05061 15.328 9.09277 15.328C9.13493 15.328 9.16865 15.328 9.21081 15.328C9.22768 15.328 9.23611 15.328 9.25297 15.328C9.27827 15.328 9.30356 15.328 9.32886 15.3196C9.34572 15.3196 9.36258 15.3196 9.37101 15.3111C9.39631 15.3111 9.41317 15.3026 9.43847 15.3026C9.45533 15.3026 9.4722 15.2942 9.48906 15.2942C9.50592 15.2942 9.53122 15.2857 9.54808 15.2857C9.56494 15.2857 9.58181 15.2772 9.59867 15.2772C9.61553 15.2688 9.64083 15.2688 9.65769 15.2603C9.69142 15.2518 9.71671 15.2434 9.75044 15.2349C9.7673 15.2264 9.78417 15.2264 9.80103 15.218C9.81789 15.2095 9.83476 15.2095 9.85162 15.201C9.86848 15.1926 9.89378 15.1926 9.91064 15.1841C9.91908 15.1841 9.93594 15.1756 9.94437 15.1756C9.96967 15.1672 10.0034 15.1502 10.0287 15.1418C10.0287 15.1418 10.0371 15.1418 10.0371 15.1333C10.0708 15.1164 10.0961 15.1079 10.1299 15.091C10.1383 15.0825 10.1467 15.0825 10.1552 15.074C10.1805 15.0571 10.2058 15.0486 10.231 15.0317C10.2395 15.0232 10.2479 15.0232 10.2563 15.0148C10.2816 15.0063 10.2985 14.9894 10.3238 14.9724C10.3322 14.964 10.3491 14.9555 10.3575 14.947C10.3744 14.9386 10.3913 14.9301 10.4081 14.9132C10.4334 14.8962 10.4587 14.8793 10.4756 14.8624C10.484 14.8539 10.4924 14.8454 10.5009 14.8454C10.5177 14.8285 10.5346 14.82 10.5515 14.8031L10.5599 14.7946C10.8381 14.5745 11.0658 14.2951 11.2344 13.9818C11.2344 13.9818 11.2344 13.9818 11.2344 13.9733C11.2681 13.914 11.2934 13.8463 11.3272 13.7786C11.3356 13.7701 11.3356 13.7532 11.344 13.7447C11.3525 13.7193 11.3609 13.6939 11.3693 13.6685C11.3778 13.6516 11.3778 13.6346 11.3862 13.6177C11.3946 13.6008 11.3946 13.5838 11.4031 13.5669C11.4115 13.55 11.4115 13.533 11.4199 13.5161C11.4284 13.4907 11.4368 13.4653 11.4368 13.4399C11.4368 13.423 11.4452 13.406 11.4452 13.3891C11.4536 13.3468 11.4621 13.3129 11.4705 13.2706C11.4705 13.2706 11.4705 13.2706 11.4705 13.2621C11.4789 13.2197 11.4789 13.1774 11.4874 13.1351C11.4958 13.0927 11.4958 13.0504 11.4958 13.0081V12.9996C11.4958 12.9573 11.4958 12.9149 11.4958 12.8726V12.4154H10.5009C10.543 12.4662 10.5683 12.5339 10.5683 12.6017V12.9488C10.5683 13.1181 10.425 13.2621 10.2563 13.2621C10.0877 13.2621 9.94437 13.1181 9.94437 12.9488V12.6017C9.94437 12.5593 9.96967 12.4831 10.0118 12.4323ZM7.9039 13.296C7.73526 13.296 7.59193 13.152 7.59193 12.9827V12.6355C7.59193 12.4662 7.73526 12.3222 7.9039 12.3222C8.07253 12.3222 8.21587 12.4662 8.21587 12.6355V12.9827C8.20744 13.1605 8.07253 13.296 7.9039 13.296ZM9.9781 14.5067C9.7926 14.7692 9.45533 14.9301 9.0759 14.9301C8.70491 14.9301 8.36764 14.7692 8.17371 14.5067C8.07253 14.3628 8.10626 14.1681 8.24117 14.0665C8.38451 13.9648 8.57843 13.9987 8.67962 14.1342C8.73864 14.2189 8.88198 14.2951 9.0759 14.2951C9.26983 14.2951 9.41317 14.2104 9.47219 14.1342C9.57338 13.9902 9.7673 13.9648 9.91064 14.0665C10.0456 14.1681 10.0793 14.3628 9.9781 14.5067Z" fill="white"/>
<path d="M6.02378 12.4492H5.93946C5.87201 12.4492 5.81299 12.5085 5.81299 12.5762V13.0588C5.81299 13.1266 5.87201 13.1858 5.93946 13.1858H6.04908C6.04908 13.1689 6.04908 13.1435 6.04908 13.1266C6.04908 13.1012 6.04908 13.0758 6.04064 13.0504C6.04064 12.9996 6.04064 12.9488 6.04064 12.9064V12.4492H6.02378Z" fill="white"/>
<path d="M17.3305 16.7673L16.9089 17.5209L18.14 19.4429L17.3305 16.7673Z" fill="white"/>
<path d="M19.7588 15.9206L19.8853 15.8867C19.8178 15.7766 19.7672 15.6496 19.7588 15.5142C19.7504 15.5142 19.7335 15.5226 19.7251 15.5226C19.7166 15.5226 19.7166 15.5226 19.7082 15.5226C19.6661 15.5311 19.6155 15.5396 19.5733 15.548C19.5649 15.548 19.5564 15.548 19.548 15.548C19.5059 15.5565 19.4553 15.565 19.4131 15.565C19.4047 15.565 19.3962 15.565 19.3962 15.565C19.3541 15.565 19.3119 15.5734 19.2698 15.5734C19.2613 15.5734 19.2529 15.5734 19.236 15.5734C19.1939 15.5734 19.1517 15.5734 19.1096 15.5734C19.1011 15.5734 19.0927 15.5734 19.0843 15.5734C19.0758 15.5734 19.0758 15.5734 19.0674 15.5734C19.0252 15.5734 18.9831 15.5734 18.9409 15.5734C18.9241 15.5734 18.9156 15.5734 18.8988 15.5734C18.8566 15.5734 18.8145 15.565 18.7807 15.565C18.7639 15.565 18.7554 15.565 18.7386 15.5565C18.6964 15.548 18.6543 15.548 18.6121 15.5396C18.6037 15.5396 18.5952 15.5396 18.5868 15.5311C18.5446 15.5226 18.5109 15.5142 18.4688 15.5142C18.4603 15.5142 18.4519 15.5142 18.4435 15.5057C18.4097 15.4972 18.3844 15.4888 18.3507 15.4888C18.3423 15.6242 18.3001 15.7512 18.2327 15.8613L18.4013 15.9037C18.8566 16.0307 19.3204 16.0307 19.7588 15.9206Z" fill="white"/>
<path d="M22.6424 16.8606L21.4114 16.4965L21.8751 17.3178C21.9594 17.4617 21.951 17.6396 21.8498 17.775L19.3541 21.6614C19.3541 21.6614 19.3541 21.6699 19.3456 21.6699C19.3456 21.6699 19.3456 21.6699 19.3456 21.6783C19.3456 21.6868 19.3372 21.6868 19.3372 21.6953C19.3372 21.6953 19.3372 21.6953 19.3288 21.7037C19.3203 21.7122 19.3119 21.7207 19.3119 21.7207L19.3035 21.7291C19.295 21.7376 19.2866 21.7376 19.2866 21.7461C19.2782 21.7545 19.2697 21.7545 19.2613 21.763C19.2613 21.763 19.2613 21.763 19.2529 21.763C19.2529 21.763 19.2529 21.763 19.2444 21.763C19.2444 21.763 19.236 21.763 19.236 21.7715H19.2276C19.2191 21.7715 19.2191 21.7715 19.2107 21.7799H19.2023C19.1938 21.7799 19.1938 21.7799 19.1854 21.7799C19.177 21.7799 19.177 21.7799 19.1686 21.7799C19.1601 21.7799 19.1601 21.7799 19.1517 21.7799H19.1433H19.1348C19.1264 21.7799 19.1095 21.7799 19.1011 21.7799C19.0927 21.7799 19.0758 21.7799 19.0674 21.7799H19.0589H19.0505C19.0421 21.7799 19.0421 21.7799 19.0336 21.7799C19.0252 21.7799 19.0252 21.7799 19.0168 21.7799C19.0084 21.7799 19.0084 21.7799 18.9999 21.7799H18.9915C18.9831 21.7799 18.9831 21.7799 18.9746 21.7715H18.9662C18.9662 21.7715 18.9578 21.7715 18.9578 21.763C18.9578 21.763 18.9578 21.763 18.9493 21.763C18.9493 21.763 18.9493 21.763 18.9409 21.763C18.9325 21.7545 18.924 21.7545 18.9156 21.7461C18.9156 21.7461 18.9156 21.7461 18.9072 21.7461C18.8987 21.7376 18.8903 21.7376 18.8903 21.7291L18.8819 21.7207L18.8734 21.7122C18.8734 21.7122 18.865 21.7037 18.865 21.6953C18.865 21.6953 18.865 21.6953 18.8566 21.6868C18.8481 21.6783 18.8481 21.6783 18.8481 21.6699C18.8481 21.6699 18.8481 21.6699 18.8481 21.6614C18.8481 21.6614 18.8481 21.6529 18.8397 21.6529L16.3439 17.7666C16.2512 17.6311 16.2428 17.4533 16.3186 17.3093L16.7824 16.488L15.5514 16.8521C14.7503 17.0892 14.1938 17.8428 14.1938 18.681V18.808V21.5598C14.1938 21.7969 14.3878 21.9916 14.6239 21.9916H14.919C15.1551 21.9916 15.349 21.7969 15.349 21.5598V21.0687C15.349 20.8994 15.4839 20.7469 15.6525 20.7469C15.8296 20.7385 15.9729 20.8824 15.9729 21.0602V21.5598C15.9729 21.7969 16.1669 21.9916 16.403 21.9916H21.774C22.01 21.9916 22.204 21.7969 22.204 21.5598V19.0027C22.204 18.8334 22.3389 18.681 22.5075 18.681C22.6846 18.6725 22.8279 18.8165 22.8279 18.9943V21.5598C22.8279 21.7969 23.0218 21.9916 23.2579 21.9916H23.6036C23.8397 21.9916 24.0336 21.7969 24.0336 21.5598V18.681C23.9999 17.8512 23.4434 17.0977 22.6424 16.8606ZM15.9476 19.6039C15.9476 19.7732 15.8043 19.9172 15.6357 19.9172C15.467 19.9172 15.3237 19.7732 15.3237 19.6039V18.9943C15.3237 18.8249 15.467 18.681 15.6357 18.681C15.8043 18.681 15.9476 18.8249 15.9476 18.9943V19.6039Z" fill="white"/>
<path d="M18.258 14.8199C18.2748 14.8284 18.2833 14.8284 18.3001 14.8368C18.3254 14.8453 18.3507 14.8538 18.3676 14.8622C18.3844 14.8707 18.4013 14.8707 18.4182 14.8792C18.4435 14.8876 18.4603 14.8876 18.4856 14.8961C18.5025 14.9046 18.5194 14.9046 18.5362 14.9046C18.5615 14.913 18.5784 14.913 18.6037 14.9215C18.6205 14.9215 18.6458 14.93 18.6627 14.93C18.6796 14.93 18.7048 14.9384 18.7217 14.9384C18.747 14.9384 18.7639 14.9469 18.7892 14.9469C18.806 14.9469 18.8229 14.9554 18.8398 14.9554C18.8651 14.9554 18.8903 14.9638 18.9241 14.9638C18.9409 14.9638 18.9494 14.9638 18.9662 14.9638C19.0084 14.9638 19.0505 14.9638 19.0927 14.9638C19.1349 14.9638 19.177 14.9638 19.2108 14.9638C19.2192 14.9638 19.236 14.9638 19.2445 14.9638C19.2698 14.9638 19.3035 14.9638 19.3288 14.9554C19.3457 14.9554 19.3541 14.9554 19.371 14.9469C19.3962 14.9469 19.4215 14.9384 19.4468 14.9384C19.4637 14.9384 19.4721 14.9384 19.489 14.93C19.5143 14.9215 19.5396 14.9215 19.5649 14.913C19.5817 14.913 19.5902 14.9046 19.607 14.9046C19.6323 14.8961 19.6661 14.8961 19.6914 14.8876C19.6998 14.8876 19.7167 14.8792 19.7251 14.8792C19.7588 14.8707 19.7841 14.8622 19.8178 14.8538C19.8263 14.8538 19.8347 14.8453 19.8431 14.8453C20.6947 14.5743 21.3524 13.8631 21.5463 12.9741C21.5548 12.9317 21.5632 12.8894 21.5716 12.8555V12.8471C21.5801 12.8047 21.5885 12.7624 21.5885 12.7201C21.5885 12.7201 21.5885 12.7201 21.5885 12.7116C21.5969 12.6693 21.5969 12.6269 21.5969 12.5846V12.5761C21.5969 12.5338 21.5969 12.483 21.5969 12.4407V11.6448C21.5969 11.6448 21.5969 11.6448 21.5969 11.6363C21.5969 11.6024 21.5969 11.5601 21.5969 11.5262V11.5008C21.5969 11.4669 21.5885 11.4246 21.5885 11.3907V11.3823C21.5632 11.3907 21.5463 11.3992 21.521 11.4077C21.4957 11.4161 21.4789 11.4246 21.4536 11.4331C21.4367 11.4415 21.4114 11.4415 21.3946 11.45C21.3693 11.4585 21.3355 11.4669 21.3102 11.4754C21.2849 11.4839 21.2512 11.4923 21.2175 11.4923C21.2006 11.5008 21.1753 11.5008 21.1585 11.5093C21.1247 11.5177 21.0995 11.5177 21.0657 11.5262C21.0489 11.5262 21.0236 11.5347 21.0067 11.5347C20.9898 11.5347 20.9645 11.5432 20.9477 11.5432C20.914 11.5516 20.8802 11.5516 20.8465 11.5601C20.8381 11.5601 20.8381 11.5601 20.8296 11.5601C20.7622 11.5686 20.6947 11.577 20.6273 11.577C20.5345 11.5855 20.4333 11.5855 20.3406 11.5855C20.1382 11.5855 19.9443 11.5686 19.7504 11.5347C19.3204 11.4669 18.9156 11.3399 18.5194 11.2129C18.4266 11.1875 18.3339 11.1537 18.2495 11.1283C17.7858 10.9843 17.3389 10.8743 16.9173 10.8997C16.9089 10.8997 16.9005 10.8997 16.892 10.8997C16.8667 10.8997 16.833 10.9081 16.8077 10.9081C16.7824 10.9081 16.7656 10.9166 16.7403 10.9166C16.7234 10.9166 16.715 10.9166 16.6981 10.9251V10.9335C16.6897 10.9505 16.6897 10.9759 16.6812 11.0013C16.6812 11.0182 16.6728 11.0351 16.6728 11.0436V11.0521C16.6475 11.069 16.6391 11.0944 16.6391 11.1113C16.6391 11.1283 16.6307 11.1452 16.6307 11.1621C16.6222 11.1875 16.6222 11.2045 16.6222 11.2299C16.6222 11.2468 16.6138 11.2637 16.6138 11.2807C16.6138 11.3061 16.6054 11.3315 16.6054 11.3484V11.3653C16.6054 11.3738 16.6054 11.3907 16.6054 11.3992C16.6054 11.4246 16.5969 11.45 16.5969 11.4754V11.4923C16.5969 11.4923 16.5969 11.4923 16.5969 11.5008C16.5969 11.5093 16.5969 11.5177 16.5969 11.5262C16.5969 11.5347 16.5969 11.5516 16.5969 11.5601C16.5969 11.5855 16.5969 11.6109 16.5969 11.6363C16.5969 11.6363 16.5969 11.6363 16.5969 11.6448V12.4407C16.5969 12.483 16.5969 12.5338 16.5969 12.5761V12.5846C16.5969 12.6269 16.6054 12.6693 16.6054 12.7116C16.6054 12.7116 16.6054 12.7116 16.6054 12.7201C16.6138 12.7624 16.6138 12.8047 16.6222 12.8471V12.8555C16.6307 12.8979 16.6391 12.9402 16.6475 12.9741C16.8246 13.8038 17.4232 14.4897 18.1989 14.786C18.2074 14.803 18.2327 14.8114 18.258 14.8199ZM19.9865 12.1612C19.9865 11.9919 20.1298 11.848 20.2984 11.848C20.4671 11.848 20.6104 11.9919 20.6104 12.1612V12.5253C20.6104 12.6947 20.4671 12.8386 20.2984 12.8386C20.1298 12.8386 19.9865 12.6947 19.9865 12.5253V12.1612ZM17.8701 12.8386C17.7015 12.8386 17.5581 12.6947 17.5581 12.5253V12.1612C17.5581 11.9919 17.7015 11.848 17.8701 11.848C18.0387 11.848 18.1821 11.9919 18.1821 12.1612V12.5253C18.1821 12.6947 18.0472 12.8386 17.8701 12.8386ZM18.2327 13.6514C18.376 13.5498 18.5699 13.5837 18.6711 13.7192C18.7301 13.8038 18.8819 13.8885 19.0843 13.8885C19.2866 13.8885 19.4384 13.8038 19.4974 13.7192C19.5986 13.5752 19.7925 13.5498 19.9359 13.6514C20.0792 13.753 20.1045 13.9478 20.0033 14.0917C19.8094 14.3627 19.4637 14.5235 19.0843 14.5235C18.6964 14.5235 18.3591 14.3627 18.1652 14.0917C18.064 13.9478 18.0978 13.753 18.2327 13.6514Z" fill="white"/>
<path d="M22.4572 12.593V12.0935C22.4572 12.0427 22.4234 11.9919 22.3728 11.9665H22.3644C22.356 11.9665 22.356 11.9665 22.3476 11.958C22.3391 11.958 22.3307 11.958 22.3223 11.958H22.2211V12.4406C22.2211 12.4914 22.2211 12.5422 22.2211 12.593C22.2211 12.6269 22.2211 12.6523 22.2126 12.6862C22.2126 12.7031 22.2126 12.72 22.2126 12.737H22.3307C22.3981 12.737 22.4572 12.6777 22.4572 12.593Z" fill="white"/>
<path d="M20.0372 17.2753L20.2986 16.4202L19.9192 16.5218C19.7253 16.5726 19.5313 16.6064 19.3374 16.6234L19.9866 17.2161C20.0035 17.233 20.0204 17.2499 20.0372 17.2753Z" fill="white"/>
<path d="M15.9563 12.593C15.9563 12.5422 15.9563 12.4914 15.9563 12.4406V11.958H15.8551C15.8467 11.958 15.8383 11.958 15.8298 11.958C15.8214 11.958 15.813 11.9665 15.8045 11.9665C15.7539 11.9919 15.7202 12.0427 15.7202 12.0935V12.593C15.7202 12.6692 15.7792 12.7285 15.8551 12.7285H15.9732C15.9732 12.7116 15.9732 12.6946 15.9732 12.6777C15.9647 12.6523 15.9563 12.6269 15.9563 12.593Z" fill="white"/>
<path d="M16.597 10.307C17.3137 10.1885 18.0135 10.4086 18.688 10.6203C19.2277 10.7897 19.7757 10.9675 20.3238 10.9675C20.8634 10.9675 21.3103 10.8659 21.6391 10.6711C21.6982 10.6373 21.7488 10.6203 21.8078 10.6203H21.8162C21.8246 10.6203 21.8331 10.6203 21.8415 10.6203C21.8499 10.6203 21.8584 10.6203 21.8668 10.6203C21.8752 10.6203 21.8837 10.6203 21.8837 10.6288C21.8921 10.6288 21.9005 10.6288 21.909 10.6373C21.9174 10.6373 21.9258 10.6457 21.9258 10.6457C21.9342 10.6457 21.9427 10.6542 21.9511 10.6542C21.9595 10.6542 21.968 10.6627 21.968 10.6711C21.9764 10.6796 21.9848 10.6796 21.9933 10.6881C22.0017 10.6965 22.0101 10.6965 22.0101 10.705C22.0186 10.7135 22.0186 10.7135 22.027 10.7219C22.0354 10.7304 22.0354 10.7389 22.0439 10.7473C22.0523 10.7558 22.0523 10.7558 22.0607 10.7643C22.0692 10.7727 22.0692 10.7812 22.0776 10.7897C22.0776 10.7981 22.086 10.7981 22.086 10.8066C22.086 10.8151 22.0944 10.8235 22.0944 10.832C22.0944 10.8405 22.1029 10.8405 22.1029 10.8489C22.1029 10.8489 22.1029 10.8489 22.1029 10.8574V10.8659C22.1113 10.9082 22.1197 10.9421 22.1282 10.9844L22.1366 11.0183C22.145 11.0606 22.1535 11.1029 22.1619 11.1453V11.1707C22.1619 11.1876 22.1703 11.2045 22.1703 11.2215V10.9675C22.1703 9.51114 20.9899 8.33423 19.5481 8.33423H18.5869C17.1366 8.33423 15.9646 9.51961 15.9646 10.9675V11.2384C15.9899 11.0521 16.0321 10.8743 16.0826 10.6965C16.0995 10.6542 16.1079 10.6034 16.1248 10.5611C16.1248 10.5611 16.1248 10.5611 16.1248 10.5526C16.1248 10.5526 16.1248 10.5441 16.1332 10.5441C16.1332 10.5357 16.1417 10.5272 16.1417 10.5272L16.1501 10.5187C16.1501 10.5103 16.1585 10.5018 16.1585 10.5018L16.167 10.4933C16.1754 10.4849 16.1754 10.4849 16.1838 10.4764L16.1923 10.4679C16.2007 10.4595 16.2007 10.4595 16.2091 10.451L16.2176 10.4425C16.226 10.434 16.226 10.4341 16.2344 10.4256C16.2428 10.4256 16.2428 10.4171 16.2513 10.4171C16.2597 10.4171 16.2597 10.4086 16.2681 10.4086C16.2766 10.4086 16.2766 10.4002 16.285 10.4002C16.2934 10.4002 16.2934 10.3917 16.3019 10.3917C16.3103 10.3832 16.3272 10.3832 16.3356 10.3832C16.4115 10.3663 16.4789 10.3494 16.5548 10.3324H16.5633C16.5885 10.307 16.597 10.307 16.597 10.307Z" fill="white"/>
</g>
<defs>
<clipPath id="clip0">
<rect width="20" height="19" fill="white" transform="translate(4 3)"/>
</clipPath>
</defs>
</svg>
